<svg width="75" height="75" viewBox="0 0 75 75" fill="none" xmlns="http://www.w3.org/2000/svg">
<g filter="url(#filter0_d_319_2323)">
<rect x="4" width="67" height="67" rx="33.5" fill="white" shape-rendering="crispEdges"/>
<mask id="mask0_319_2323" style="mask-type:alpha" maskUnits="userSpaceOnUse" x="19" y="15" width="37" height="37">
<rect x="19" y="15" width="37" height="37" fill="#D9D9D9"/>
</mask>
<g mask="url(#mask0_319_2323)">
<path d="M35.9583 47.375V38.125H39.0417V41.2083H51.375V44.2917H39.0417V47.375H35.9583ZM23.625 44.2917V41.2083H32.875V44.2917H23.625ZM29.7917 38.125V35.0417H23.625V31.9583H29.7917V28.875H32.875V38.125H29.7917ZM35.9583 35.0417V31.9583H51.375V35.0417H35.9583ZM42.125 28.875V19.625H45.2083V22.7083H51.375V25.7917H45.2083V28.875H42.125ZM23.625 25.7917V22.7083H39.0417V25.7917H23.625Z" fill="#949494"/>
</g>
</g>
<defs>
<filter id="filter0_d_319_2323" x="0" y="0" width="75" height="75" filterUnits="userSpaceOnUse" color-interpolation-filters="sRGB">
<feFlood flood-opacity="0" result="BackgroundImageFix"/>
<feColorMatrix in="SourceAlpha" type="matrix" values="0 0 0 0 0 0 0 0 0 0 0 0 0 0 0 0 0 0 127 0" result="hardAlpha"/>
<feOffset dy="4"/>
<feGaussianBlur stdDeviation="2"/>
<feComposite in2="hardAlpha" operator="out"/>
<feColorMatrix type="matrix" values="0 0 0 0 0 0 0 0 0 0 0 0 0 0 0 0 0 0 0.25 0"/>
<feBlend mode="normal" in2="BackgroundImageFix" result="effect1_dropShadow_319_2323"/>
<feBlend mode="normal" in="SourceGraphic" in2="effect1_dropShadow_319_2323" result="shape"/>
</filter>
</defs>
</svg>
