<svg id="language_FILL0_wght400_GRAD0_opsz48" xmlns="http://www.w3.org/2000/svg" width="32" height="32" viewBox="0 0 32 32">
  <path id="language_FILL0_wght400_GRAD0_opsz48-2" data-name="language_FILL0_wght400_GRAD0_opsz48" d="M20,36a15.68,15.68,0,0,1-6.28-1.26,16.158,16.158,0,0,1-5.08-3.42,15.826,15.826,0,0,1-3.4-5.1A16.043,16.043,0,0,1,4,19.92a15.754,15.754,0,0,1,1.24-6.26A15.942,15.942,0,0,1,8.64,8.6a15.616,15.616,0,0,1,5.08-3.38A16.124,16.124,0,0,1,20,4a16.124,16.124,0,0,1,6.28,1.22A15.616,15.616,0,0,1,31.36,8.6a15.942,15.942,0,0,1,3.4,5.06A15.754,15.754,0,0,1,36,19.92a16.044,16.044,0,0,1-1.24,6.3,15.826,15.826,0,0,1-3.4,5.1,16.158,16.158,0,0,1-5.08,3.42A15.68,15.68,0,0,1,20,36Zm0-2.32a13.313,13.313,0,0,0,2.34-3.3,19.867,19.867,0,0,0,1.54-4.42H16.16a20.286,20.286,0,0,0,1.5,4.32A13.632,13.632,0,0,0,20,33.68Zm-3.4-.48a19.124,19.124,0,0,1-1.72-3.28,23.962,23.962,0,0,1-1.2-3.96h-6a14.346,14.346,0,0,0,3.52,4.46A17.575,17.575,0,0,0,16.6,33.2Zm6.84-.04a16.015,16.015,0,0,0,5.18-2.76,14.326,14.326,0,0,0,3.7-4.44H26.36a28.977,28.977,0,0,1-1.22,3.92,18.157,18.157,0,0,1-1.7,3.28ZM6.88,23.56h6.36q-.12-1.08-.14-1.94t-.02-1.7q0-1,.04-1.78t.16-1.74H6.88a11.664,11.664,0,0,0-.38,1.72,14.017,14.017,0,0,0-.1,1.8,15.5,15.5,0,0,0,.1,1.86,11.276,11.276,0,0,0,.38,1.78Zm8.84,0h8.6q.16-1.24.2-2.02t.04-1.62q0-.8-.04-1.54t-.2-1.98h-8.6q-.16,1.24-.2,1.98t-.04,1.54q0,.84.04,1.62t.2,2.02Zm11,0h6.4a11.276,11.276,0,0,0,.38-1.78,15.5,15.5,0,0,0,.1-1.86,14.018,14.018,0,0,0-.1-1.8,11.664,11.664,0,0,0-.38-1.72H26.76q.12,1.4.16,2.14t.04,1.38q0,.88-.06,1.66t-.18,1.98ZM26.32,14h6A12.96,12.96,0,0,0,28.7,9.4a13.793,13.793,0,0,0-5.3-2.6A17.435,17.435,0,0,1,25.1,10a26.015,26.015,0,0,1,1.22,4ZM16.16,14h7.76a15.6,15.6,0,0,0-1.48-4.1A16.363,16.363,0,0,0,20,6.4a8.8,8.8,0,0,0-2.16,2.84A25.828,25.828,0,0,0,16.16,14ZM7.68,14h6.04a22.515,22.515,0,0,1,1.12-3.86,18.99,18.99,0,0,1,1.72-3.3A13.2,13.2,0,0,0,7.68,14Z" transform="translate(-4 -4)" fill="#11dcca"/>
</svg>
