<svg width="37" height="26" viewBox="0 0 37 26" fill="none" xmlns="http://www.w3.org/2000/svg">
<path d="M34.9028 11.4387H2.09718C1.23442 11.4387 0.535034 12.1381 0.535034 13.0009C0.535034 13.8636 1.23442 14.563 2.09718 14.563H34.9028C35.7656 14.563 36.465 13.8636 36.465 13.0009C36.465 12.1381 35.7656 11.4387 34.9028 11.4387Z" fill="white"/>
<path d="M2.09718 3.62723H34.9028C35.7656 3.62723 36.465 2.92784 36.465 2.06508C36.465 1.20232 35.7656 0.50293 34.9028 0.50293H2.09718C1.23442 0.50293 0.535034 1.20232 0.535034 2.06508C0.535034 2.92784 1.23442 3.62723 2.09718 3.62723Z" fill="white"/>
<path d="M34.9028 22.3732H2.09718C1.23442 22.3732 0.535034 23.0727 0.535034 23.9355C0.535034 24.7982 1.23442 25.4976 2.09718 25.4976H34.9028C35.7656 25.4976 36.465 24.7982 36.465 23.9355C36.465 23.0727 35.7656 22.3732 34.9028 22.3732Z" fill="white"/>
</svg>
