<svg width="9" height="8" viewBox="0 0 9 8" fill="none" xmlns="http://www.w3.org/2000/svg">
<mask id="mask0_11_1281" style="mask-type:alpha" maskUnits="userSpaceOnUse" x="0" y="0" width="9" height="8">
<rect x="0.71582" y="0.557449" width="7.38354" height="7.38354" fill="#001848"/>
</mask>
<g mask="url(#mask0_11_1281)">
<path d="M6.56122 3.01854V2.40324H5.94592V1.78795H6.56122V1.17265H7.17651V1.78795H7.79181V2.40324H7.17651V3.01854H6.56122ZM1.63885 7.3256C1.46965 7.3256 1.3248 7.26536 1.2043 7.14486C1.08381 7.02437 1.02356 6.87951 1.02356 6.71031V3.01854C1.02356 2.84933 1.08381 2.70448 1.2043 2.58399C1.3248 2.46349 1.46965 2.40324 1.63885 2.40324H2.60794L3.17709 1.78795H5.02298V2.40324H3.44628L2.88483 3.01854H1.63885V6.71031H6.56122V3.94148H7.17651V6.71031C7.17651 6.87951 7.11626 7.02437 6.99577 7.14486C6.87527 7.26536 6.73042 7.3256 6.56122 7.3256H1.63885ZM4.10004 6.24884C4.48459 6.24884 4.81147 6.11424 5.08066 5.84505C5.34985 5.57586 5.48445 5.24898 5.48445 4.86442C5.48445 4.47986 5.34985 4.15299 5.08066 3.8838C4.81147 3.61461 4.48459 3.48001 4.10004 3.48001C3.71548 3.48001 3.3886 3.61461 3.11941 3.8838C2.85022 4.15299 2.71562 4.47986 2.71562 4.86442C2.71562 5.24898 2.85022 5.57586 3.11941 5.84505C3.3886 6.11424 3.71548 6.24884 4.10004 6.24884ZM4.10004 5.63354C3.88468 5.63354 3.70266 5.55919 3.55396 5.4105C3.40526 5.2618 3.33092 5.07978 3.33092 4.86442C3.33092 4.64907 3.40526 4.46705 3.55396 4.31835C3.70266 4.16965 3.88468 4.0953 4.10004 4.0953C4.31539 4.0953 4.49741 4.16965 4.64611 4.31835C4.79481 4.46705 4.86915 4.64907 4.86915 4.86442C4.86915 5.07978 4.79481 5.2618 4.64611 5.4105C4.49741 5.55919 4.31539 5.63354 4.10004 5.63354Z" fill="white"/>
</g>
</svg>
