<svg width="16" height="17" viewBox="0 0 16 17" fill="none" xmlns="http://www.w3.org/2000/svg">
<path d="M8.19111 10.3171C7.96466 10.3171 7.77484 10.2405 7.62166 10.0873C7.46847 9.93413 7.39188 9.74431 7.39188 9.51787C7.39188 9.29142 7.46847 9.1016 7.62166 8.94841C7.77484 8.79523 7.96466 8.71864 8.19111 8.71864C8.41756 8.71864 8.60738 8.79523 8.76056 8.94841C8.91375 9.1016 8.99034 9.29142 8.99034 9.51787C8.99034 9.74431 8.91375 9.93413 8.76056 10.0873C8.60738 10.2405 8.41756 10.3171 8.19111 10.3171ZM4.99419 10.3171C4.76774 10.3171 4.57793 10.2405 4.42474 10.0873C4.27156 9.93413 4.19496 9.74431 4.19496 9.51787C4.19496 9.29142 4.27156 9.1016 4.42474 8.94841C4.57793 8.79523 4.76774 8.71864 4.99419 8.71864C5.22064 8.71864 5.41046 8.79523 5.56364 8.94841C5.71683 9.1016 5.79342 9.29142 5.79342 9.51787C5.79342 9.74431 5.71683 9.93413 5.56364 10.0873C5.41046 10.2405 5.22064 10.3171 4.99419 10.3171ZM11.388 10.3171C11.1616 10.3171 10.9718 10.2405 10.8186 10.0873C10.6654 9.93413 10.5888 9.74431 10.5888 9.51787C10.5888 9.29142 10.6654 9.1016 10.8186 8.94841C10.9718 8.79523 11.1616 8.71864 11.388 8.71864C11.6145 8.71864 11.8043 8.79523 11.9575 8.94841C12.1107 9.1016 12.1873 9.29142 12.1873 9.51787C12.1873 9.74431 12.1107 9.93413 11.9575 10.0873C11.8043 10.2405 11.6145 10.3171 11.388 10.3171ZM8.19111 13.514C7.96466 13.514 7.77484 13.4374 7.62166 13.2842C7.46847 13.131 7.39188 12.9412 7.39188 12.7148C7.39188 12.4883 7.46847 12.2985 7.62166 12.1453C7.77484 11.9921 7.96466 11.9156 8.19111 11.9156C8.41756 11.9156 8.60738 11.9921 8.76056 12.1453C8.91375 12.2985 8.99034 12.4883 8.99034 12.7148C8.99034 12.9412 8.91375 13.131 8.76056 13.2842C8.60738 13.4374 8.41756 13.514 8.19111 13.514ZM4.99419 13.514C4.76774 13.514 4.57793 13.4374 4.42474 13.2842C4.27156 13.131 4.19496 12.9412 4.19496 12.7148C4.19496 12.4883 4.27156 12.2985 4.42474 12.1453C4.57793 11.9921 4.76774 11.9156 4.99419 11.9156C5.22064 11.9156 5.41046 11.9921 5.56364 12.1453C5.71683 12.2985 5.79342 12.4883 5.79342 12.7148C5.79342 12.9412 5.71683 13.131 5.56364 13.2842C5.41046 13.4374 5.22064 13.514 4.99419 13.514ZM11.388 13.514C11.1616 13.514 10.9718 13.4374 10.8186 13.2842C10.6654 13.131 10.5888 12.9412 10.5888 12.7148C10.5888 12.4883 10.6654 12.2985 10.8186 12.1453C10.9718 11.9921 11.1616 11.9156 11.388 11.9156C11.6145 11.9156 11.8043 11.9921 11.9575 12.1453C12.1107 12.2985 12.1873 12.4883 12.1873 12.7148C12.1873 12.9412 12.1107 13.131 11.9575 13.2842C11.8043 13.4374 11.6145 13.514 11.388 13.514ZM2.59651 16.7109C2.15693 16.7109 1.78063 16.5544 1.46759 16.2414C1.15456 15.9283 0.998047 15.552 0.998047 15.1125V3.92326C0.998047 3.48369 1.15456 3.10738 1.46759 2.79435C1.78063 2.48132 2.15693 2.3248 2.59651 2.3248H3.39573V0.726345H4.99419V2.3248H11.388V0.726345H12.9865V2.3248H13.7857C14.2253 2.3248 14.6016 2.48132 14.9146 2.79435C15.2277 3.10738 15.3842 3.48369 15.3842 3.92326V15.1125C15.3842 15.552 15.2277 15.9283 14.9146 16.2414C14.6016 16.5544 14.2253 16.7109 13.7857 16.7109H2.59651ZM2.59651 15.1125H13.7857V7.12018H2.59651V15.1125Z" fill="#333333"/>
</svg>
