<svg width="26" height="26" viewBox="0 0 26 26" fill="none" xmlns="http://www.w3.org/2000/svg">
<mask id="mask0_75_194" style="mask-type:alpha" maskUnits="userSpaceOnUse" x="0" y="0" width="26" height="26">
<rect x="0.592072" y="0.631592" width="24.8684" height="24.8684" fill="#D9D9D9"/>
</mask>
<g mask="url(#mask0_75_194)">
<path d="M8.88167 19.2829H10.4359V17.2105H12.5083V15.6562H10.4359V13.5839H8.88167V15.6562H6.8093V17.2105H8.88167V19.2829ZM14.0626 18.5057H19.2435V16.9515H14.0626V18.5057ZM14.0626 15.9153H19.2435V14.361H14.0626V15.9153ZM15.2024 11.9778L16.653 10.5271L18.1037 11.9778L19.1917 10.8898L17.741 9.38732L19.1917 7.93666L18.1037 6.84866L16.653 8.29932L15.2024 6.84866L14.1144 7.93666L15.5651 9.38732L14.1144 10.8898L15.2024 11.9778ZM7.06834 10.1645H12.2493V8.61018H7.06834V10.1645ZM5.77311 22.3914C5.20321 22.3914 4.71534 22.1885 4.3095 21.7827C3.90366 21.3768 3.70074 20.889 3.70074 20.3191V5.81248C3.70074 5.24258 3.90366 4.75471 4.3095 4.34887C4.71534 3.94303 5.20321 3.74011 5.77311 3.74011H20.2797C20.8496 3.74011 21.3375 3.94303 21.7433 4.34887C22.1491 4.75471 22.3521 5.24258 22.3521 5.81248V20.3191C22.3521 20.889 22.1491 21.3768 21.7433 21.7827C21.3375 22.1885 20.8496 22.3914 20.2797 22.3914H5.77311ZM5.77311 20.3191H20.2797V5.81248H5.77311V20.3191Z" fill="white"/>
</g>
</svg>
