<svg width="26" height="26" viewBox="0 0 26 26" fill="none" xmlns="http://www.w3.org/2000/svg">
<mask id="mask0_75_189" style="mask-type:alpha" maskUnits="userSpaceOnUse" x="0" y="0" width="26" height="26">
<rect x="0.592072" y="0.782837" width="24.8684" height="24.8684" fill="#D9D9D9"/>
</mask>
<g mask="url(#mask0_75_189)">
<path d="M5.77311 22.5428C5.20321 22.5428 4.71534 22.3399 4.3095 21.934C3.90366 21.5282 3.70074 21.0403 3.70074 20.4704V5.96383C3.70074 5.39393 3.90366 4.90606 4.3095 4.50022C4.71534 4.09438 5.20321 3.89146 5.77311 3.89146H10.1251C10.3496 3.26975 10.7252 2.76893 11.2519 2.38899C11.7787 2.00906 12.3702 1.81909 13.0264 1.81909C13.6827 1.81909 14.2741 2.00906 14.8009 2.38899C15.3276 2.76893 15.7032 3.26975 15.9277 3.89146H20.2797C20.8496 3.89146 21.3375 4.09438 21.7433 4.50022C22.1491 4.90606 22.3521 5.39393 22.3521 5.96383V20.4704C22.3521 21.0403 22.1491 21.5282 21.7433 21.934C21.3375 22.3399 20.8496 22.5428 20.2797 22.5428H5.77311ZM5.77311 20.4704H20.2797V5.96383H5.77311V20.4704ZM7.84548 18.398H15.0988V16.3257H7.84548V18.398ZM7.84548 14.2533H18.2073V12.1809H7.84548V14.2533ZM7.84548 10.1086H18.2073V8.0362H7.84548V10.1086ZM13.0264 5.18669C13.2509 5.18669 13.4366 5.11329 13.5834 4.9665C13.7301 4.81971 13.8035 4.63406 13.8035 4.40955C13.8035 4.18505 13.7301 3.9994 13.5834 3.8526C13.4366 3.70581 13.2509 3.63241 13.0264 3.63241C12.8019 3.63241 12.6162 3.70581 12.4695 3.8526C12.3227 3.9994 12.2493 4.18505 12.2493 4.40955C12.2493 4.63406 12.3227 4.81971 12.4695 4.9665C12.6162 5.11329 12.8019 5.18669 13.0264 5.18669Z" fill="white"/>
</g>
</svg>
