<svg width="9" height="11" viewBox="0 0 9 11" fill="none" xmlns="http://www.w3.org/2000/svg">
<path d="M1.73146 10.0496C1.47264 10.0496 1.25107 9.95747 1.06675 9.77315C0.88244 9.58884 0.790283 9.36727 0.790283 9.10845V2.52021H1.73146V9.10845H6.90793V10.0496H1.73146ZM3.61381 8.16727C3.35499 8.16727 3.13342 8.07511 2.94911 7.8908C2.76479 7.70649 2.67264 7.48492 2.67264 7.22609V1.57904C2.67264 1.32021 2.76479 1.09864 2.94911 0.91433C3.13342 0.730016 3.35499 0.637859 3.61381 0.637859H7.84911C8.10793 0.637859 8.3295 0.730016 8.51381 0.91433C8.69813 1.09864 8.79028 1.32021 8.79028 1.57904V7.22609C8.79028 7.48492 8.69813 7.70649 8.51381 7.8908C8.3295 8.07511 8.10793 8.16727 7.84911 8.16727H3.61381ZM3.61381 7.22609H7.84911V1.57904H3.61381V7.22609Z" fill="#495057"/>
</svg>
