<svg width="31" height="31" viewBox="0 0 31 31" fill="none" xmlns="http://www.w3.org/2000/svg">
<mask id="mask0_69_3116" style="mask-type:alpha" maskUnits="userSpaceOnUse" x="0" y="0" width="31" height="31">
<rect x="0.708008" y="0.295654" width="30.082" height="30.082" fill="#D9D9D9"/>
</mask>
<g mask="url(#mask0_69_3116)">
<path d="M3.21484 30.3777V25.364H28.2832V30.3777H3.21484ZM5.72168 22.8572V18.1568L17.0651 6.8134L21.7654 11.5137L10.422 22.8572H5.72168ZM23.1755 10.135L18.4752 5.43464L20.7314 3.17849C20.9612 2.92781 21.2536 2.80769 21.6088 2.81813C21.9639 2.82858 22.2564 2.9487 22.4862 3.17849L25.4317 6.12402C25.6615 6.35382 25.7764 6.64106 25.7764 6.98575C25.7764 7.33044 25.6615 7.62813 25.4317 7.87881L23.1755 10.135Z" fill="#80C342"/>
</g>
</svg>
