<svg width="16" height="16" viewBox="0 0 16 16" fill="none" xmlns="http://www.w3.org/2000/svg">
<mask id="mask0_11_1312" style="mask-type:alpha" maskUnits="userSpaceOnUse" x="0" y="0" width="16" height="16">
<rect x="0.75" y="0.359085" width="15" height="15" fill="#D9D9D9"/>
</mask>
<g mask="url(#mask0_11_1312)">
<path d="M2 15.3591V12.8591H14.5V15.3591H2ZM3.25 11.6091V9.26533L8.90625 3.60908L11.25 5.95283L5.59375 11.6091H3.25ZM11.9531 5.26533L9.60938 2.92158L10.7344 1.79658C10.849 1.67158 10.9948 1.61169 11.1719 1.61689C11.349 1.6221 11.4948 1.682 11.6094 1.79658L13.0781 3.26533C13.1927 3.37991 13.25 3.52314 13.25 3.69502C13.25 3.86689 13.1927 4.01533 13.0781 4.14033L11.9531 5.26533Z" fill="#FF8001"/>
</g>
</svg>
