<svg width="18" height="19" viewBox="0 0 18 19" fill="none" xmlns="http://www.w3.org/2000/svg">
<mask id="mask0_38_4073" style="mask-type:alpha" maskUnits="userSpaceOnUse" x="0" y="0" width="18" height="19">
<rect x="0.0405273" y="0.866348" width="17.9393" height="17.9393" fill="#D9D9D9"/>
</mask>
<g mask="url(#mask0_38_4073)">
<path d="M10.6922 16.8623C10.4057 17.1488 10.0506 17.2921 9.62704 17.2921C9.20347 17.2921 8.84842 17.1488 8.56189 16.8623L1.98413 10.2845C1.84709 10.1475 1.73809 9.98553 1.65711 9.79867C1.57613 9.6118 1.53564 9.41247 1.53564 9.20069V3.85626C1.53564 3.44515 1.68202 3.09321 1.97478 2.80045C2.26754 2.50769 2.61948 2.36131 3.03059 2.36131H8.37502C8.5868 2.36131 8.78613 2.4018 8.973 2.48278C9.15987 2.56375 9.32182 2.67276 9.45886 2.8098L16.0366 9.40624C16.3231 9.69277 16.4664 10.0447 16.4664 10.462C16.4664 10.8794 16.3231 11.2313 16.0366 11.5179L10.6922 16.8623ZM4.89927 6.84615C5.21072 6.84615 5.47545 6.73714 5.69346 6.51913C5.91147 6.30112 6.02048 6.03639 6.02048 5.72494C6.02048 5.41349 5.91147 5.14876 5.69346 4.93075C5.47545 4.71274 5.21072 4.60373 4.89927 4.60373C4.58782 4.60373 4.32309 4.71274 4.10508 4.93075C3.88707 5.14876 3.77806 5.41349 3.77806 5.72494C3.77806 6.03639 3.88707 6.30112 4.10508 6.51913C4.32309 6.73714 4.58782 6.84615 4.89927 6.84615Z" fill="white"/>
</g>
</svg>
