<svg width="17" height="17" viewBox="0 0 17 17" fill="none" xmlns="http://www.w3.org/2000/svg">
<path d="M1.79731 16.3479C1.35773 16.3479 0.981431 16.1914 0.6684 15.8784C0.355368 15.5654 0.198853 15.1891 0.198853 14.7495V5.95797C0.198853 5.51839 0.355368 5.14209 0.6684 4.82906C0.981431 4.51603 1.35773 4.35951 1.79731 4.35951H5.79346V1.96182C5.79346 1.52225 5.94997 1.14594 6.263 0.832912C6.57603 0.519881 6.95234 0.363365 7.39191 0.363365H8.99037C9.42995 0.363365 9.80625 0.519881 10.1193 0.832912C10.4323 1.14594 10.5888 1.52225 10.5888 1.96182V4.35951H14.585C15.0246 4.35951 15.4009 4.51603 15.7139 4.82906C16.0269 5.14209 16.1834 5.51839 16.1834 5.95797V14.7495C16.1834 15.1891 16.0269 15.5654 15.7139 15.8784C15.4009 16.1914 15.0246 16.3479 14.585 16.3479H1.79731ZM3.39577 13.151H8.19114V12.7914C8.19114 12.5649 8.12787 12.3551 8.00133 12.162C7.87478 11.9688 7.69829 11.819 7.47184 11.7124C7.20543 11.5925 6.93569 11.5026 6.66262 11.4427C6.38955 11.3827 6.09983 11.3528 5.79346 11.3528C5.48708 11.3528 5.19736 11.3827 4.92429 11.4427C4.65122 11.5026 4.38148 11.5925 4.11508 11.7124C3.88863 11.819 3.71213 11.9688 3.58559 12.162C3.45904 12.3551 3.39577 12.5649 3.39577 12.7914V13.151ZM9.7896 11.9522H12.9865V10.7533H9.7896V11.9522ZM5.79346 10.7533C6.12647 10.7533 6.40953 10.6368 6.64264 10.4037C6.87575 10.1706 6.9923 9.88751 6.9923 9.5545C6.9923 9.22149 6.87575 8.93843 6.64264 8.70532C6.40953 8.47221 6.12647 8.35566 5.79346 8.35566C5.46044 8.35566 5.17738 8.47221 4.94428 8.70532C4.71117 8.93843 4.59461 9.22149 4.59461 9.5545C4.59461 9.88751 4.71117 10.1706 4.94428 10.4037C5.17738 10.6368 5.46044 10.7533 5.79346 10.7533ZM9.7896 9.5545H12.9865V8.35566H9.7896V9.5545ZM7.39191 5.95797H8.99037V1.96182H7.39191V5.95797Z" fill="#333333"/>
</svg>
