<svg width="20" height="20" viewBox="0 0 20 20" fill="none" xmlns="http://www.w3.org/2000/svg">
<g opacity="0.3" clip-path="url(#clip0_49_922)">
<path d="M16.3847 4.11784V8.91322H14.7862V6.8552L11.6093 10.0122C11.8623 10.3851 12.0555 10.7814 12.1887 11.201C12.3219 11.6206 12.3885 12.0569 12.3885 12.5097C12.3885 13.7352 11.9623 14.7742 11.1097 15.6267C10.2572 16.4793 9.21823 16.9055 7.99275 16.9055C6.76726 16.9055 5.72826 16.4793 4.87575 15.6267C4.02324 14.7742 3.59698 13.7352 3.59698 12.5097C3.59698 11.2843 4.02324 10.2453 4.87575 9.39276C5.72826 8.54024 6.76726 8.11399 7.99275 8.11399C8.43232 8.11399 8.86524 8.17726 9.29149 8.30381C9.71775 8.43035 10.1107 8.62683 10.4704 8.89324L13.6473 5.7163H11.5893V4.11784H16.3847ZM7.99275 9.71245C7.22016 9.71245 6.56079 9.98552 6.01465 10.5317C5.46851 11.0778 5.19544 11.7372 5.19544 12.5097C5.19544 13.2823 5.46851 13.9417 6.01465 14.4878C6.56079 15.034 7.22016 15.3071 7.99275 15.3071C8.76533 15.3071 9.4247 15.034 9.97084 14.4878C10.517 13.9417 10.79 13.2823 10.79 12.5097C10.79 11.7372 10.517 11.0778 9.97084 10.5317C9.4247 9.98552 8.76533 9.71245 7.99275 9.71245Z" fill="#1C1B1F"/>
<path d="M4.09839 3.8866L4.89762 5.27091L6.28193 4.47168L7.08116 5.85598L5.69685 6.65521L6.53604 8.10873C7.54062 7.74408 8.53899 7.74831 9.53116 8.12142C10.5233 8.49454 11.2892 9.1483 11.8286 10.0827C12.4347 11.1325 12.5772 12.2384 12.256 13.4005C11.9349 14.5626 11.2495 15.4467 10.1997 16.0528C9.14993 16.6589 8.04155 16.8105 6.87456 16.5075C5.70757 16.2046 4.82103 15.5282 4.21495 14.4785C3.67547 13.5441 3.49221 12.554 3.66517 11.5082C3.83812 10.4624 4.33365 9.59563 5.15174 8.90796L4.31255 7.45444L2.92824 8.25367L2.12901 6.86937L3.51332 6.07014L2.71409 4.68583L4.09839 3.8866ZM6.60316 9.82344C5.93408 10.2097 5.49959 10.7759 5.29969 11.5219C5.09979 12.268 5.19298 12.9755 5.57928 13.6446C5.96557 14.3137 6.53174 14.7482 7.27778 14.9481C8.02382 15.148 8.73138 15.0548 9.40046 14.6685C10.0695 14.2822 10.504 13.716 10.7039 12.97C10.9038 12.224 10.8106 11.5164 10.4243 10.8473C10.0381 10.1782 9.47188 9.74375 8.72584 9.54385C7.9798 9.34395 7.27224 9.43715 6.60316 9.82344Z" fill="#1C1B1F"/>
</g>
<defs>
<clipPath id="clip0_49_922">
<rect width="19.1815" height="19.1815" fill="white" transform="translate(0 0.490906)"/>
</clipPath>
</defs>
</svg>
