<svg width="22" height="22" viewBox="0 0 22 22" fill="none" xmlns="http://www.w3.org/2000/svg">
<g clip-path="url(#clip0_75_204)">
<path d="M11.1611 0.19397C8.55896 0.195825 6.04935 1.15983 4.1151 2.90053V1.07473C4.1151 0.841135 4.0223 0.617111 3.85713 0.451937C3.69196 0.286763 3.46793 0.19397 3.23434 0.19397C3.00075 0.19397 2.77673 0.286763 2.61155 0.451937C2.44638 0.617111 2.35358 0.841135 2.35358 1.07473V3.717C2.35358 4.41777 2.63197 5.08984 3.12749 5.58536C3.62301 6.08088 4.29508 6.35927 4.99585 6.35927H7.63812C7.87172 6.35927 8.09574 6.26647 8.26091 6.1013C8.42609 5.93612 8.51888 5.7121 8.51888 5.47851C8.51888 5.24492 8.42609 5.02089 8.26091 4.85572C8.09574 4.69055 7.87172 4.59775 7.63812 4.59775H4.99585C4.96615 4.59335 4.93674 4.58717 4.90778 4.57926C6.34299 3.13378 8.23539 2.23123 10.262 2.02565C12.2885 1.82007 14.3236 2.32422 16.0199 3.45203C17.7161 4.57984 18.9684 6.26141 19.5629 8.20969C20.1573 10.158 20.0572 12.2522 19.2796 14.1349C18.502 16.0176 17.095 17.572 15.2989 18.5329C13.5028 19.4937 11.4289 19.8014 9.43118 19.4035C7.43347 19.0055 5.6358 17.9265 4.34502 16.3507C3.05425 14.7749 2.35039 12.8 2.35358 10.763C2.35358 10.5295 2.26079 10.3054 2.09562 10.1403C1.93044 9.97509 1.70642 9.88229 1.47283 9.88229C1.23924 9.88229 1.01521 9.97509 0.850039 10.1403C0.684865 10.3054 0.592072 10.5295 0.592072 10.763C0.592072 12.8534 1.21194 14.8968 2.37328 16.6349C3.53463 18.373 5.18529 19.7277 7.11654 20.5276C9.04779 21.3276 11.1729 21.5369 13.2231 21.129C15.2733 20.7212 17.1565 19.7146 18.6346 18.2365C20.1127 16.7584 21.1193 14.8752 21.5271 12.825C21.935 10.7748 21.7257 8.64968 20.9257 6.71844C20.1258 4.78719 18.7711 3.13653 17.033 1.97518C15.2949 0.813835 13.2515 0.19397 11.1611 0.19397V0.19397Z" fill="white"/>
<path d="M11.1611 5.47852C10.9275 5.47852 10.7035 5.57131 10.5383 5.73648C10.3731 5.90166 10.2803 6.12568 10.2803 6.35927V10.7631C10.2804 10.9966 10.3732 11.2206 10.5384 11.3858L13.1807 14.028C13.3468 14.1885 13.5693 14.2772 13.8002 14.2752C14.0311 14.2732 14.252 14.1806 14.4153 14.0173C14.5786 13.854 14.6713 13.6331 14.6733 13.4022C14.6753 13.1712 14.5865 12.9487 14.4261 12.7826L12.0418 10.3984V6.35927C12.0418 6.12568 11.9491 5.90166 11.7839 5.73648C11.6187 5.57131 11.3947 5.47852 11.1611 5.47852Z" fill="white"/>
</g>
<defs>
<clipPath id="clip0_75_204">
<rect width="21.1382" height="21.1382" fill="white" transform="translate(0.592072 0.19397)"/>
</clipPath>
</defs>
</svg>
