<svg width="27" height="28" viewBox="0 0 27 28" fill="none" xmlns="http://www.w3.org/2000/svg">
<path d="M3.55401 27.358C2.74853 27.358 2.05899 27.0712 1.4854 26.4976C0.911799 25.924 0.625 25.2345 0.625 24.429V3.92596C0.625 3.12048 0.911799 2.43094 1.4854 1.85734C2.05899 1.28375 2.74853 0.996948 3.55401 0.996948H24.0571C24.8625 0.996948 25.5521 1.28375 26.1257 1.85734C26.6993 2.43094 26.9861 3.12048 26.9861 3.92596V24.429C26.9861 25.2345 26.6993 25.924 26.1257 26.4976C25.5521 27.0712 24.8625 27.358 24.0571 27.358H3.55401ZM3.55401 24.429H24.0571V6.85496H3.55401V24.429ZM6.48302 14.1775V11.2485H21.1281V14.1775H6.48302ZM6.48302 20.0355V17.1065H15.27V20.0355H6.48302Z" fill="#83D0E3"/>
</svg>
