<svg width="11" height="11" viewBox="0 0 11 11" fill="none" xmlns="http://www.w3.org/2000/svg">
<path d="M10.0987 3.61262C10.0762 3.11317 9.99552 2.77144 9.88105 2.4729C9.76096 2.16497 9.60146 1.9021 9.34062 1.64299C9.07979 1.38388 8.81896 1.22052 8.51121 1.10223C8.21285 0.985819 7.87132 0.906958 7.37217 0.884427C6.87115 0.861895 6.71164 0.856262 5.43938 0.856262C4.16523 0.856262 4.00573 0.861895 3.50658 0.884427C3.00743 0.906958 2.66591 0.987696 2.36754 1.10223C2.05792 1.2224 1.79521 1.382 1.53625 1.64299C1.2773 1.90398 1.11404 2.16497 0.995822 2.4729C0.881355 2.77144 0.800666 3.11317 0.778148 3.61262C0.75563 4.11395 0.75 4.27355 0.75 5.54658C0.75 6.82149 0.75563 6.98108 0.778148 7.48053C0.800666 7.97998 0.881355 8.32171 0.995822 8.62025C1.11592 8.92818 1.27542 9.19105 1.53625 9.45016C1.79521 9.71115 2.05792 9.87263 2.36567 9.99092C2.66403 10.1073 3.00555 10.1862 3.5047 10.2087C4.00573 10.2313 4.16523 10.2369 5.4375 10.2369C6.71164 10.2369 6.87115 10.2313 7.3703 10.2087C7.86945 10.1862 8.21097 10.1055 8.50933 9.99092C8.81708 9.87075 9.07979 9.71115 9.33875 9.45016C9.5977 9.18917 9.76096 8.92818 9.87918 8.62025C9.99552 8.32171 10.0743 7.97998 10.0969 7.48053C10.1194 6.97921 10.125 6.81961 10.125 5.54658C10.125 4.27355 10.1212 4.11207 10.0987 3.61262ZM9.25618 7.44298C9.23554 7.90112 9.1586 8.15085 9.0948 8.3142C9.01036 8.532 8.90715 8.68973 8.74202 8.85496C8.57689 9.02019 8.42114 9.1197 8.20159 9.20795C8.03645 9.27179 7.78688 9.34877 7.33089 9.36943C6.83737 9.39196 6.68913 9.39759 5.43562 9.39759C4.18212 9.39759 4.03388 9.39196 3.54036 9.36943C3.08249 9.34877 2.83292 9.27179 2.66966 9.20795C2.45199 9.12346 2.29436 9.02019 2.12923 8.85496C1.9641 8.68973 1.86464 8.53388 1.77645 8.3142C1.71265 8.14897 1.63571 7.89924 1.61507 7.44298C1.59255 6.94916 1.58692 6.80083 1.58692 5.54658C1.58692 4.29232 1.59255 4.14399 1.61507 3.65017C1.63571 3.19203 1.71265 2.94231 1.77645 2.77895C1.86089 2.56115 1.9641 2.40343 2.12923 2.2382C2.29436 2.07297 2.45011 1.97345 2.66966 1.8852C2.83479 1.82136 3.08437 1.74438 3.54036 1.72373C4.03388 1.70119 4.18212 1.69556 5.43562 1.69556C6.68913 1.69556 6.83737 1.70119 7.33089 1.72373C7.78876 1.74438 8.03833 1.82136 8.20159 1.8852C8.41926 1.9697 8.57689 2.07297 8.74202 2.2382C8.90715 2.40343 9.00661 2.55927 9.0948 2.77895C9.1586 2.94418 9.23554 3.19391 9.25618 3.65017C9.2787 4.14399 9.28433 4.29232 9.28433 5.54658C9.28433 6.80083 9.27682 6.94916 9.25618 7.44298Z" fill="#0D358E"/>
<path d="M5.43567 3.13574C4.10336 3.13574 3.02625 4.21538 3.02625 5.54662C3.02625 6.87973 4.10523 7.95749 5.43567 7.95749C6.76611 7.95749 7.8451 6.87598 7.8451 5.54662C7.8451 4.2135 6.76799 3.13574 5.43567 3.13574ZM5.43567 7.11068C4.57248 7.11068 3.87255 6.41033 3.87255 5.54662C3.87255 4.68291 4.57248 3.98255 5.43567 3.98255C6.29886 3.98255 6.9988 4.68291 6.9988 5.54662C6.9988 6.41033 6.29886 7.11068 5.43567 7.11068Z" fill="#0D358E"/>
<path d="M7.9388 3.60512C8.24971 3.60512 8.50176 3.35293 8.50176 3.04183C8.50176 2.73074 8.24971 2.47855 7.9388 2.47855C7.6279 2.47855 7.37585 2.73074 7.37585 3.04183C7.37585 3.35293 7.6279 3.60512 7.9388 3.60512Z" fill="#0D358E"/>
</svg>
