<svg width="26" height="25" viewBox="0 0 26 25" fill="none" xmlns="http://www.w3.org/2000/svg">
<path d="M13.125 0C10.6527 0 8.23598 0.733112 6.18037 2.10663C4.12476 3.48015 2.5226 5.43238 1.5765 7.71646C0.630408 10.0005 0.382867 12.5139 0.865182 14.9386C1.3475 17.3634 2.53801 19.5907 4.28616 21.3388C6.03432 23.087 8.26161 24.2775 10.6864 24.7598C13.1111 25.2421 15.6245 24.9946 17.9085 24.0485C20.1926 23.1024 22.1448 21.5002 23.5184 19.4446C24.8919 17.389 25.625 14.9723 25.625 12.5C25.6214 9.18589 24.3033 6.00855 21.9599 3.66512C19.6164 1.3217 16.4391 0.00358446 13.125 0V0ZM22.1323 7.29167H18.7771C18.026 5.55103 17.0371 3.92301 15.8385 2.45417C18.4911 3.17597 20.7524 4.91403 22.1323 7.29167ZM17.8125 12.5C17.8039 13.5606 17.6368 14.6139 17.3167 15.625H8.93333C8.61318 14.6139 8.44605 13.5606 8.4375 12.5C8.44605 11.4394 8.61318 10.3861 8.93333 9.375H17.3167C17.6368 10.3861 17.8039 11.4394 17.8125 12.5ZM9.76875 17.7083H16.4812C15.5971 19.4539 14.4668 21.0634 13.125 22.4875C11.7827 21.0638 10.6523 19.4542 9.76875 17.7083ZM9.76875 7.29167C10.6529 5.54612 11.7832 3.93662 13.125 2.5125C14.4673 3.93622 15.5977 5.54579 16.4812 7.29167H9.76875ZM10.4167 2.45417C9.21631 3.92269 8.22561 5.55073 7.47291 7.29167H4.11771C5.49881 4.91295 7.76214 3.17474 10.4167 2.45417ZM3.18854 9.375H6.77083C6.50079 10.3949 6.36079 11.4449 6.35416 12.5C6.36079 13.5551 6.50079 14.6051 6.77083 15.625H3.18854C2.54827 13.5909 2.54827 11.4091 3.18854 9.375ZM4.11771 17.7083H7.47291C8.22561 19.4493 9.21631 21.0773 10.4167 22.5458C7.76214 21.8253 5.49881 20.087 4.11771 17.7083ZM15.8385 22.5458C17.0371 21.077 18.026 19.449 18.7771 17.7083H22.1323C20.7524 20.086 18.4911 21.824 15.8385 22.5458ZM23.0615 15.625H19.4792C19.7492 14.6051 19.8892 13.5551 19.8958 12.5C19.8892 11.4449 19.7492 10.3949 19.4792 9.375H23.0594C23.6996 11.4091 23.6996 13.5909 23.0594 15.625H23.0615Z" fill="white"/>
</svg>
