<svg width="26" height="26" viewBox="0 0 26 26" fill="none" xmlns="http://www.w3.org/2000/svg">
<mask id="mask0_75_199" style="mask-type:alpha" maskUnits="userSpaceOnUse" x="0" y="0" width="26" height="26">
<rect x="0.592072" y="0.480225" width="24.8684" height="24.8684" fill="#D9D9D9"/>
</mask>
<g mask="url(#mask0_75_199)">
<path d="M13.0264 14.9868C13.5963 14.9868 14.0841 14.7839 14.49 14.3781C14.8958 13.9722 15.0987 13.4844 15.0987 12.9145C15.0987 12.3446 14.8958 11.8567 14.49 11.4508C14.0841 11.045 13.5963 10.8421 13.0264 10.8421C12.4564 10.8421 11.9686 11.045 11.5627 11.4508C11.1569 11.8567 10.954 12.3446 10.954 12.9145C10.954 13.4844 11.1569 13.9722 11.5627 14.3781C11.9686 14.7839 12.4564 14.9868 13.0264 14.9868ZM8.88161 19.1316H17.1711V18.5358C17.1711 18.1213 17.0588 17.7413 16.8343 17.3959C16.6098 17.0506 16.299 16.7915 15.9018 16.6188C15.4527 16.4288 14.9908 16.2821 14.5159 16.1784C14.0409 16.0748 13.5444 16.023 13.0264 16.023C12.5083 16.023 12.0118 16.0748 11.5368 16.1784C11.0619 16.2821 10.6 16.4288 10.1509 16.6188C9.75374 16.7915 9.44288 17.0506 9.21837 17.3959C8.99387 17.7413 8.88161 18.1213 8.88161 18.5358V19.1316ZM19.2435 23.2763H6.80925C6.23934 23.2763 5.75147 23.0734 5.34564 22.6675C4.9398 22.2617 4.73688 21.7738 4.73688 21.2039V4.62498C4.73688 4.05508 4.9398 3.56721 5.34564 3.16137C5.75147 2.75553 6.23934 2.55261 6.80925 2.55261H15.0987L21.3158 8.76972V21.2039C21.3158 21.7738 21.1129 22.2617 20.7071 22.6675C20.3012 23.0734 19.8134 23.2763 19.2435 23.2763ZM19.2435 21.2039V9.65047L14.218 4.62498H6.80925V21.2039H19.2435Z" fill="white"/>
</g>
</svg>
