<svg width="26" height="19" viewBox="0 0 26 19" fill="none" xmlns="http://www.w3.org/2000/svg">
<path d="M20.939 11.8726V2.82949C20.939 1.58607 19.9216 0.568726 18.6782 0.568726H2.85284C1.60942 0.568726 0.592072 1.58607 0.592072 2.82949V11.8726C0.592072 13.116 1.60942 14.1333 2.85284 14.1333H18.6782C19.9216 14.1333 20.939 13.116 20.939 11.8726ZM18.6782 11.8726H2.85284V2.82949H18.6782V11.8726ZM10.7655 3.95987C8.88908 3.95987 7.37437 5.47459 7.37437 7.35102C7.37437 9.22746 8.88908 10.7422 10.7655 10.7422C12.642 10.7422 14.1567 9.22746 14.1567 7.35102C14.1567 5.47459 12.642 3.95987 10.7655 3.95987ZM25.4605 3.95987V16.3941C25.4605 17.6375 24.4431 18.6549 23.1997 18.6549H3.98322C3.98322 17.5245 3.98322 17.6375 3.98322 16.3941H23.1997V3.95987C24.4431 3.95987 24.3301 3.95987 25.4605 3.95987Z" fill="white"/>
</svg>
