<svg width="22" height="22" viewBox="0 0 22 22" fill="none" xmlns="http://www.w3.org/2000/svg">
<path d="M8.33213 19.1327C8.02127 18.5628 7.74928 17.9713 7.51614 17.3582C7.28299 16.7451 7.08871 16.1105 6.93328 15.4542H3.87654C4.37736 16.3177 5.00339 17.0689 5.75462 17.7079C6.50586 18.3469 7.36502 18.8218 8.33213 19.1327ZM2.99578 13.3818H6.51881C6.467 13.0364 6.42814 12.6954 6.40224 12.3586C6.37633 12.0218 6.36338 11.6721 6.36338 11.3095C6.36338 10.9468 6.37633 10.5971 6.40224 10.2603C6.42814 9.92358 6.467 9.5825 6.51881 9.2371H2.99578C2.90943 9.5825 2.84467 9.92358 2.8015 10.2603C2.75832 10.5971 2.73674 10.9468 2.73674 11.3095C2.73674 11.6721 2.75832 12.0218 2.8015 12.3586C2.84467 12.6954 2.90943 13.0364 2.99578 13.3818ZM3.87654 7.16474H6.93328C7.08871 6.50849 7.28299 5.87382 7.51614 5.26075C7.74928 4.64767 8.02127 4.05618 8.33213 3.48628C7.36502 3.79714 6.50586 4.27206 5.75462 4.91104C5.00339 5.55002 4.37736 6.30125 3.87654 7.16474ZM9.05746 7.16474H12.995C12.7877 6.40487 12.52 5.68817 12.1919 5.01465C11.8638 4.34113 11.4752 3.69352 11.0262 3.07181C10.5772 3.69352 10.1886 4.34113 9.8605 5.01465C9.53238 5.68817 9.2647 6.40487 9.05746 7.16474ZM15.1191 7.16474H18.1759C17.6751 6.30125 17.049 5.55002 16.2978 4.91104C15.5466 4.27206 14.6874 3.79714 13.7203 3.48628C14.0311 4.05618 14.3031 4.64767 14.5363 5.26075C14.7694 5.87382 14.9637 6.50849 15.1191 7.16474ZM11.0262 21.6713C9.61009 21.6713 8.27169 21.3993 7.01099 20.8553C5.7503 20.3113 4.64936 19.5687 3.70816 18.6275C2.76696 17.6863 2.02436 16.5854 1.48036 15.3247C0.936366 14.064 0.664368 12.7256 0.664368 11.3095C0.664368 9.87608 0.936366 8.53336 1.48036 7.28131C2.02436 6.02925 2.76696 4.93262 3.70816 3.99142C4.64936 3.05022 5.7503 2.30762 7.01099 1.76363C8.27169 1.21963 9.61009 0.947632 11.0262 0.947632C12.4596 0.947632 13.8023 1.21963 15.0544 1.76363C16.3064 2.30762 17.4031 3.05022 18.3443 3.99142C19.2855 4.93262 20.0281 6.02925 20.5721 7.28131C21.1161 8.53336 21.3881 9.87608 21.3881 11.3095C21.3881 11.4822 21.3837 11.6549 21.3751 11.8276C21.3665 12.0003 21.3535 12.173 21.3362 12.3457H19.238C19.2725 12.173 19.2941 12.0046 19.3027 11.8405C19.3114 11.6765 19.3157 11.4994 19.3157 11.3095C19.3157 10.9468 19.2941 10.5971 19.2509 10.2603C19.2077 9.92358 19.143 9.5825 19.0566 9.2371H15.5336C15.5854 9.5825 15.6243 9.92358 15.6502 10.2603C15.6761 10.5971 15.689 10.9468 15.689 11.3095V11.8405C15.689 12.0046 15.6804 12.173 15.6631 12.3457H13.5908C13.608 12.173 13.6167 12.0046 13.6167 11.8405V11.3095C13.6167 10.9468 13.6037 10.5971 13.5778 10.2603C13.5519 9.92358 13.5131 9.5825 13.4612 9.2371H8.59118C8.53937 9.5825 8.50051 9.92358 8.47461 10.2603C8.4487 10.5971 8.43575 10.9468 8.43575 11.3095C8.43575 11.6721 8.4487 12.0218 8.47461 12.3586C8.50051 12.6954 8.53937 13.0364 8.59118 13.3818H12.0624V15.4542H9.05746C9.2647 16.2141 9.53238 16.9308 9.8605 17.6043C10.1886 18.2778 10.5772 18.9254 11.0262 19.5471C11.2162 19.2708 11.3975 18.9902 11.5702 18.7052C11.7429 18.4203 11.907 18.131 12.0624 17.8374V21.6195C11.8897 21.6368 11.7213 21.6497 11.5573 21.6584C11.3932 21.667 11.2162 21.6713 11.0262 21.6713ZM19.2639 21.0237L16.2071 17.967V20.2725H14.1348V14.418H19.9892V16.4904H17.6578L20.7145 19.5471L19.2639 21.0237Z" fill="white"/>
</svg>
