<svg width="26" height="26" viewBox="0 0 26 26" fill="none" xmlns="http://www.w3.org/2000/svg">
<mask id="mask0_75_184" style="mask-type:alpha" maskUnits="userSpaceOnUse" x="0" y="0" width="26" height="26">
<rect x="0.592072" y="0.934204" width="24.8684" height="24.8684" fill="#D9D9D9"/>
</mask>
<g mask="url(#mask0_75_184)">
<path d="M1.62836 21.6579V17.5132C1.62836 16.926 1.83128 16.4338 2.23712 16.0366C2.64295 15.6394 3.13082 15.4408 3.70073 15.4408H7.09423C7.43962 15.4408 7.76775 15.5272 8.0786 15.6999C8.38946 15.8726 8.63987 16.1057 8.82984 16.3993C9.33066 17.0728 9.94805 17.5995 10.682 17.9795C11.416 18.3594 12.1974 18.5494 13.0264 18.5494C13.8726 18.5494 14.6627 18.3594 15.3967 17.9795C16.1306 17.5995 16.7394 17.0728 17.2229 16.3993C17.4474 16.1057 17.7108 15.8726 18.013 15.6999C18.3152 15.5272 18.6304 15.4408 18.9585 15.4408H22.352C22.9392 15.4408 23.4314 15.6394 23.8286 16.0366C24.2258 16.4338 24.4244 16.926 24.4244 17.5132V21.6579H17.1711V19.3006C16.5667 19.7324 15.9147 20.0605 15.2153 20.285C14.5159 20.5095 13.7863 20.6217 13.0264 20.6217C12.2838 20.6217 11.5585 20.5052 10.8504 20.272C10.1423 20.0389 9.48609 19.7064 8.88165 19.2747V21.6579H1.62836ZM13.0264 17.5132C12.3701 17.5132 11.7484 17.3621 11.1613 17.0599C10.5741 16.7576 10.0819 16.3388 9.68469 15.8035C9.3911 15.3717 9.02412 15.0307 8.58374 14.7803C8.14336 14.5298 7.66413 14.4046 7.14604 14.4046C7.52597 13.7657 8.32901 13.2605 9.55517 12.8892C10.7813 12.5179 11.9384 12.3323 13.0264 12.3323C14.1144 12.3323 15.2714 12.5179 16.4976 12.8892C17.7238 13.2605 18.5268 13.7657 18.9067 14.4046C18.4059 14.4046 17.931 14.5298 17.482 14.7803C17.033 15.0307 16.6617 15.3717 16.3681 15.8035C15.9881 16.3561 15.5046 16.7792 14.9174 17.0728C14.3302 17.3664 13.6999 17.5132 13.0264 17.5132ZM4.73691 14.4046C3.87342 14.4046 3.13946 14.1024 2.53502 13.498C1.93058 12.8935 1.62836 12.1596 1.62836 11.2961C1.62836 10.4153 1.93058 9.67705 2.53502 9.08124C3.13946 8.48544 3.87342 8.18753 4.73691 8.18753C5.61767 8.18753 6.35595 8.48544 6.95175 9.08124C7.54756 9.67705 7.84546 10.4153 7.84546 11.2961C7.84546 12.1596 7.54756 12.8935 6.95175 13.498C6.35595 14.1024 5.61767 14.4046 4.73691 14.4046ZM21.3159 14.4046C20.4524 14.4046 19.7184 14.1024 19.114 13.498C18.5095 12.8935 18.2073 12.1596 18.2073 11.2961C18.2073 10.4153 18.5095 9.67705 19.114 9.08124C19.7184 8.48544 20.4524 8.18753 21.3159 8.18753C22.1966 8.18753 22.9349 8.48544 23.5307 9.08124C24.1265 9.67705 24.4244 10.4153 24.4244 11.2961C24.4244 12.1596 24.1265 12.8935 23.5307 13.498C22.9349 14.1024 22.1966 14.4046 21.3159 14.4046ZM13.0264 11.2961C12.1629 11.2961 11.4289 10.9939 10.8245 10.3894C10.2201 9.78498 9.91783 9.05102 9.91783 8.18753C9.91783 7.30678 10.2201 6.56849 10.8245 5.97269C11.4289 5.37688 12.1629 5.07898 13.0264 5.07898C13.9071 5.07898 14.6454 5.37688 15.2412 5.97269C15.837 6.56849 16.1349 7.30678 16.1349 8.18753C16.1349 9.05102 15.837 9.78498 15.2412 10.3894C14.6454 10.9939 13.9071 11.2961 13.0264 11.2961Z" fill="white"/>
</g>
</svg>
