<svg width="18" height="19" viewBox="0 0 18 19" fill="none" xmlns="http://www.w3.org/2000/svg">
<mask id="mask0_38_4043" style="mask-type:alpha" maskUnits="userSpaceOnUse" x="0" y="0" width="18" height="19">
<rect x="0.0405273" y="0.49733" width="17.9393" height="17.9393" fill="#D9D9D9"/>
</mask>
<g mask="url(#mask0_38_4043)">
<path d="M2.28254 15.4467C1.87143 15.4467 1.5195 15.3004 1.22674 15.0076C0.933978 14.7148 0.787598 14.3629 0.787598 13.9518V5.72959H2.28254V13.9518H14.9896V15.4467H2.28254ZM5.27243 12.4568C4.86132 12.4568 4.50939 12.3105 4.21663 12.0177C3.92387 11.7249 3.77749 11.373 3.77749 10.9619V4.98211C3.77749 4.571 3.92387 4.21907 4.21663 3.92631C4.50939 3.63355 4.86132 3.48717 5.27243 3.48717H15.737C16.1482 3.48717 16.5001 3.63355 16.7929 3.92631C17.0856 4.21907 17.232 4.571 17.232 4.98211V10.9619C17.232 11.373 17.0856 11.7249 16.7929 12.0177C16.5001 12.3105 16.1482 12.4568 15.737 12.4568H5.27243ZM6.76738 10.9619C6.76738 10.5508 6.621 10.1989 6.32824 9.90609C6.03548 9.61333 5.68354 9.46695 5.27243 9.46695V10.9619H6.76738ZM14.2421 10.9619H15.737V9.46695C15.3259 9.46695 14.974 9.61333 14.6812 9.90609C14.3885 10.1989 14.2421 10.5508 14.2421 10.9619ZM10.5047 10.2144C11.1276 10.2144 11.6571 9.99641 12.0931 9.56038C12.5291 9.12436 12.7472 8.5949 12.7472 7.972C12.7472 7.34911 12.5291 6.81965 12.0931 6.38362C11.6571 5.9476 11.1276 5.72959 10.5047 5.72959C9.88185 5.72959 9.35239 5.9476 8.91636 6.38362C8.48034 6.81965 8.26232 7.34911 8.26232 7.972C8.26232 8.5949 8.48034 9.12436 8.91636 9.56038C9.35239 9.99641 9.88185 10.2144 10.5047 10.2144ZM5.27243 6.47706C5.68354 6.47706 6.03548 6.33068 6.32824 6.03792C6.621 5.74516 6.76738 5.39322 6.76738 4.98211H5.27243V6.47706ZM15.737 6.47706V4.98211H14.2421C14.2421 5.39322 14.3885 5.74516 14.6812 6.03792C14.974 6.33068 15.3259 6.47706 15.737 6.47706Z" fill="white"/>
</g>
</svg>
