<svg width="84" height="62" viewBox="0 0 84 62" fill="none" xmlns="http://www.w3.org/2000/svg">
<path d="M83.3194 54.2554H0.76123V54.2967H83.3194V54.2554Z" fill="#EBEBEB"/>
<path d="M75.0468 56.9121H69.5781V56.9534H75.0468V56.9121Z" fill="#EBEBEB"/>
<path d="M55.451 57.3612H54.0161V57.4025H55.451V57.3612Z" fill="#EBEBEB"/>
<path d="M69.4137 55.3798H66.2451V55.4211H69.4137V55.3798Z" fill="#EBEBEB"/>
<path d="M16.5542 55.6572H9.42285V55.6985H16.5542V55.6572Z" fill="#EBEBEB"/>
<path d="M19.0711 55.6572H18.0259V55.6985H19.0711V55.6572Z" fill="#EBEBEB"/>
<path d="M37.9378 56.354H22.4697V56.3953H37.9378V56.354Z" fill="#EBEBEB"/>
<path d="M39.8938 46.8912H8.01148C7.76171 46.8908 7.52233 46.7912 7.34587 46.6145C7.16942 46.4377 7.07031 46.1981 7.07031 45.9484V1.13085C7.07249 0.882517 7.17255 0.645072 7.34877 0.470088C7.52499 0.295104 7.76314 0.196714 8.01148 0.196289H39.8938C40.1438 0.196289 40.3837 0.295621 40.5605 0.472433C40.7373 0.649245 40.8366 0.889053 40.8366 1.1391V45.9484C40.8366 46.1984 40.7373 46.4382 40.5605 46.6151C40.3837 46.7919 40.1438 46.8912 39.8938 46.8912ZM8.01148 0.229312C7.77266 0.22975 7.54378 0.324925 7.37506 0.493949C7.20635 0.662972 7.11159 0.892031 7.11159 1.13085V45.9484C7.11159 46.1872 7.20635 46.4163 7.37506 46.5853C7.54378 46.7543 7.77266 46.8495 8.01148 46.8499H39.8938C40.1328 46.8495 40.3618 46.7544 40.5308 46.5854C40.6998 46.4164 40.7949 46.1874 40.7953 45.9484V1.13085C40.7949 0.89188 40.6998 0.662824 40.5308 0.493848C40.3618 0.324872 40.1328 0.229749 39.8938 0.229312H8.01148Z" fill="#EBEBEB"/>
<path d="M75.6105 46.8912H43.7265C43.4766 46.8908 43.237 46.7913 43.0603 46.6146C42.8836 46.4379 42.7841 46.1983 42.7837 45.9484V1.13085C42.7863 0.882366 42.8867 0.644923 43.0632 0.469985C43.2397 0.295047 43.478 0.19671 43.7265 0.196289H75.6105C75.8585 0.197148 76.0963 0.29573 76.2721 0.470668C76.448 0.645605 76.5478 0.882802 76.55 1.13085V45.9484C76.55 46.1979 76.4511 46.4372 76.275 46.6139C76.0989 46.7906 75.86 46.8903 75.6105 46.8912ZM43.7265 0.229312C43.4875 0.229749 43.2585 0.324872 43.0895 0.493848C42.9205 0.662824 42.8254 0.89188 42.825 1.13085V45.9484C42.8254 46.1874 42.9205 46.4164 43.0895 46.5854C43.2585 46.7544 43.4875 46.8495 43.7265 46.8499H75.6105C75.8494 46.8495 76.0785 46.7544 76.2475 46.5854C76.4165 46.4164 76.5116 46.1874 76.512 45.9484V1.13085C76.5116 0.89188 76.4165 0.662824 76.2475 0.493848C76.0785 0.324872 75.8494 0.229749 75.6105 0.229312H43.7265Z" fill="#EBEBEB"/>
<path d="M64.6317 12.0021L66.1178 13.0902C57.1173 25.4145 45.8084 32.782 32.4902 34.9863C23.0785 36.545 15.8448 34.8443 14.7236 34.5553V37.9518C17.938 38.6321 21.2163 38.9643 24.5018 38.9425C27.3048 38.942 30.1032 38.7161 32.8699 38.2672C39.2571 37.2319 45.39 34.9946 50.9436 31.6741C57.6258 27.6915 63.6212 22.0973 68.7761 15.0452L70.2391 16.1201L70.2638 10.2172L64.6317 12.0021Z" fill="#E0E0E0"/>
<path d="M16.3654 39.2777H14.8843V54.1563H16.3654V39.2777Z" fill="#EBEBEB"/>
<path d="M19.9381 39.9381H18.457V54.1563H19.9381V39.9381Z" fill="#EBEBEB"/>
<path d="M23.5128 40.2684H22.0317V54.1563H23.5128V40.2684Z" fill="#EBEBEB"/>
<path d="M27.0861 40.2684H25.605V54.1563H27.0861V40.2684Z" fill="#EBEBEB"/>
<path d="M30.6608 40.1033H29.1797V54.1563H30.6608V40.1033Z" fill="#EBEBEB"/>
<path d="M34.234 39.6079H32.7529V54.1563H34.234V39.6079Z" fill="#EBEBEB"/>
<path d="M37.8073 38.7823H36.3262V54.1563H37.8073V38.7823Z" fill="#EBEBEB"/>
<path d="M41.3815 37.9568H39.9004V54.1563H41.3815V37.9568Z" fill="#EBEBEB"/>
<path d="M44.9547 37.2963H43.4736V54.1563H44.9547V37.2963Z" fill="#EBEBEB"/>
<path d="M48.5294 35.1382H47.0483V54.158H48.5294V35.1382Z" fill="#EBEBEB"/>
<path d="M52.1027 33.3236H50.6216V54.158H52.1027V33.3236Z" fill="#EBEBEB"/>
<path d="M55.6779 31.2563H54.1968V54.1563H55.6779V31.2563Z" fill="#EBEBEB"/>
<path d="M59.2506 28.5022H57.7695V54.1563H59.2506V28.5022Z" fill="#EBEBEB"/>
<path d="M62.8253 25.6275H61.3442V54.1563H62.8253V25.6275Z" fill="#EBEBEB"/>
<path d="M66.3981 21.7952H64.917V54.1563H66.3981V21.7952Z" fill="#EBEBEB"/>
<path d="M69.9733 17.6144H68.4922V54.1563H69.9733V17.6144Z" fill="#EBEBEB"/>
<path d="M42.0398 61.712C59.7209 61.712 74.0542 60.8752 74.0542 59.8429C74.0542 58.8106 59.7209 57.9738 42.0398 57.9738C24.3587 57.9738 10.0254 58.8106 10.0254 59.8429C10.0254 60.8752 24.3587 61.712 42.0398 61.712Z" fill="#F5F5F5"/>
<path d="M66.395 35.7607C63.2232 43.6389 58.7104 50.9081 53.0569 57.2456L42.8296 50.8969C48.4836 44.5588 52.9969 37.2891 56.1693 29.4103L66.395 35.7607Z" fill="#FF8001"/>
<path opacity="0.4" d="M66.3967 35.759C63.223 43.6376 58.7092 50.9072 53.0552 57.2456L48.6351 54.5014L42.8296 50.8986C48.4836 44.5604 52.9969 37.2908 56.1693 29.412C59.5773 31.5298 62.9865 33.6455 66.3967 35.759Z" fill="white"/>
<path opacity="0.2" d="M57.8521 31.2068C57.78 31.3999 57.665 31.5742 57.5159 31.7164C57.3667 31.8586 57.1872 31.9652 56.9908 32.028C56.7945 32.0908 56.5865 32.1082 56.3824 32.0789C56.1784 32.0496 55.9837 31.9745 55.8129 31.859C53.0142 38.2286 49.3256 44.1688 44.8574 49.5017C45.0366 49.6035 45.1904 49.7447 45.3072 49.9145C45.4239 50.0844 45.5006 50.2785 45.5315 50.4823C45.5623 50.6861 45.5465 50.8943 45.4852 51.0911C45.424 51.2879 45.3188 51.4682 45.1777 51.6185L51.5529 55.5813C51.8569 55.2442 52.2675 55.0217 52.716 54.9511C53.1644 54.8804 53.6235 54.9659 54.0164 55.1933C58.4846 49.8597 62.1732 43.9191 64.9719 37.5489C64.5941 37.2976 64.314 36.9241 64.1784 36.4911C64.0429 36.058 64.0601 35.5915 64.2272 35.1696V35.1564L57.8537 31.1936L57.8521 31.2068ZM58.1476 45.6958C57.1668 47.2726 55.0286 47.7151 53.4583 46.7409C51.8881 45.7668 51.4769 43.7391 52.4561 42.1623C53.4352 40.5854 55.443 40.0603 57.0149 41.0362C58.5868 42.012 59.1317 44.1172 58.1476 45.6958Z" fill="black"/>
<g opacity="0.2">
<path d="M57.0043 44.5647L57.4254 44.8256C57.3626 44.9296 57.2982 45.0337 57.2338 45.136L56.8144 44.8768C56.5971 45.2052 56.2841 45.4588 55.9178 45.6033L55.6454 45.1988C55.9492 45.0838 56.2139 44.8844 56.4082 44.6242L55.6537 44.1552C55.2904 44.5119 54.8677 44.8735 54.3443 44.5482C53.9596 44.3088 53.8044 43.825 54.1164 43.2009L53.6904 42.9367C53.7548 42.8326 53.8192 42.7303 53.882 42.6263L54.3014 42.8855C54.4794 42.6214 54.7199 42.4053 55.0015 42.2564L55.2871 42.6494C55.0622 42.7732 54.8649 42.9418 54.7075 43.1447L55.4687 43.6186C55.832 43.2603 56.2398 42.8805 56.7632 43.2058C57.148 43.437 57.3098 43.9307 57.0043 44.5647ZM55.1979 43.8729L54.5259 43.4568C54.4004 43.7507 54.4648 43.9521 54.6299 44.0496C54.7951 44.147 54.9965 44.0529 55.1979 43.8729ZM56.5024 43.7078C56.3174 43.5938 56.1292 43.7078 55.9261 43.8943L56.5866 44.3088C56.722 44.0066 56.6642 43.8085 56.5024 43.7078Z" fill="black"/>
</g>
<path opacity="0.2" d="M66.3963 35.7591C63.2226 43.6376 58.7088 50.9072 53.0549 57.2457L48.6347 54.5014L45.126 48.5754C45.126 48.5754 59.1196 42.7765 66.3963 35.7591Z" fill="black"/>
<path d="M73.9905 46.8252C67.4742 52.2744 60.0632 56.5536 52.0862 59.4731C50.0817 55.9979 48.076 52.5228 46.0693 49.0476C54.0461 46.1306 61.4571 41.8536 67.9737 36.4063C69.9804 39.8782 71.986 43.3511 73.9905 46.8252Z" fill="#FF8001"/>
<path opacity="0.4" d="M73.9905 46.8252C67.4742 52.2744 60.0632 56.5536 52.0862 59.4731C50.0817 55.9979 48.076 52.5228 46.0693 49.0476C54.0461 46.1306 61.4571 41.8536 67.9737 36.4063C69.9804 39.8782 71.986 43.3511 73.9905 46.8252Z" fill="white"/>
<path opacity="0.2" d="M68.6091 38.7774C68.4544 38.9135 68.2708 39.0128 68.0721 39.0677C67.8735 39.1226 67.6649 39.1317 67.4623 39.0944C67.2596 39.057 67.068 38.9742 66.902 38.852C66.736 38.7299 66.5999 38.5717 66.5038 38.3894C61.0262 42.6836 54.9664 46.1782 48.5062 48.7686C48.6159 48.9429 48.6846 49.1398 48.7072 49.3445C48.7299 49.5492 48.7058 49.7564 48.6368 49.9504C48.5678 50.1445 48.4558 50.3204 48.309 50.4649C48.1623 50.6093 47.9847 50.7187 47.7896 50.7846L51.5393 57.282C51.967 57.1289 52.4343 57.1273 52.8629 57.2776C53.2915 57.4279 53.6555 57.7209 53.8939 58.1076C60.3542 55.5172 66.4139 52.0226 71.8916 47.7283C71.6756 47.3277 71.6042 46.8649 71.6893 46.4177C71.7744 45.9706 72.0108 45.5664 72.3589 45.2731L72.3704 45.2632L68.6239 38.7691L68.6091 38.7774ZM62.0275 51.6895C60.4176 52.6158 58.3256 51.9966 57.4043 50.395C56.4829 48.7933 57.074 46.8136 58.6839 45.8873C60.2938 44.961 62.3165 45.4448 63.2329 47.0431C64.1493 48.6414 63.6391 50.7648 62.0275 51.6895Z" fill="black"/>
<g opacity="0.2">
<path d="M61.5541 50.1522C61.6383 50.2942 61.7192 50.4379 61.8034 50.5815L61.4864 50.7648L61.2403 50.3372C60.8935 50.5243 60.4975 50.6004 60.106 50.5551C60.0895 50.39 60.0746 50.2249 60.0581 50.0697C60.38 50.1123 60.7073 50.0613 61.0009 49.9227L60.5584 49.1549C60.0631 49.2969 59.5264 49.4158 59.2177 48.8825C58.9914 48.4895 59.0839 47.9892 59.6536 47.5863C59.5694 47.441 59.4884 47.2974 59.4026 47.1521L59.718 46.9688L59.964 47.3964C60.2458 47.2475 60.56 47.1703 60.8787 47.1719C60.9018 47.337 60.9233 47.4922 60.9464 47.6524C60.6906 47.656 60.4382 47.7122 60.2051 47.8175C60.3537 48.0773 60.5028 48.336 60.6525 48.5935C61.1396 48.4499 61.6795 48.3079 61.9883 48.8412C62.2145 49.2259 62.1237 49.7312 61.5541 50.1522ZM60.2893 48.6893L59.8946 48.0057C59.6453 48.2055 59.6073 48.4086 59.7064 48.577C59.8055 48.7455 60.0284 48.7521 60.2893 48.6893ZM61.5177 49.1599C61.4088 48.9717 61.1875 48.9832 60.92 49.0526C61.0521 49.2788 61.1825 49.5066 61.313 49.7328C61.5706 49.5265 61.6135 49.325 61.5243 49.1599H61.5177Z" fill="black"/>
</g>
<path d="M63.8407 59.4664H70.2852V58.2016H63.8407V59.4664Z" fill="#FF8001"/>
<path opacity="0.2" d="M63.8403 59.4664H65.2603V58.2016H63.8403V59.4664Z" fill="black"/>
<path opacity="0.2" d="M65.9421 58.2H65.4253V59.4648H65.9421V58.2Z" fill="black"/>
<path opacity="0.2" d="M66.6048 58.2H66.2515V59.4648H66.6048V58.2Z" fill="black"/>
<path opacity="0.2" d="M67.2533 58.2H67.0767V59.4648H67.2533V58.2Z" fill="black"/>
<path opacity="0.2" d="M68.3221 58.2H68.2329V59.4648H68.3221V58.2Z" fill="black"/>
<path d="M64.1444 58.2083H70.5889V56.9435H64.1444V58.2083Z" fill="#FF8001"/>
<path opacity="0.2" d="M64.144 58.2083H65.564V56.9435H64.144V58.2083Z" fill="black"/>
<path opacity="0.2" d="M66.2458 56.9418H65.729V58.2066H66.2458V56.9418Z" fill="black"/>
<path opacity="0.2" d="M66.9085 56.9418H66.5552V58.2066H66.9085V56.9418Z" fill="black"/>
<path opacity="0.2" d="M67.5575 56.9418H67.3809V58.2066H67.5575V56.9418Z" fill="black"/>
<path opacity="0.2" d="M68.6248 56.9418H68.5356V58.2066H68.6248V56.9418Z" fill="black"/>
<path d="M63.5697 56.9501H70.0142V55.6853H63.5697V56.9501Z" fill="#FF8001"/>
<path opacity="0.2" d="M63.5697 56.9501H64.9897V55.6853H63.5697V56.9501Z" fill="black"/>
<path opacity="0.2" d="M65.6701 55.6836H65.1533V56.9484H65.6701V55.6836Z" fill="black"/>
<path opacity="0.2" d="M66.3324 55.6836H65.979V56.9484H66.3324V55.6836Z" fill="black"/>
<path opacity="0.2" d="M66.9814 55.6836H66.8047V56.9484H66.9814V55.6836Z" fill="black"/>
<path opacity="0.2" d="M68.0496 55.6836H67.9604V56.9484H68.0496V55.6836Z" fill="black"/>
<path d="M63.8407 55.6919H70.2852V54.4271H63.8407V55.6919Z" fill="#FF8001"/>
<path opacity="0.2" d="M63.8403 55.6919H65.2603V54.4271H63.8403V55.6919Z" fill="black"/>
<path opacity="0.2" d="M65.9421 54.4254H65.4253V55.6902H65.9421V54.4254Z" fill="black"/>
<path opacity="0.2" d="M66.6048 54.4254H66.2515V55.6902H66.6048V54.4254Z" fill="black"/>
<path opacity="0.2" d="M67.2533 54.4254H67.0767V55.6902H67.2533V54.4254Z" fill="black"/>
<path opacity="0.2" d="M68.3221 54.4254H68.2329V55.6902H68.3221V54.4254Z" fill="black"/>
<path d="M64.0038 54.4337H70.4482V53.1689H64.0038V54.4337Z" fill="#FF8001"/>
<path opacity="0.2" d="M64.0043 54.4337H65.4243V53.1689H64.0043V54.4337Z" fill="black"/>
<path opacity="0.2" d="M66.1076 53.1672H65.5908V54.432H66.1076V53.1672Z" fill="black"/>
<path opacity="0.2" d="M66.7694 53.1672H66.416V54.432H66.7694V53.1672Z" fill="black"/>
<path opacity="0.2" d="M67.4184 53.1672H67.2417V54.432H67.4184V53.1672Z" fill="black"/>
<path opacity="0.2" d="M68.4871 53.1672H68.3979V54.432H68.4871V53.1672Z" fill="black"/>
<path d="M63.8392 53.1755H70.2837V51.9107H63.8392V53.1755Z" fill="#FF8001"/>
<path opacity="0.2" d="M63.8393 53.1755H65.2593V51.9107H63.8393V53.1755Z" fill="black"/>
<path opacity="0.2" d="M65.9421 51.9091H65.4253V53.1739H65.9421V51.9091Z" fill="black"/>
<path opacity="0.2" d="M66.6048 51.9091H66.2515V53.1739H66.6048V51.9091Z" fill="black"/>
<path opacity="0.2" d="M67.2533 51.9091H67.0767V53.1739H67.2533V51.9091Z" fill="black"/>
<path opacity="0.2" d="M68.3221 51.9091H68.2329V53.1739H68.3221V51.9091Z" fill="black"/>
<path d="M63.8392 51.9173H70.2837V50.6525H63.8392V51.9173Z" fill="#FF8001"/>
<path opacity="0.2" d="M63.8393 51.9173H65.2593V50.6525H63.8393V51.9173Z" fill="black"/>
<path opacity="0.2" d="M65.9421 50.6509H65.4253V51.9157H65.9421V50.6509Z" fill="black"/>
<path opacity="0.2" d="M66.6048 50.6509H66.2515V51.9157H66.6048V50.6509Z" fill="black"/>
<path opacity="0.2" d="M67.2533 50.6509H67.0767V51.9157H67.2533V50.6509Z" fill="black"/>
<path opacity="0.2" d="M68.3221 50.6509H68.2329V51.9157H68.3221V50.6509Z" fill="black"/>
<path d="M64.1693 50.6591H70.6138V49.3943H64.1693V50.6591Z" fill="#FF8001"/>
<path opacity="0.2" d="M64.1689 50.6591H65.5889V49.3943H64.1689V50.6591Z" fill="black"/>
<path opacity="0.2" d="M66.2732 49.3927H65.7563V50.6575H66.2732V49.3927Z" fill="black"/>
<path opacity="0.2" d="M66.9344 49.3927H66.5811V50.6575H66.9344V49.3927Z" fill="black"/>
<path opacity="0.2" d="M67.5834 49.3927H67.4067V50.6575H67.5834V49.3927Z" fill="black"/>
<path opacity="0.2" d="M68.6522 49.3927H68.563V50.6575H68.6522V49.3927Z" fill="black"/>
<path d="M63.8392 49.401H70.2837V48.1362H63.8392V49.401Z" fill="#FF8001"/>
<path opacity="0.2" d="M63.8393 49.401H65.2593V48.1362H63.8393V49.401Z" fill="black"/>
<path opacity="0.2" d="M65.9421 48.1345H65.4253V49.3993H65.9421V48.1345Z" fill="black"/>
<path opacity="0.2" d="M66.6048 48.1345H66.2515V49.3993H66.6048V48.1345Z" fill="black"/>
<path opacity="0.2" d="M67.2533 48.1345H67.0767V49.3993H67.2533V48.1345Z" fill="black"/>
<path opacity="0.2" d="M68.3221 48.1345H68.2329V49.3993H68.3221V48.1345Z" fill="black"/>
<path d="M63.5081 48.1428H69.9526V46.878H63.5081V48.1428Z" fill="#FF8001"/>
<path opacity="0.2" d="M63.5082 48.1428H64.9282V46.878H63.5082V48.1428Z" fill="black"/>
<path opacity="0.2" d="M65.6125 46.8763H65.0957V48.1411H65.6125V46.8763Z" fill="black"/>
<path opacity="0.2" d="M66.2742 46.8763H65.9209V48.1411H66.2742V46.8763Z" fill="black"/>
<path opacity="0.2" d="M66.9237 46.8763H66.7471V48.1411H66.9237V46.8763Z" fill="black"/>
<path opacity="0.2" d="M67.9915 46.8763H67.9023V48.1411H67.9915V46.8763Z" fill="black"/>
<path d="M58.1566 59.4664H64.6011V58.2016H58.1566V59.4664Z" fill="#FF8001"/>
<path opacity="0.2" d="M58.1571 59.4664H59.5771V58.2016H58.1571V59.4664Z" fill="black"/>
<path opacity="0.2" d="M60.2575 58.2H59.7407V59.4648H60.2575V58.2Z" fill="black"/>
<path opacity="0.2" d="M60.9193 58.2H60.5659V59.4648H60.9193V58.2Z" fill="black"/>
<path opacity="0.2" d="M61.5688 58.2H61.3921V59.4648H61.5688V58.2Z" fill="black"/>
<path opacity="0.2" d="M62.637 58.2H62.5479V59.4648H62.637V58.2Z" fill="black"/>
<path d="M58.4876 58.2083H64.9321V56.9435H58.4876V58.2083Z" fill="#FF8001"/>
<path opacity="0.2" d="M58.4877 58.2083H59.9077V56.9435H58.4877V58.2083Z" fill="black"/>
<path opacity="0.2" d="M60.5876 56.9418H60.0708V58.2066H60.5876V56.9418Z" fill="black"/>
<path opacity="0.2" d="M61.2498 56.9418H60.8965V58.2066H61.2498V56.9418Z" fill="black"/>
<path opacity="0.2" d="M61.8988 56.9418H61.7222V58.2066H61.8988V56.9418Z" fill="black"/>
<path opacity="0.2" d="M62.9671 56.9418H62.8779V58.2066H62.9671V56.9418Z" fill="black"/>
<path d="M58.1566 56.9501H64.6011V55.6853H58.1566V56.9501Z" fill="#FF8001"/>
<path opacity="0.2" d="M58.1571 56.9501H59.5771V55.6853H58.1571V56.9501Z" fill="black"/>
<path opacity="0.2" d="M60.2575 55.6836H59.7407V56.9484H60.2575V55.6836Z" fill="black"/>
<path opacity="0.2" d="M60.9193 55.6836H60.5659V56.9484H60.9193V55.6836Z" fill="black"/>
<path opacity="0.2" d="M61.5688 55.6836H61.3921V56.9484H61.5688V55.6836Z" fill="black"/>
<path opacity="0.2" d="M62.637 55.6836H62.5479V56.9484H62.637V55.6836Z" fill="black"/>
<path d="M58.3221 55.6919H64.7666V54.4271H58.3221V55.6919Z" fill="#FF8001"/>
<path opacity="0.2" d="M58.3222 55.6919H59.7422V54.4271H58.3222V55.6919Z" fill="black"/>
<path opacity="0.2" d="M60.4231 54.4254H59.9062V55.6902H60.4231V54.4254Z" fill="black"/>
<path opacity="0.2" d="M61.0853 54.4254H60.7319V55.6902H61.0853V54.4254Z" fill="black"/>
<path opacity="0.2" d="M61.7338 54.4254H61.5571V55.6902H61.7338V54.4254Z" fill="black"/>
<path opacity="0.2" d="M62.802 54.4254H62.7129V55.6902H62.802V54.4254Z" fill="black"/>
<path d="M58.1566 54.4337H64.6011V53.1689H58.1566V54.4337Z" fill="#FF8001"/>
<path opacity="0.2" d="M58.1571 54.4337H59.5771V53.1689H58.1571V54.4337Z" fill="black"/>
<path opacity="0.2" d="M60.259 53.1672H59.7422V54.432H60.259V53.1672Z" fill="black"/>
<path opacity="0.2" d="M60.9217 53.1672H60.5684V54.432H60.9217V53.1672Z" fill="black"/>
<path opacity="0.2" d="M61.5702 53.1672H61.3936V54.432H61.5702V53.1672Z" fill="black"/>
<path opacity="0.2" d="M62.638 53.1672H62.5488V54.432H62.638V53.1672Z" fill="black"/>
<path d="M58.6532 53.1755H65.0977V51.9107H58.6532V53.1755Z" fill="#FF8001"/>
<path opacity="0.2" d="M58.6528 53.1755H60.0728V51.9107H58.6528V53.1755Z" fill="black"/>
<path opacity="0.2" d="M60.7541 51.9091H60.2373V53.1739H60.7541V51.9091Z" fill="black"/>
<path opacity="0.2" d="M61.4168 51.9091H61.0635V53.1739H61.4168V51.9091Z" fill="black"/>
<path opacity="0.2" d="M62.0653 51.9091H61.8887V53.1739H62.0653V51.9091Z" fill="black"/>
<path opacity="0.2" d="M63.1336 51.9091H63.0444V53.1739H63.1336V51.9091Z" fill="black"/>
<path d="M53.8975 7.21375H29.8417C28.8933 7.21375 28.1245 7.98257 28.1245 8.93096V57.7493C28.1245 58.6976 28.8933 59.4665 29.8417 59.4665H53.8975C54.8459 59.4665 55.6147 58.6976 55.6147 57.7493V8.93096C55.6147 7.98257 54.8459 7.21375 53.8975 7.21375Z" fill="#263238"/>
<path d="M54.6968 8.86985V57.7212C54.6968 57.8104 54.679 57.8987 54.6445 57.981C54.61 58.0633 54.5595 58.1379 54.4959 58.2005C54.4322 58.2631 54.3568 58.3123 54.2739 58.3454C54.191 58.3785 54.1024 58.3947 54.0132 58.3932H29.6717C29.5907 58.3943 29.5103 58.3791 29.4353 58.3484C29.3603 58.3176 29.2923 58.272 29.2354 58.2144C29.1785 58.1567 29.1338 58.0881 29.1041 58.0127C29.0744 57.9373 29.0602 57.8567 29.0625 57.7757V8.81371C29.0596 8.74236 29.0708 8.67114 29.0955 8.60413C29.1201 8.53711 29.1578 8.47563 29.2063 8.42318C29.2547 8.37073 29.313 8.32835 29.3779 8.29846C29.4428 8.26858 29.5129 8.25177 29.5842 8.24901H35.6704C35.7555 8.25057 35.8382 8.27748 35.9079 8.32631C35.9776 8.37514 36.0312 8.44366 36.0617 8.5231L36.3144 9.14394C36.3454 9.22276 36.3992 9.29058 36.4689 9.33879C36.5386 9.387 36.621 9.41344 36.7057 9.41473H47.0667C47.1512 9.41414 47.2335 9.38837 47.3032 9.34072C47.3729 9.29307 47.4269 9.2257 47.4581 9.14724L47.7107 8.52475C47.741 8.445 47.7944 8.37613 47.8642 8.32699C47.9339 8.27786 48.0167 8.2507 48.102 8.24901H54.0941C54.2561 8.25205 54.4104 8.31901 54.5233 8.4353C54.6362 8.55159 54.6985 8.70778 54.6968 8.86985Z" fill="#FF8001"/>
<path opacity="0.7" d="M54.6965 10.2832H29.0605V56.3771H54.6965V10.2832Z" fill="white"/>
<path opacity="0.6" d="M41.299 8.66181C41.4932 8.66181 41.6507 8.50435 41.6507 8.31012C41.6507 8.11588 41.4932 7.95842 41.299 7.95842C41.1047 7.95842 40.9473 8.11588 40.9473 8.31012C40.9473 8.50435 41.1047 8.66181 41.299 8.66181Z" fill="white"/>
<path opacity="0.6" d="M42.3709 8.31011C42.3709 8.35492 42.3576 8.39872 42.3326 8.43595C42.3077 8.47319 42.2723 8.50218 42.2308 8.51925C42.1894 8.53632 42.1438 8.54071 42.0999 8.53184C42.056 8.52298 42.0157 8.50127 41.9841 8.46947C41.9526 8.43767 41.9311 8.39721 41.9226 8.35322C41.9141 8.30923 41.9188 8.2637 41.9362 8.22239C41.9535 8.18109 41.9828 8.14587 42.0202 8.12122C42.0576 8.09656 42.1015 8.08357 42.1463 8.0839C42.1759 8.0839 42.2053 8.08976 42.2326 8.10115C42.26 8.11254 42.2848 8.12923 42.3057 8.15025C42.3266 8.17128 42.3431 8.19623 42.3543 8.22367C42.3654 8.2511 42.3711 8.28048 42.3709 8.31011Z" fill="white"/>
<path opacity="0.6" d="M31.9515 9.60957H32.2686V9.18687H31.9515V9.60957Z" fill="white"/>
<path opacity="0.6" d="M31.4364 9.60957H31.7534V9.04653H31.4364V9.60957Z" fill="white"/>
<path opacity="0.6" d="M30.9198 9.60793H31.2368V8.90453H30.9198V9.60793Z" fill="white"/>
<path opacity="0.6" d="M30.4047 9.60957H30.7217V8.76418H30.4047V9.60957Z" fill="white"/>
<path opacity="0.6" d="M51.863 9.03331H51.6748V9.45601H51.863V9.03331Z" fill="white"/>
<path opacity="0.6" d="M51.9904 9.60793H53.4863V8.87811H51.9904V9.60793Z" fill="white"/>
<path d="M54.7098 10.2882H29.0293V14.4491H54.7098V10.2882Z" fill="#263238"/>
<g opacity="0.7">
<path d="M35.5051 11.766V12.1887H36.1755V12.405H35.5051V12.9367H35.2476V11.5497H36.2614V11.766H35.5051Z" fill="white"/>
<path d="M36.4268 11.5563C36.4271 11.5354 36.4318 11.5149 36.4404 11.496C36.4491 11.477 36.4615 11.46 36.477 11.4461C36.4925 11.4322 36.5107 11.4215 36.5305 11.4149C36.5502 11.4083 36.5711 11.4059 36.5919 11.4077C36.6122 11.4051 36.6329 11.4069 36.6525 11.4128C36.6722 11.4187 36.6904 11.4287 36.7059 11.4421C36.7215 11.4555 36.734 11.4719 36.7428 11.4905C36.7516 11.509 36.7565 11.5292 36.757 11.5497C36.747 11.584 36.7261 11.6141 36.6975 11.6355C36.669 11.657 36.6342 11.6686 36.5985 11.6686C36.5628 11.6686 36.528 11.657 36.4994 11.6355C36.4708 11.6141 36.45 11.584 36.44 11.5497L36.4268 11.5563ZM36.4598 11.8865H36.7075V12.9449H36.4598V11.8865Z" fill="white"/>
<path d="M38.078 12.3307V12.9367H37.8303V12.3621C37.8303 12.1738 37.7379 12.083 37.5794 12.083C37.5379 12.0804 37.4963 12.0871 37.4577 12.1025C37.419 12.118 37.3843 12.1418 37.356 12.1723C37.3278 12.2028 37.3066 12.2392 37.2941 12.2789C37.2816 12.3186 37.2781 12.3605 37.2838 12.4017V12.9367H37.0361V11.8783H37.2722V12.0153C37.318 11.9652 37.3743 11.9258 37.4371 11.9001C37.5 11.8744 37.5677 11.863 37.6355 11.8667C37.6967 11.8621 37.7581 11.8711 37.8154 11.8931C37.8726 11.9151 37.9243 11.9496 37.9666 11.994C38.0089 12.0383 38.0409 12.0916 38.0602 12.1498C38.0794 12.208 38.0855 12.2698 38.078 12.3307Z" fill="white"/>
<path d="M39.2817 12.3175V12.9367H39.0489V12.8079C39.0101 12.8572 38.9595 12.896 38.9018 12.9208C38.8441 12.9456 38.7812 12.9556 38.7187 12.9499C38.4776 12.9499 38.3257 12.8178 38.3257 12.6329C38.3257 12.4479 38.4429 12.3191 38.7649 12.3191H39.0373V12.3026C39.0373 12.159 38.9515 12.0731 38.7748 12.0731C38.6587 12.0717 38.5455 12.1088 38.4528 12.1788L38.3571 11.9972C38.4886 11.9073 38.6453 11.8617 38.8045 11.8667C39.105 11.8667 39.2817 12.012 39.2817 12.3175ZM39.034 12.6064V12.4826H38.7798C38.6146 12.4826 38.5651 12.547 38.5651 12.6229C38.5651 12.6989 38.6411 12.7699 38.7665 12.7699C38.8227 12.7743 38.8787 12.7608 38.9267 12.7315C38.9748 12.7021 39.0123 12.6584 39.034 12.6064Z" fill="white"/>
<path d="M40.6404 12.3307V12.9367H40.3894V12.3621C40.3894 12.1738 40.297 12.083 40.1384 12.083C40.0969 12.0804 40.0554 12.0871 40.0167 12.1025C39.9781 12.118 39.9434 12.1418 39.9151 12.1723C39.8868 12.2028 39.8657 12.2392 39.8532 12.2789C39.8407 12.3185 39.8372 12.3605 39.8429 12.4017V12.9367H39.5952V11.8783H39.8313V12.0153C39.8773 11.965 39.9339 11.9256 39.997 11.8999C40.0601 11.8742 40.1282 11.8628 40.1962 11.8667C40.2575 11.8618 40.3191 11.8707 40.3766 11.8925C40.4341 11.9144 40.4859 11.9488 40.5285 11.9933C40.571 12.0377 40.6031 12.091 40.6225 12.1494C40.6418 12.2077 40.6479 12.2697 40.6404 12.3307Z" fill="white"/>
<path d="M40.8848 12.4149C40.8837 12.3409 40.898 12.2675 40.9267 12.1994C40.9555 12.1312 40.998 12.0697 41.0517 12.0188C41.1054 11.9679 41.169 11.9287 41.2387 11.9037C41.3083 11.8786 41.3823 11.8683 41.4561 11.8733C41.5472 11.8668 41.6382 11.8865 41.7184 11.9301C41.7986 11.9737 41.8646 12.0394 41.9085 12.1193L41.7187 12.23C41.6914 12.1844 41.6526 12.1469 41.6063 12.1211C41.5599 12.0953 41.5075 12.0822 41.4545 12.083C41.3669 12.083 41.2829 12.1178 41.221 12.1797C41.159 12.2417 41.1242 12.3257 41.1242 12.4133C41.1242 12.5008 41.159 12.5848 41.221 12.6468C41.2829 12.7087 41.3669 12.7435 41.4545 12.7435C41.5075 12.7444 41.5599 12.7312 41.6063 12.7054C41.6526 12.6796 41.6914 12.6421 41.7187 12.5965L41.9085 12.7072C41.8643 12.787 41.7983 12.8527 41.7182 12.8966C41.6381 12.9404 41.5473 12.9606 41.4561 12.9548C41.3825 12.9599 41.3085 12.9496 41.239 12.9246C41.1696 12.8997 41.106 12.8606 41.0523 12.8099C40.9986 12.7592 40.9561 12.6979 40.9272 12.6299C40.8984 12.5619 40.884 12.4887 40.8848 12.4149Z" fill="white"/>
<path d="M43.092 12.4876H42.2664C42.2827 12.5645 42.3267 12.6327 42.39 12.6793C42.4534 12.7259 42.5316 12.7476 42.6099 12.7402C42.6631 12.7421 42.716 12.7329 42.7655 12.7133C42.8149 12.6937 42.8598 12.6641 42.8972 12.6262L43.0293 12.7782C42.9491 12.8576 42.848 12.9126 42.7377 12.9367C42.6274 12.9607 42.5126 12.9529 42.4066 12.9141C42.3006 12.8753 42.2078 12.8072 42.1391 12.7176C42.0705 12.628 42.0287 12.5207 42.0188 12.4083C42.0167 12.3362 42.0294 12.2644 42.0562 12.1974C42.083 12.1305 42.1233 12.0697 42.1745 12.0189C42.2258 11.9681 42.2869 11.9284 42.3541 11.9022C42.4213 11.8761 42.4932 11.864 42.5653 11.8667C42.6373 11.8641 42.709 11.8765 42.7759 11.9032C42.8427 11.9298 42.9033 11.9702 42.9537 12.0217C43.004 12.0731 43.0431 12.1345 43.0684 12.202C43.0936 12.2694 43.1045 12.3414 43.1003 12.4133C43.0953 12.4331 43.0937 12.4628 43.092 12.4876ZM42.2664 12.3224H42.8658C42.8583 12.2495 42.8232 12.1821 42.7676 12.1342C42.712 12.0863 42.6402 12.0615 42.567 12.0649C42.4926 12.0606 42.4194 12.0848 42.3623 12.1327C42.3052 12.1806 42.2686 12.2484 42.2598 12.3224H42.2664Z" fill="white"/>
<path d="M44.8027 12.6163H44.1109L43.9738 12.9367H43.708L44.3321 11.5497H44.5864L45.2122 12.9367H44.9414L44.8027 12.6163ZM44.7185 12.4133L44.4576 11.8073L44.1968 12.4149L44.7185 12.4133Z" fill="white"/>
<path d="M46.487 12.4149C46.4908 12.4866 46.4795 12.5583 46.4539 12.6253C46.4284 12.6924 46.3891 12.7534 46.3385 12.8044C46.288 12.8554 46.2274 12.8953 46.1605 12.9215C46.0937 12.9476 46.0221 12.9596 45.9504 12.9565C45.8871 12.959 45.8239 12.9475 45.7654 12.923C45.707 12.8985 45.6546 12.8614 45.6119 12.8145V13.328H45.3643V11.8849H45.6004V12.0236C45.6435 11.9737 45.6975 11.9342 45.7581 11.9082C45.8188 11.8822 45.8845 11.8702 45.9504 11.8733C46.0221 11.8702 46.0937 11.8822 46.1605 11.9084C46.2274 11.9346 46.288 11.9744 46.3385 12.0254C46.3891 12.0764 46.4284 12.1374 46.4539 12.2045C46.4795 12.2715 46.4908 12.3432 46.487 12.4149ZM46.2361 12.4149C46.2328 12.3536 46.2117 12.2946 46.1752 12.2452C46.1388 12.1958 46.0886 12.1581 46.031 12.137C45.9734 12.1158 45.9108 12.112 45.851 12.126C45.7913 12.1401 45.7369 12.1713 45.6948 12.2159C45.6526 12.2606 45.6245 12.3166 45.6138 12.3771C45.6032 12.4375 45.6105 12.4998 45.6349 12.5561C45.6593 12.6125 45.6997 12.6604 45.7511 12.694C45.8025 12.7276 45.8626 12.7454 45.924 12.7451C45.9668 12.746 46.0092 12.7378 46.0487 12.7213C46.0881 12.7047 46.1237 12.6801 46.153 12.649C46.1824 12.6179 46.205 12.581 46.2193 12.5407C46.2336 12.5004 46.2393 12.4576 46.2361 12.4149Z" fill="white"/>
<path d="M47.8474 12.4149C47.8512 12.4866 47.8399 12.5583 47.8143 12.6253C47.7887 12.6924 47.7494 12.7534 47.6989 12.8044C47.6484 12.8554 47.5877 12.8953 47.5209 12.9215C47.4541 12.9476 47.3825 12.9596 47.3108 12.9565C47.2471 12.9591 47.1837 12.9477 47.125 12.9232C47.0662 12.8987 47.0135 12.8616 46.9706 12.8145V13.328H46.7246V11.8849H46.9591V12.0236C47.0026 11.9736 47.0568 11.9342 47.1177 11.9082C47.1786 11.8821 47.2446 11.8702 47.3108 11.8733C47.3825 11.8702 47.4541 11.8822 47.5209 11.9084C47.5877 11.9346 47.6484 11.9744 47.6989 12.0254C47.7494 12.0764 47.7887 12.1374 47.8143 12.2045C47.8399 12.2715 47.8512 12.3432 47.8474 12.4149ZM47.5948 12.4149C47.5915 12.3536 47.5704 12.2946 47.5339 12.2452C47.4975 12.1958 47.4473 12.1581 47.3897 12.137C47.3321 12.1158 47.2695 12.112 47.2097 12.126C47.15 12.1401 47.0956 12.1713 47.0535 12.2159C47.0113 12.2606 46.9832 12.3166 46.9725 12.3771C46.9619 12.4375 46.9692 12.4998 46.9936 12.5561C47.018 12.6125 47.0584 12.6604 47.1098 12.694C47.1612 12.7276 47.2213 12.7454 47.2827 12.7451C47.3255 12.746 47.3679 12.7378 47.4074 12.7213C47.4468 12.7047 47.4824 12.6801 47.5117 12.649C47.5411 12.6179 47.5637 12.581 47.578 12.5407C47.5923 12.5004 47.598 12.4576 47.5948 12.4149Z" fill="white"/>
</g>
<g opacity="0.7">
<path d="M30.7716 13.1414C30.7283 13.1412 30.6868 13.124 30.656 13.0935L30.0352 12.4743C30.0197 12.459 30.0074 12.4407 29.999 12.4206C29.9906 12.4005 29.9863 12.3789 29.9863 12.3571C29.9863 12.3353 29.9906 12.3137 29.999 12.2936C30.0074 12.2735 30.0197 12.2552 30.0352 12.2399L30.656 11.6207C30.6876 11.5936 30.7282 11.5795 30.7698 11.5811C30.8113 11.5827 30.8508 11.5999 30.8802 11.6293C30.9096 11.6587 30.9268 11.6982 30.9284 11.7397C30.93 11.7813 30.9159 11.8219 30.8888 11.8535L30.3852 12.3571L30.8888 12.8524C30.9196 12.8834 30.9368 12.9252 30.9368 12.9689C30.9368 13.0125 30.9196 13.0543 30.8888 13.0853C30.8741 13.1021 30.8561 13.1157 30.836 13.1254C30.8158 13.135 30.7939 13.1405 30.7716 13.1414Z" fill="white"/>
</g>
<g opacity="0.7">
<path d="M53.7544 11.7544C53.7544 11.7917 53.7434 11.828 53.7227 11.859C53.702 11.89 53.6726 11.9141 53.6382 11.9283C53.6038 11.9426 53.566 11.9463 53.5294 11.939C53.4929 11.9318 53.4594 11.9139 53.4331 11.8875C53.4067 11.8612 53.3888 11.8277 53.3815 11.7911C53.3743 11.7546 53.378 11.7168 53.3923 11.6824C53.4065 11.648 53.4306 11.6186 53.4616 11.5979C53.4925 11.5772 53.5289 11.5662 53.5662 11.5662C53.6161 11.5662 53.664 11.586 53.6993 11.6213C53.7346 11.6566 53.7544 11.7045 53.7544 11.7544Z" fill="white"/>
<path d="M53.7544 12.3571C53.7544 12.3943 53.7434 12.4307 53.7227 12.4617C53.702 12.4926 53.6726 12.5168 53.6382 12.531C53.6038 12.5453 53.566 12.549 53.5294 12.5417C53.4929 12.5345 53.4594 12.5165 53.4331 12.4902C53.4067 12.4639 53.3888 12.4303 53.3815 12.3938C53.3743 12.3573 53.378 12.3195 53.3923 12.2851C53.4065 12.2507 53.4306 12.2213 53.4616 12.2006C53.4925 12.1799 53.5289 12.1689 53.5662 12.1689C53.6161 12.1689 53.664 12.1887 53.6993 12.224C53.7346 12.2593 53.7544 12.3072 53.7544 12.3571Z" fill="white"/>
<path d="M53.7544 12.9614C53.7544 12.9987 53.7434 13.035 53.7227 13.066C53.702 13.097 53.6726 13.1211 53.6382 13.1353C53.6038 13.1496 53.566 13.1533 53.5294 13.146C53.4929 13.1388 53.4594 13.1209 53.4331 13.0945C53.4067 13.0682 53.3888 13.0347 53.3815 12.9981C53.3743 12.9616 53.378 12.9238 53.3923 12.8894C53.4065 12.855 53.4306 12.8256 53.4616 12.8049C53.4925 12.7842 53.5289 12.7732 53.5662 12.7732C53.6161 12.7732 53.664 12.793 53.6993 12.8283C53.7346 12.8636 53.7544 12.9115 53.7544 12.9614Z" fill="white"/>
</g>
<path d="M38.8302 18.1692V18.3921H38.6651V18.1725C38.4904 18.1673 38.3213 18.1098 38.1797 18.0074L38.2689 17.8076C38.384 17.8944 38.5214 17.9465 38.6651 17.9579V17.5616C38.4455 17.5088 38.2094 17.4378 38.2094 17.162C38.2094 16.9606 38.3564 16.7839 38.6651 16.7542V16.5296H38.8302V16.7492C38.9728 16.7563 39.1112 16.7989 39.2331 16.8731L39.1506 17.0729C39.0525 17.0149 38.9434 16.9784 38.8302 16.9655V17.3684C39.0499 17.4229 39.2893 17.4922 39.2893 17.7663C39.2893 17.9645 39.1407 18.1379 38.8302 18.1692ZM38.6651 17.3222V16.9705C38.5248 16.9919 38.4653 17.0629 38.4653 17.1505C38.4653 17.238 38.5529 17.2892 38.6684 17.3222H38.6651ZM39.0333 17.7795C39.0333 17.6821 38.9458 17.6375 38.8269 17.6029V17.9546C38.9755 17.9315 39.0366 17.8638 39.0366 17.7795H39.0333Z" fill="#FF8001"/>
<path d="M40.4734 16.7674V18.1543H40.2241V16.9837H39.9302V16.7674H40.4734Z" fill="#FF8001"/>
<path d="M41.8754 17.7564C41.8754 18.014 41.6525 18.1742 41.3074 18.1742C40.9623 18.1742 40.7427 18.009 40.7427 17.7564C40.7417 17.6854 40.7624 17.6158 40.8019 17.5568C40.8414 17.4979 40.8979 17.4523 40.964 17.4262C40.912 17.3981 40.8689 17.3559 40.8397 17.3046C40.8105 17.2532 40.7964 17.1946 40.7988 17.1356C40.7988 16.8978 41.0069 16.7492 41.314 16.7492C41.6211 16.7492 41.8325 16.8978 41.8325 17.1356C41.8341 17.1959 41.8183 17.2554 41.7869 17.3069C41.7556 17.3584 41.7101 17.3999 41.6558 17.4262C41.7216 17.4524 41.7779 17.498 41.8172 17.557C41.8564 17.616 41.8767 17.6856 41.8754 17.7564ZM41.6162 17.7564C41.6162 17.6194 41.4973 17.5352 41.3074 17.5352C41.1175 17.5352 41.0019 17.6194 41.0019 17.7564C41.0019 17.8935 41.1175 17.9793 41.3074 17.9793C41.4973 17.9793 41.6145 17.8885 41.6145 17.7482L41.6162 17.7564ZM41.0498 17.1455C41.0498 17.2644 41.1472 17.3403 41.3107 17.3403C41.4742 17.3403 41.5765 17.2644 41.5765 17.1455C41.5765 17.0266 41.4692 16.9506 41.3107 16.9506C41.1522 16.9506 41.0498 17.0216 41.0498 17.1455Z" fill="#FF8001"/>
<path d="M42.0522 18.0041C42.0522 17.9714 42.0619 17.9395 42.0801 17.9123C42.0982 17.8852 42.124 17.864 42.1542 17.8515C42.1843 17.839 42.2175 17.8358 42.2496 17.8421C42.2816 17.8485 42.311 17.8642 42.3341 17.8873C42.3572 17.9104 42.3729 17.9398 42.3793 17.9719C42.3857 18.0039 42.3824 18.0371 42.3699 18.0673C42.3574 18.0974 42.3362 18.1232 42.3091 18.1414C42.2819 18.1595 42.25 18.1692 42.2174 18.1692C42.1736 18.1692 42.1316 18.1518 42.1006 18.1208C42.0696 18.0899 42.0522 18.0479 42.0522 18.0041Z" fill="#FF8001"/>
<path d="M42.9937 16.7674V18.1543H42.7361V16.9837H42.4438V16.7674H42.9937Z" fill="#FF8001"/>
<path d="M44.273 17.9364V18.1543H43.2509V17.9892L43.8024 17.4675C43.9361 17.3387 43.9675 17.2578 43.9675 17.1802C43.9675 17.053 43.88 16.9804 43.7099 16.9804C43.6474 16.9761 43.5848 16.9869 43.5273 17.0119C43.4698 17.0369 43.4192 17.0754 43.3797 17.124L43.1997 16.9853C43.2637 16.9088 43.3446 16.8482 43.436 16.8084C43.5274 16.7685 43.6268 16.7505 43.7264 16.7558C44.0269 16.7558 44.2218 16.9094 44.2218 17.1537C44.2198 17.2394 44.1981 17.3235 44.1583 17.3994C44.1184 17.4753 44.0616 17.541 43.9923 17.5913L43.6208 17.9446L44.273 17.9364Z" fill="#FF8001"/>
<path d="M45.5478 17.7564C45.5478 18.014 45.3232 18.1742 44.9798 18.1742C44.6363 18.1742 44.4151 18.009 44.4151 17.7564C44.4141 17.6854 44.4348 17.6158 44.4743 17.5568C44.5138 17.4979 44.5703 17.4523 44.6363 17.4262C44.5843 17.3981 44.5413 17.3559 44.5121 17.3046C44.4829 17.2532 44.4687 17.1946 44.4712 17.1356C44.4712 16.8978 44.6793 16.7492 44.9864 16.7492C45.2935 16.7492 45.5048 16.8978 45.5048 17.1356C45.506 17.1958 45.4901 17.2551 45.4588 17.3066C45.4275 17.358 45.3822 17.3995 45.3282 17.4262C45.394 17.4524 45.4503 17.498 45.4895 17.557C45.5288 17.616 45.5491 17.6856 45.5478 17.7564ZM45.2885 17.7564C45.2885 17.6194 45.1696 17.5352 44.9798 17.5352C44.7899 17.5352 44.6743 17.6194 44.6743 17.7564C44.6743 17.8935 44.7882 17.9793 44.9798 17.9793C45.1713 17.9793 45.2885 17.8885 45.2885 17.7482V17.7564ZM44.7172 17.1537C44.7172 17.2726 44.8163 17.3486 44.9798 17.3486C45.1432 17.3486 45.244 17.2726 45.244 17.1537C45.244 17.0349 45.1383 16.9589 44.9798 16.9589C44.8213 16.9589 44.7172 17.0216 44.7172 17.1455V17.1537Z" fill="#FF8001"/>
<path d="M40.2061 26.3871V26.5092H40.1153V26.3871C40.0186 26.3844 39.9248 26.3528 39.8462 26.2962L39.8957 26.1856C39.9598 26.2331 40.0358 26.2617 40.1153 26.2682V26.0486C39.9931 26.0188 39.8627 25.9792 39.8627 25.8273C39.8627 25.715 39.9436 25.6176 40.1153 25.6011V25.4773H40.2061V25.5995C40.2848 25.6022 40.3616 25.6249 40.4291 25.6655L40.3845 25.7761C40.3295 25.7448 40.2689 25.7246 40.2061 25.7167V25.9396C40.3283 25.9693 40.4604 26.0073 40.4604 26.1608C40.4604 26.2715 40.3779 26.3689 40.2061 26.3871ZM40.1153 25.9165V25.72C40.0377 25.7332 40.0047 25.7728 40.0047 25.8207C40.0047 25.8686 40.0592 25.8983 40.1153 25.9165ZM40.3201 26.1708C40.3201 26.1163 40.2722 26.0915 40.2061 26.0717V26.2665C40.2854 26.255 40.3201 26.217 40.3201 26.1708Z" fill="black"/>
<path d="M41.1152 25.6093V26.3771H40.9732V25.7282H40.8081V25.6093H41.1152Z" fill="black"/>
<path d="M41.5337 25.6093V26.3771H41.3917V25.7282H41.2266V25.6093H41.5337Z" fill="black"/>
<path d="M42.2456 26.141C42.2456 26.2764 42.1482 26.3887 41.9418 26.3887C41.8384 26.3908 41.737 26.3596 41.6528 26.2995L41.7139 26.1889C41.7786 26.2391 41.8583 26.2659 41.9401 26.2649C42.0425 26.2649 42.1053 26.2186 42.1053 26.1476C42.1053 26.0766 42.059 26.0271 41.8989 26.0271H41.7106L41.7503 25.6093H42.206V25.7282H41.8757L41.8592 25.9066H41.9319C42.1548 25.9066 42.2456 26.0056 42.2456 26.141Z" fill="black"/>
<path d="M42.5022 26.2946C42.5002 26.3273 42.4918 26.3592 42.4774 26.3887L42.4213 26.5439H42.3321L42.3767 26.3788C42.3608 26.3723 42.3474 26.361 42.3382 26.3465C42.329 26.332 42.3246 26.315 42.3255 26.2979C42.3238 26.2852 42.3248 26.2724 42.3284 26.2602C42.3321 26.248 42.3383 26.2367 42.3467 26.2271C42.355 26.2176 42.3654 26.2099 42.377 26.2046C42.3886 26.1993 42.4011 26.1966 42.4139 26.1966C42.4266 26.1966 42.4392 26.1993 42.4508 26.2046C42.4624 26.2099 42.4727 26.2176 42.4811 26.2271C42.4894 26.2367 42.4956 26.248 42.4993 26.2602C42.5029 26.2724 42.5039 26.2852 42.5022 26.2979V26.2946Z" fill="black"/>
<path d="M43.1635 26.2566V26.3771H42.5971V26.2847L42.9026 25.9957C42.9287 25.9767 42.9502 25.9519 42.9654 25.9233C42.9806 25.8947 42.989 25.863 42.9901 25.8306C42.9901 25.7613 42.9422 25.72 42.8481 25.72C42.8135 25.718 42.779 25.7242 42.7474 25.7383C42.7158 25.7524 42.688 25.7739 42.6665 25.8009L42.5674 25.7233C42.6029 25.6809 42.6478 25.6473 42.6985 25.6252C42.7492 25.6032 42.8044 25.5932 42.8596 25.5961C43.0248 25.5961 43.1337 25.6803 43.1337 25.8174C43.1328 25.8649 43.1208 25.9116 43.0987 25.9537C43.0767 25.9958 43.0451 26.0323 43.0066 26.0601L42.8018 26.255L43.1635 26.2566Z" fill="black"/>
<path d="M43.2427 25.9924C43.2427 25.7398 43.3814 25.5978 43.563 25.5978C43.7446 25.5978 43.885 25.7398 43.885 25.9924C43.885 26.245 43.7463 26.3887 43.563 26.3887C43.3797 26.3887 43.2427 26.245 43.2427 25.9924ZM43.738 25.9924C43.738 25.8075 43.6654 25.7216 43.5597 25.7216C43.454 25.7216 43.383 25.8075 43.383 25.9924C43.383 26.1773 43.4557 26.2648 43.5597 26.2648C43.6637 26.2648 43.7413 26.179 43.7413 25.9924H43.738Z" fill="black"/>
<path d="M35.8899 24.5873C35.5992 25.7702 35.6657 27.0128 36.0812 28.1579C36.4967 29.303 37.2424 30.2992 38.224 31.0205C39.2057 31.7417 40.3791 32.1557 41.5961 32.21C42.813 32.2644 44.0187 31.9566 45.0607 31.3257C46.1027 30.6947 46.9342 29.769 47.4501 28.6655C47.9659 27.5619 48.143 26.3302 47.9588 25.1261C47.7746 23.922 47.2375 22.7995 46.4153 21.9006C45.5932 21.0018 44.523 20.3669 43.34 20.0763C42.5546 19.8832 41.7389 19.8466 40.9394 19.9688C40.1399 20.091 39.3723 20.3695 38.6804 20.7884C37.9886 21.2073 37.3861 21.7584 36.9073 22.4102C36.4285 23.0621 36.0828 23.8018 35.8899 24.5873ZM38.4344 25.2114C38.6012 24.5317 38.9659 23.9168 39.4822 23.4444C39.9986 22.9719 40.6434 22.6632 41.3352 22.5573C42.027 22.4513 42.7347 22.5529 43.3687 22.8492C44.0028 23.1455 44.5348 23.6231 44.8973 24.2217C45.2599 24.8204 45.4369 25.5131 45.4057 26.2122C45.3746 26.9114 45.1369 27.5856 44.7226 28.1497C44.3083 28.7137 43.736 29.1423 43.0781 29.3811C42.4203 29.6199 41.7064 29.6582 41.0267 29.4912C40.1154 29.2674 39.3304 28.6908 38.8443 27.8882C38.3581 27.0856 38.2107 26.1227 38.4344 25.2114Z" fill="#263238"/>
<path d="M36.6195 29.2782C37.184 30.1982 37.9803 30.9536 38.9287 31.4689C39.8771 31.9842 40.9442 32.2412 42.0232 32.2141C43.1021 32.1871 44.1551 31.877 45.0765 31.3149C45.9979 30.7528 46.7553 29.9585 47.2731 29.0114C47.7908 28.0644 48.0505 26.9979 48.0263 25.9188C48.002 24.8398 47.6946 23.7861 47.1349 22.8633C46.5751 21.9404 45.7827 21.1809 44.837 20.6607C43.8913 20.1406 42.8255 19.8781 41.7464 19.8996C41.948 19.8962 42.1476 19.9394 42.3297 20.0259C42.5119 20.1125 42.6715 20.2399 42.7962 20.3983C42.9209 20.5568 43.0073 20.7419 43.0486 20.9392C43.0899 21.1366 43.085 21.3408 43.0343 21.5359C42.9629 21.8144 42.8001 22.061 42.572 22.236C42.3456 22.414 42.0673 22.5131 41.7794 22.5184H41.7051C42.3277 22.4894 42.947 22.6254 43.5002 22.9126C44.0534 23.1998 44.5209 23.628 44.8554 24.154C45.1899 24.6799 45.3795 25.2849 45.4051 25.9077C45.4307 26.5304 45.2914 27.1489 45.0011 27.7006C44.7109 28.2522 44.2801 28.7173 43.7524 29.049C43.2246 29.3806 42.6186 29.567 41.9957 29.5892C41.3728 29.6114 40.7551 29.4686 40.2051 29.1754C39.655 28.8822 39.1922 28.4489 38.8635 27.9193C38.6809 27.6204 38.3878 27.4056 38.0478 27.3216C37.7962 27.2597 37.5318 27.274 37.2884 27.3626C37.0449 27.4511 36.8332 27.6101 36.6801 27.8192C36.5271 28.0283 36.4397 28.2781 36.4289 28.537C36.4181 28.7959 36.4844 29.0522 36.6195 29.2733V29.2782Z" fill="#FF8001"/>
<path d="M31.8363 36.5219H31.2485V38.4422H31.8363V36.5219Z" fill="#FF8001"/>
<path d="M33.3124 37.0172H32.7246V38.4422H33.3124V37.0172Z" fill="#FF8001"/>
<path d="M34.787 34.8707H34.1992V38.4422H34.787V34.8707Z" fill="#FF8001"/>
<path d="M36.2631 34.0452H35.6753V38.4422H36.2631V34.0452Z" fill="#FF8001"/>
<path d="M37.7392 34.8707H37.1514V38.4422H37.7392V34.8707Z" fill="#FF8001"/>
<path d="M39.2143 36.5219H38.6265V38.4422H39.2143V36.5219Z" fill="#FF8001"/>
<path d="M40.6879 36.8521H40.1001V38.4422H40.6879V36.8521Z" fill="#FF8001"/>
<path d="M42.164 37.0172H41.5762V38.4422H42.164V37.0172Z" fill="#FF8001"/>
<path d="M43.641 36.5219H43.0532V38.4422H43.641V36.5219Z" fill="#FF8001"/>
<path d="M45.1152 35.6963H44.5273V38.4422H45.1152V35.6963Z" fill="#FF8001"/>
<path d="M46.5912 35.0359H46.0034V38.4422H46.5912V35.0359Z" fill="#FF8001"/>
<path d="M48.0654 34.3754H47.4775V38.4422H48.0654V34.3754Z" fill="#FF8001"/>
<path d="M49.5419 33.5498H48.9541V38.4422H49.5419V33.5498Z" fill="#FF8001"/>
<path d="M51.018 34.7056H50.4302V38.4422H51.018V34.7056Z" fill="#FF8001"/>
<path d="M52.4926 36.5219H51.9048V38.4422H52.4926V36.5219Z" fill="#FF8001"/>
<path d="M34.787 34.8707H34.1992V35.6963H34.787V34.8707Z" fill="#263238"/>
<path d="M36.2631 34.0452H35.6753V35.6963H36.2631V34.0452Z" fill="#263238"/>
<path d="M37.7392 34.8707H37.1514V35.6963H37.7392V34.8707Z" fill="#263238"/>
<path d="M46.5912 35.0359H46.0034V35.6963H46.5912V35.0359Z" fill="#263238"/>
<path d="M48.0654 34.3754H47.4775V35.6963H48.0654V34.3754Z" fill="#263238"/>
<path d="M49.5419 33.5498H48.9541V35.6963H49.5419V33.5498Z" fill="#263238"/>
<path d="M51.018 34.7056H50.4302V35.6963H51.018V34.7056Z" fill="#263238"/>
<path d="M52.4844 40.8149H31.2586C30.9869 40.8149 30.7666 41.0352 30.7666 41.307V43.8382C30.7666 44.11 30.9869 44.3303 31.2586 44.3303H52.4844C52.7561 44.3303 52.9764 44.11 52.9764 43.8382V41.307C52.9764 41.0352 52.7561 40.8149 52.4844 40.8149Z" fill="#FF8001"/>
<g opacity="0.7">
<path d="M47.4452 42.5635H47.252V42.7567H47.1331V42.5635H46.9399V42.4545H47.1331V42.2613H47.252V42.4545H47.4452V42.5635Z" fill="white"/>
<path d="M48.2157 42.902V43.0258H48.1266V42.9036C48.0297 42.9016 47.9357 42.8699 47.8574 42.8128L47.907 42.7022C47.9711 42.7496 48.0471 42.7781 48.1266 42.7847V42.5651C48.0044 42.5354 47.8739 42.4958 47.8739 42.3439C47.8739 42.2316 47.9548 42.1342 48.1266 42.1177V41.9922H48.2157V42.1144C48.2944 42.1185 48.3709 42.1417 48.4386 42.1821L48.3941 42.2927C48.3395 42.2605 48.2787 42.2402 48.2157 42.2333V42.4562C48.3379 42.4842 48.47 42.5239 48.47 42.6758C48.47 42.7963 48.3891 42.8855 48.2157 42.902ZM48.1266 42.4314V42.2366C48.0473 42.2481 48.0143 42.2877 48.0143 42.3373C48.0143 42.3868 48.0622 42.4132 48.1266 42.4314ZM48.3297 42.6857C48.3297 42.6328 48.2818 42.6064 48.2157 42.5883V42.7831C48.2966 42.7699 48.3297 42.7336 48.3297 42.6857Z" fill="white"/>
<path d="M49.441 42.1243V42.2201L49.1405 42.8937H48.9869L49.2759 42.2448H48.9754V42.3769H48.8433V42.1243H49.441Z" fill="white"/>
<path d="M50.0669 42.6576C50.0669 42.793 49.9695 42.9053 49.7631 42.9053C49.6597 42.9074 49.5583 42.8762 49.4741 42.8161L49.5352 42.7055C49.6004 42.7544 49.6799 42.7805 49.7614 42.7798C49.8638 42.7798 49.9265 42.7352 49.9265 42.6626C49.9265 42.5899 49.8803 42.5437 49.7201 42.5437H49.5352L49.5748 42.1243H50.0256V42.2448H49.6954L49.6789 42.4231H49.7515C49.9761 42.4231 50.0669 42.5206 50.0669 42.6576Z" fill="white"/>
<path d="M50.325 42.8095C50.3232 42.8428 50.3148 42.8754 50.3002 42.9053L50.2441 43.0588H50.1549L50.1995 42.8937C50.1835 42.8869 50.1699 42.8754 50.1608 42.8606C50.1516 42.8458 50.1472 42.8285 50.1483 42.8112C50.1466 42.7986 50.1476 42.7857 50.1512 42.7735C50.1548 42.7613 50.1611 42.75 50.1694 42.7405C50.1778 42.7309 50.1881 42.7232 50.1997 42.7179C50.2113 42.7126 50.2239 42.7099 50.2366 42.7099C50.2494 42.7099 50.2619 42.7126 50.2735 42.7179C50.2851 42.7232 50.2954 42.7309 50.3038 42.7405C50.3122 42.75 50.3184 42.7613 50.322 42.7735C50.3257 42.7857 50.3267 42.7986 50.325 42.8112V42.8095Z" fill="white"/>
<path d="M50.4038 42.509C50.4038 42.2564 50.5425 42.1144 50.7241 42.1144C50.9058 42.1144 51.0544 42.2564 51.0544 42.509C51.0544 42.7617 50.9173 42.9053 50.7241 42.9053C50.5309 42.9053 50.4038 42.7617 50.4038 42.509ZM50.8992 42.509C50.8992 42.3241 50.8265 42.2382 50.7208 42.2382C50.6152 42.2382 50.5442 42.3241 50.5442 42.509C50.5442 42.694 50.6168 42.7798 50.7208 42.7798C50.8249 42.7798 50.9025 42.6956 50.9025 42.509H50.8992Z" fill="white"/>
<path d="M51.7012 42.6576C51.7012 42.793 51.6037 42.9053 51.3974 42.9053C51.2939 42.9074 51.1926 42.8762 51.1084 42.8161L51.1695 42.7055C51.2347 42.7544 51.3142 42.7805 51.3957 42.7798C51.4981 42.7798 51.5608 42.7352 51.5608 42.6626C51.5608 42.5899 51.5146 42.5437 51.3544 42.5437H51.1695L51.2091 42.1243H51.6599V42.2448H51.3297L51.3131 42.4231H51.3858C51.617 42.4231 51.7012 42.5206 51.7012 42.6576Z" fill="white"/>
</g>
<path opacity="0.7" d="M37.5427 42.301H32.3713C32.3192 42.301 32.2692 42.2803 32.2324 42.2434C32.1955 42.2066 32.1748 42.1566 32.1748 42.1045C32.1746 42.0785 32.1795 42.0528 32.1893 42.0288C32.1991 42.0048 32.2135 41.9829 32.2318 41.9645C32.25 41.9461 32.2718 41.9314 32.2957 41.9215C32.3197 41.9115 32.3454 41.9063 32.3713 41.9063H37.5427C37.595 41.9068 37.645 41.9278 37.6818 41.965C37.7186 42.0021 37.7392 42.0522 37.7392 42.1045C37.7388 42.1565 37.718 42.2062 37.6812 42.2429C37.6445 42.2797 37.5947 42.3005 37.5427 42.301Z" fill="white"/>
<path opacity="0.7" d="M35.2311 43.2339H32.3713C32.3454 43.2339 32.3197 43.2287 32.2957 43.2187C32.2718 43.2088 32.25 43.1942 32.2318 43.1757C32.2135 43.1573 32.1991 43.1355 32.1893 43.1114C32.1795 43.0874 32.1746 43.0617 32.1748 43.0357C32.1748 42.9836 32.1955 42.9336 32.2324 42.8968C32.2692 42.8599 32.3192 42.8392 32.3713 42.8392H35.2311C35.2831 42.8397 35.3328 42.8605 35.3696 42.8973C35.4063 42.934 35.4272 42.9837 35.4276 43.0357C35.4276 43.088 35.407 43.1381 35.3702 43.1752C35.3334 43.2124 35.2834 43.2334 35.2311 43.2339Z" fill="white"/>
<path d="M52.4844 45.6033H31.2586C30.9869 45.6033 30.7666 45.8236 30.7666 46.0954V48.6266C30.7666 48.8983 30.9869 49.1186 31.2586 49.1186H52.4844C52.7561 49.1186 52.9764 48.8983 52.9764 48.6266V46.0954C52.9764 45.8236 52.7561 45.6033 52.4844 45.6033Z" fill="#FF8001"/>
<g opacity="0.7">
<path d="M47.0654 47.3188H47.3676V47.4344H47.0654V47.3188Z" fill="white"/>
<path d="M48.128 47.6904V47.8142H48.0372V47.692C47.9404 47.6894 47.8467 47.6577 47.7681 47.6012L47.8176 47.4906C47.882 47.5374 47.9579 47.566 48.0372 47.5731V47.3535C47.9167 47.3238 47.7846 47.2842 47.7846 47.1323C47.7846 47.02 47.8671 46.9226 48.0372 46.9061V46.7806H48.128V46.9028C48.2067 46.9069 48.2832 46.9301 48.3509 46.9705L48.3146 47.0893C48.2599 47.0574 48.1992 47.0371 48.1363 47.0299V47.2528C48.2585 47.2809 48.3906 47.3205 48.3906 47.4724C48.3823 47.5847 48.2997 47.6739 48.128 47.6904ZM48.0372 47.2198V47.0249C47.9596 47.0365 47.9266 47.0761 47.9266 47.1257C47.9266 47.1752 47.9745 47.2016 48.0372 47.2198ZM48.2419 47.4741C48.2419 47.4212 48.1941 47.3948 48.128 47.3766V47.5715C48.2073 47.5583 48.2419 47.5219 48.2419 47.4741Z" fill="white"/>
<path d="M49.3322 47.446C49.3322 47.5814 49.2348 47.6937 49.0267 47.6937C48.9234 47.6955 48.8222 47.6642 48.7378 47.6045L48.7989 47.4939C48.8642 47.5426 48.9436 47.5686 49.0251 47.5682C49.1275 47.5682 49.1902 47.5236 49.1902 47.4509C49.1902 47.3783 49.1423 47.3321 48.9838 47.3321H48.7972L48.8369 46.9127H49.2876V47.0332H48.9574L48.9409 47.2115H49.0152C49.2414 47.2115 49.3322 47.3089 49.3322 47.446Z" fill="white"/>
<path d="M49.966 47.446C49.966 47.5814 49.8669 47.6937 49.6605 47.6937C49.5572 47.6955 49.456 47.6642 49.3716 47.6045L49.4327 47.4939C49.498 47.5426 49.5774 47.5686 49.6589 47.5682C49.7613 47.5682 49.824 47.5236 49.824 47.4509C49.824 47.3783 49.7761 47.3321 49.616 47.3321H49.431L49.4707 46.9127H49.9214V47.0332H49.5912L49.5747 47.2115H49.649C49.8768 47.2115 49.966 47.3089 49.966 47.446Z" fill="white"/>
<path d="M50.2249 47.5979C50.2231 47.6312 50.2147 47.6637 50.2001 47.6937L50.144 47.8472H50.0548L50.0977 47.6821C50.082 47.6749 50.0687 47.6633 50.0596 47.6486C50.0505 47.6339 50.046 47.6168 50.0465 47.5995C50.0458 47.5876 50.0476 47.5756 50.0519 47.5644C50.0561 47.5531 50.0626 47.5429 50.071 47.5344C50.0794 47.5258 50.0895 47.5191 50.1006 47.5147C50.1118 47.5103 50.1237 47.5083 50.1357 47.5087C50.1475 47.5085 50.1592 47.5107 50.1701 47.5151C50.181 47.5195 50.1909 47.526 50.1992 47.5343C50.2076 47.5427 50.2141 47.5526 50.2185 47.5635C50.2229 47.5744 50.2251 47.5861 50.2249 47.5979Z" fill="white"/>
<path d="M50.9981 47.5071H50.8611V47.6821H50.7224V47.5071H50.2964V47.408L50.6745 46.9127H50.8281L50.4714 47.3865H50.7224V47.2313H50.8561V47.3865H50.9932L50.9981 47.5071Z" fill="white"/>
<path d="M51.692 47.4608C51.692 47.6045 51.5681 47.6937 51.3766 47.6937C51.185 47.6937 51.0645 47.6045 51.0645 47.4608C51.0635 47.4214 51.0748 47.3827 51.0966 47.3499C51.1185 47.3171 51.1499 47.2918 51.1867 47.2776C51.1565 47.2623 51.1313 47.2385 51.1143 47.2092C51.0973 47.1799 51.0892 47.1463 51.0909 47.1124C51.0909 46.982 51.2065 46.8994 51.3766 46.8994C51.5467 46.8994 51.6655 46.982 51.6655 47.1124C51.667 47.1466 51.6584 47.1805 51.6408 47.2098C51.6231 47.2392 51.5973 47.2627 51.5665 47.2776C51.6037 47.2915 51.6357 47.3166 51.6582 47.3494C51.6806 47.3822 51.6924 47.4211 51.692 47.4608ZM51.5483 47.4608C51.5483 47.3849 51.4823 47.337 51.3832 47.337C51.2841 47.337 51.2181 47.3849 51.2181 47.4608C51.2181 47.5368 51.2825 47.5847 51.3832 47.5847C51.4839 47.5847 51.5483 47.5351 51.5483 47.4575V47.4608ZM51.2329 47.1306C51.2329 47.1967 51.2874 47.2396 51.3766 47.2396C51.4657 47.2396 51.5252 47.1967 51.5252 47.1306C51.5252 47.0646 51.4657 47.0216 51.3766 47.0216C51.2874 47.0216 51.2329 47.053 51.2329 47.1224V47.1306Z" fill="white"/>
</g>
<path opacity="0.7" d="M37.5427 47.0893H32.3713C32.3192 47.0893 32.2692 47.0686 32.2324 47.0318C32.1955 46.9949 32.1748 46.945 32.1748 46.8928C32.1746 46.8669 32.1795 46.8412 32.1893 46.8171C32.1991 46.7931 32.2135 46.7713 32.2318 46.7528C32.25 46.7344 32.2718 46.7198 32.2957 46.7098C32.3197 46.6998 32.3454 46.6947 32.3713 46.6947H37.5427C37.595 46.6951 37.645 46.7162 37.6818 46.7533C37.7186 46.7904 37.7392 46.8406 37.7392 46.8928C37.7388 46.9448 37.718 46.9945 37.6812 47.0313C37.6445 47.0681 37.5947 47.0889 37.5427 47.0893Z" fill="white"/>
<path opacity="0.7" d="M35.2311 48.0222H32.3713C32.3454 48.0223 32.3197 48.0171 32.2957 48.0071C32.2718 47.9972 32.25 47.9825 32.2318 47.9641C32.2135 47.9457 32.1991 47.9238 32.1893 47.8998C32.1795 47.8758 32.1746 47.8501 32.1748 47.8241C32.1748 47.772 32.1955 47.722 32.2324 47.6852C32.2692 47.6483 32.3192 47.6276 32.3713 47.6276H35.2311C35.2831 47.6281 35.3328 47.6489 35.3696 47.6856C35.4063 47.7224 35.4272 47.7721 35.4276 47.8241C35.4276 47.8764 35.407 47.9265 35.3702 47.9636C35.3334 48.0007 35.2834 48.0218 35.2311 48.0222Z" fill="white"/>
<path d="M52.4844 50.3917H31.2586C30.9869 50.3917 30.7666 50.612 30.7666 50.8837V53.4149C30.7666 53.6867 30.9869 53.907 31.2586 53.907H52.4844C52.7561 53.907 52.9764 53.6867 52.9764 53.4149V50.8837C52.9764 50.612 52.7561 50.3917 52.4844 50.3917Z" fill="#FF8001"/>
<g opacity="0.7">
<path d="M47.5707 52.1402H47.3758V52.3334H47.2586V52.1402H47.0654V52.0313H47.2586V51.8381H47.3758V52.0313H47.5707V52.1402Z" fill="white"/>
<path d="M48.3419 52.4787V52.6026H48.2511V52.4804C48.1543 52.4777 48.0605 52.4461 47.9819 52.3896L48.0315 52.279C48.0959 52.3258 48.1718 52.3543 48.2511 52.3615V52.1419C48.1305 52.1122 47.9984 52.0726 47.9984 51.9207C47.9984 51.8084 48.081 51.711 48.2511 51.6944V51.569H48.3419V51.6911C48.4206 51.6953 48.4971 51.7185 48.5648 51.7588L48.5202 51.8695C48.4655 51.8375 48.4048 51.8172 48.3419 51.81V52.0329C48.4641 52.061 48.5962 52.1006 48.5962 52.2525C48.5962 52.3731 48.5136 52.4622 48.3419 52.4787ZM48.2511 52.0082V51.8133C48.1735 51.8249 48.1404 51.8645 48.1404 51.914C48.1404 51.9636 48.1883 51.99 48.2511 52.0082ZM48.4558 52.2624C48.4558 52.2096 48.4079 52.1832 48.3419 52.165V52.3599C48.4228 52.3467 48.4558 52.3103 48.4558 52.2624Z" fill="white"/>
<path d="M49.251 51.7011V52.4705H49.109V51.8216H48.9438V51.7011H49.251Z" fill="white"/>
<path d="M50.0274 52.2492C50.0274 52.3929 49.9036 52.482 49.712 52.482C49.5205 52.482 49.4 52.3929 49.4 52.2492C49.399 52.2098 49.4102 52.1711 49.4321 52.1383C49.4539 52.1055 49.4854 52.0802 49.5221 52.066C49.4919 52.0507 49.4668 52.0269 49.4498 51.9976C49.4328 51.9683 49.4246 51.9347 49.4264 51.9008C49.4264 51.7704 49.542 51.6878 49.712 51.6878C49.8821 51.6878 50.001 51.7704 50.001 51.9008C50.0024 51.9348 49.9939 51.9685 49.9766 51.9978C49.9593 52.027 49.934 52.0507 49.9036 52.066C49.9405 52.0801 49.9722 52.1053 49.9943 52.1381C50.0165 52.1709 50.028 52.2097 50.0274 52.2492ZM49.8838 52.2492C49.8838 52.1733 49.8177 52.1254 49.7186 52.1254C49.6196 52.1254 49.5535 52.1733 49.5535 52.2492C49.5535 52.3252 49.6179 52.3731 49.7186 52.3731C49.8194 52.3731 49.8838 52.3235 49.8838 52.2459V52.2492ZM49.5684 51.919C49.5684 51.985 49.6229 52.028 49.712 52.028C49.8012 52.028 49.8606 51.985 49.8606 51.919C49.8606 51.853 49.8012 51.81 49.712 51.81C49.6229 51.81 49.5684 51.8414 49.5684 51.9107V51.919Z" fill="white"/>
<path d="M50.3069 52.3863C50.3051 52.4196 50.2967 52.4521 50.2821 52.4821L50.226 52.6356H50.1319L50.1764 52.4705C50.1603 52.4638 50.1465 52.4523 50.1371 52.4375C50.1276 52.4227 50.1229 52.4055 50.1236 52.3879C50.1236 52.3643 50.133 52.3416 50.1497 52.3249C50.1664 52.3082 50.1891 52.2988 50.2128 52.2988C50.2364 52.2988 50.2591 52.3082 50.2758 52.3249C50.2925 52.3416 50.3019 52.3643 50.3019 52.3879L50.3069 52.3863Z" fill="white"/>
<path d="M50.9667 52.35V52.4705H50.4003V52.3731L50.7058 52.0825C50.7801 52.0115 50.7933 51.9669 50.7933 51.9174C50.7933 51.8464 50.7438 51.8067 50.6497 51.8067C50.6155 51.8049 50.5815 51.8111 50.5502 51.8249C50.519 51.8387 50.4914 51.8596 50.4697 51.886L50.3706 51.81C50.4059 51.7673 50.4507 51.7336 50.5015 51.7115C50.5523 51.6894 50.6076 51.6796 50.6629 51.6829C50.828 51.6829 50.937 51.7671 50.937 51.9025C50.936 51.95 50.924 51.9967 50.902 52.0388C50.8799 52.0809 50.8483 52.1174 50.8098 52.1452L50.6034 52.3417L50.9667 52.35Z" fill="white"/>
<path d="M51.0459 52.0858C51.0459 51.8331 51.1829 51.6911 51.3662 51.6911C51.5495 51.6911 51.6882 51.8331 51.6882 52.0858C51.6882 52.3384 51.5495 52.4821 51.3662 52.4821C51.1829 52.4821 51.0459 52.3384 51.0459 52.0858ZM51.5412 52.0858C51.5412 51.9008 51.4686 51.815 51.3629 51.815C51.2572 51.815 51.1862 51.9008 51.1862 52.0858C51.1862 52.2707 51.2589 52.3566 51.3629 52.3566C51.4669 52.3566 51.5445 52.2724 51.5445 52.0858H51.5412Z" fill="white"/>
</g>
<path opacity="0.7" d="M37.5427 51.8777H32.3713C32.3192 51.8777 32.2692 51.857 32.2324 51.8202C32.1955 51.7833 32.1748 51.7333 32.1748 51.6812C32.1746 51.6553 32.1795 51.6295 32.1893 51.6055C32.1991 51.5815 32.2135 51.5596 32.2318 51.5412C32.25 51.5228 32.2718 51.5082 32.2957 51.4982C32.3197 51.4882 32.3454 51.4831 32.3713 51.4831H37.5427C37.595 51.4835 37.645 51.5046 37.6818 51.5417C37.7186 51.5788 37.7392 51.629 37.7392 51.6812C37.7388 51.7332 37.718 51.7829 37.6812 51.8197C37.6445 51.8564 37.5947 51.8773 37.5427 51.8777Z" fill="white"/>
<path opacity="0.7" d="M35.2311 52.8106H32.3713C32.3454 52.8106 32.3197 52.8055 32.2957 52.7955C32.2718 52.7855 32.25 52.7709 32.2318 52.7525C32.2135 52.7341 32.1991 52.7122 32.1893 52.6882C32.1795 52.6642 32.1746 52.6384 32.1748 52.6125C32.1748 52.5604 32.1955 52.5104 32.2324 52.4736C32.2692 52.4367 32.3192 52.416 32.3713 52.416H35.2311C35.2831 52.4164 35.3328 52.4373 35.3696 52.474C35.4063 52.5108 35.4272 52.5605 35.4276 52.6125C35.4276 52.6648 35.407 52.7149 35.3702 52.752C35.3334 52.7891 35.2834 52.8102 35.2311 52.8106Z" fill="white"/>
</svg>
