<svg width="14" height="13" viewBox="0 0 14 13" fill="none" xmlns="http://www.w3.org/2000/svg">
<path d="M3.37516 2.87072V1.52066C3.37516 1.14939 3.50736 0.831563 3.77174 0.567175C4.03613 0.302787 4.35396 0.170593 4.72523 0.170593H8.77542C9.14669 0.170593 9.46452 0.302787 9.72891 0.567175C9.99329 0.831563 10.1255 1.14939 10.1255 1.52066V2.87072H12.1506C12.5219 2.87072 12.8397 3.00292 13.1041 3.2673C13.3685 3.53169 13.5007 3.84952 13.5007 4.22079V11.6461C13.5007 12.0174 13.3685 12.3352 13.1041 12.5996C12.8397 12.864 12.5219 12.9962 12.1506 12.9962H1.35006C0.978797 12.9962 0.660969 12.864 0.396582 12.5996C0.132194 12.3352 0 12.0174 0 11.6461V4.22079C0 3.84952 0.132194 3.53169 0.396582 3.2673C0.660969 3.00292 0.978797 2.87072 1.35006 2.87072H3.37516ZM4.72523 2.87072H8.77542V1.52066H4.72523V2.87072ZM1.35006 10.2961H12.1506V8.27098H1.35006V10.2961Z" fill="#0D358E"/>
</svg>
