<svg width="8" height="14" viewBox="0 0 8 14" fill="none" xmlns="http://www.w3.org/2000/svg">
<path d="M3.28079 13.8788V12.2717C2.62052 12.1222 2.05057 11.8357 1.57094 11.4121C1.09131 10.9885 0.739379 10.3906 0.515137 9.61817L1.89796 9.05757C2.08483 9.65554 2.36202 10.1103 2.72953 10.4217C3.09703 10.7332 3.57978 10.8889 4.17775 10.8889C4.68853 10.8889 5.12144 10.7736 5.47649 10.5432C5.83154 10.3127 6.00906 9.95453 6.00906 9.46868C6.00906 9.03265 5.87203 8.68694 5.59795 8.43156C5.32388 8.17617 4.68853 7.88653 3.6919 7.56262C2.62052 7.22626 1.8855 6.82449 1.48685 6.35732C1.0882 5.89015 0.888873 5.3202 0.888873 4.64748C0.888873 3.83771 1.15049 3.20859 1.67372 2.76011C2.19695 2.31162 2.73264 2.05624 3.28079 1.99395V0.424255H4.77573V1.99395C5.39863 2.09361 5.91251 2.32097 6.31739 2.67602C6.72228 3.03107 7.01815 3.46398 7.20502 3.97475L5.82219 4.57273C5.6727 4.17408 5.46092 3.87509 5.18684 3.67576C4.91277 3.47644 4.53903 3.37677 4.06563 3.37677C3.51749 3.37677 3.10015 3.49824 2.81362 3.74117C2.52708 3.98409 2.38382 4.2862 2.38382 4.64748C2.38382 5.05859 2.57069 5.38249 2.94442 5.61919C3.31816 5.85589 3.96597 6.10505 4.88785 6.36666C5.74745 6.61582 6.39837 7.01136 6.84063 7.55328C7.28288 8.09519 7.50401 8.7212 7.50401 9.4313C7.50401 10.3158 7.24239 10.9885 6.71916 11.4495C6.19593 11.9104 5.54812 12.197 4.77573 12.3091V13.8788H3.28079Z" fill="white"/>
</svg>
