<svg width="23" height="22" viewBox="0 0 23 22" fill="none" xmlns="http://www.w3.org/2000/svg">
<path d="M13.6168 21.8585C13.185 21.8585 12.8181 21.7074 12.5158 21.4052C12.2136 21.1029 12.0625 20.736 12.0625 20.3042V13.0509C12.0625 12.6192 12.2136 12.2522 12.5158 11.95C12.8181 11.6478 13.185 11.4967 13.6168 11.4967H20.8701C21.3018 11.4967 21.6688 11.6478 21.971 11.95C22.2732 12.2522 22.4244 12.6192 22.4244 13.0509V20.3042C22.4244 20.736 22.2732 21.1029 21.971 21.4052C21.6688 21.7074 21.3018 21.8585 20.8701 21.8585H13.6168ZM13.6168 20.3042H20.8701V19.4753C20.4383 18.9399 19.9116 18.5125 19.2899 18.193C18.6682 17.8735 17.986 17.7138 17.2434 17.7138C16.5008 17.7138 15.8187 17.8735 15.197 18.193C14.5753 18.5125 14.0485 18.9399 13.6168 19.4753V20.3042ZM17.2434 16.6776C17.6752 16.6776 18.0422 16.5265 18.3444 16.2242C18.6466 15.922 18.7977 15.555 18.7977 15.1233C18.7977 14.6916 18.6466 14.3246 18.3444 14.0224C18.0422 13.7201 17.6752 13.569 17.2434 13.569C16.8117 13.569 16.4447 13.7201 16.1425 14.0224C15.8403 14.3246 15.6892 14.6916 15.6892 15.1233C15.6892 15.555 15.8403 15.922 16.1425 16.2242C16.4447 16.5265 16.8117 16.6776 17.2434 16.6776ZM11.0781 6.83383C10.0765 6.83383 9.22164 7.18786 8.51358 7.89592C7.80552 8.60398 7.45149 9.45883 7.45149 10.4605C7.45149 11.2894 7.68463 12.0148 8.15091 12.6365C8.6172 13.2582 9.23027 13.6899 9.99014 13.9317V11.6003C9.85198 11.4621 9.73973 11.2851 9.65338 11.0692C9.56703 10.8534 9.52386 10.6504 9.52386 10.4605C9.52386 10.0287 9.67497 9.66175 9.97719 9.35953C10.2794 9.05731 10.6464 8.9062 11.0781 8.9062C11.3199 8.9062 11.5358 8.95369 11.7257 9.04867C11.9157 9.14366 12.0798 9.26886 12.2179 9.42429H14.5494C14.3248 8.66442 13.8974 8.04271 13.2671 7.55916C12.6367 7.07561 11.9071 6.83383 11.0781 6.83383ZM8.17682 20.8223L7.76234 17.5065C7.53784 17.4202 7.32628 17.3166 7.12768 17.1957C6.92908 17.0748 6.73479 16.9453 6.54483 16.8071L3.46218 18.1023L0.612671 13.1805L3.28085 11.1599C3.26358 11.039 3.25494 10.9224 3.25494 10.8102V10.1108C3.25494 9.99851 3.26358 9.88194 3.28085 9.76105L0.612671 7.74049L3.46218 2.81862L6.54483 4.11385C6.73479 3.97569 6.9334 3.84617 7.14063 3.72528C7.34787 3.60439 7.55511 3.50077 7.76234 3.41442L8.17682 0.0986328H13.8758L14.2903 3.41442C14.5148 3.50077 14.7264 3.60439 14.925 3.72528C15.1236 3.84617 15.3179 3.97569 15.5078 4.11385L18.5905 2.81862L21.44 7.74049L19.2381 9.42429H16.6217C16.6045 9.33794 16.5872 9.24728 16.5699 9.15229C16.5526 9.05731 16.5267 8.96664 16.4922 8.88029L18.72 7.19649L17.7097 5.43498L15.1452 6.52297C14.7652 6.12577 14.3464 5.79333 13.8888 5.52565C13.4311 5.25797 12.9346 5.05505 12.3993 4.91689L12.0625 2.171H10.016L9.65338 4.91689C9.11802 5.05505 8.62151 5.25797 8.16387 5.52565C7.70622 5.79333 7.28743 6.11714 6.90749 6.49707L4.34293 5.43498L3.33265 7.19649L5.56045 8.85439C5.4741 9.11343 5.41366 9.37248 5.37912 9.63153C5.34458 9.89057 5.32731 10.1669 5.32731 10.4605C5.32731 10.7368 5.34458 11.0045 5.37912 11.2635C5.41366 11.5226 5.4741 11.7816 5.56045 12.0407L3.33265 13.7245L4.34293 15.486L6.90749 14.398C7.32197 14.8297 7.78825 15.1924 8.30634 15.486C8.82443 15.7796 9.3857 15.9695 9.99014 16.0559V20.8223H8.17682Z" fill="white"/>
</svg>
