<svg width="39" height="28" viewBox="0 0 39 28" fill="none" xmlns="http://www.w3.org/2000/svg">
<path d="M3.82058 28C2.96503 28 2.23262 27.6954 1.62336 27.0861C1.0141 26.4769 0.709473 25.7444 0.709473 24.8889V3.11111C0.709473 2.25556 1.0141 1.52315 1.62336 0.913889C2.23262 0.30463 2.96503 0 3.82058 0H27.2953V3.11111H3.82058V24.8889H27.2953V28H3.82058ZM30.265 21.2121L28.1261 18.9566L32.0928 14.9899H19.3761V11.8788H32.0928L28.1261 7.91212L30.265 5.65657L38.0428 13.4343L30.265 21.2121Z" fill="white"/>
<path d="M11.079 22.6262V20.5993C10.224 20.4107 9.48593 20.0493 8.86481 19.5151C8.2437 18.9808 7.78795 18.2266 7.49756 17.2525L9.2883 16.5454C9.53029 17.2996 9.88925 17.8731 10.3652 18.2659C10.8411 18.6587 11.4662 18.8551 12.2406 18.8551C12.902 18.8551 13.4627 18.7098 13.9224 18.4191C14.3822 18.1284 14.6121 17.6767 14.6121 17.0639C14.6121 16.514 14.4347 16.0779 14.0797 15.7558C13.7248 15.4337 12.902 15.0684 11.6114 14.6599C10.224 14.2356 9.27217 13.7289 8.75592 13.1397C8.23967 12.5504 7.98154 11.8316 7.98154 10.9831C7.98154 9.96177 8.32033 9.16828 8.99791 8.60262C9.67549 8.03697 10.3692 7.71486 11.079 7.63629V5.65649H13.015V7.63629C13.8216 7.76199 14.4871 8.04875 15.0114 8.49656C15.5357 8.94437 15.9189 9.49039 16.1609 10.1346L14.3701 10.8888C14.1765 10.386 13.9023 10.0089 13.5474 9.7575C13.1924 9.5061 12.7085 9.3804 12.0954 9.3804C11.3856 9.3804 10.8451 9.5336 10.4741 9.84C10.103 10.1464 9.91748 10.5274 9.91748 10.9831C9.91748 11.5016 10.1595 11.9101 10.6435 12.2087C11.1274 12.5072 11.9663 12.8215 13.1602 13.1514C14.2733 13.4657 15.1163 13.9646 15.689 14.6481C16.2617 15.3316 16.5481 16.1211 16.5481 17.0168C16.5481 18.1324 16.2093 18.9808 15.5317 19.5622C14.8541 20.1436 14.0152 20.505 13.015 20.6464V22.6262H11.079Z" fill="white"/>
</svg>
