<svg width="11" height="9" viewBox="0 0 11 9" fill="none" xmlns="http://www.w3.org/2000/svg">
<path d="M9.16161 2.81498C9.16541 2.90183 9.16541 2.98472 9.16541 3.07156C9.16922 5.70447 7.23482 8.74395 3.6973 8.74395C2.65394 8.74395 1.62962 8.43211 0.75 7.84789C0.902315 7.86763 1.05463 7.87553 1.20695 7.87553C2.07133 7.87553 2.91288 7.57553 3.59449 7.01894C2.77198 7.00315 2.04849 6.44657 1.79717 5.63341C2.08657 5.69262 2.38358 5.68078 2.66536 5.59789C1.77051 5.41631 1.12698 4.5992 1.12317 3.64788C1.12317 3.63999 1.12317 3.63209 1.12317 3.6242C1.38972 3.77814 1.69055 3.86499 1.99518 3.87288C1.15364 3.28867 0.890892 2.12419 1.40115 1.21235C2.37977 2.45972 3.81915 3.21367 5.36515 3.29656C5.20903 2.60577 5.42227 1.87945 5.9211 1.38998C6.6941 0.636029 7.91262 0.675503 8.64374 1.47682C9.07403 1.38998 9.48908 1.22419 9.86606 0.991293C9.72136 1.45314 9.42054 1.84393 9.02071 2.09261C9.4015 2.04524 9.77468 1.93866 10.125 1.78077C9.86607 2.1834 9.53859 2.53077 9.16161 2.81498Z" fill="#0D358E"/>
</svg>
