<svg width="37" height="37" viewBox="0 0 37 37" fill="none" xmlns="http://www.w3.org/2000/svg">
<mask id="mask0_75_275" style="mask-type:alpha" maskUnits="userSpaceOnUse" x="0" y="0" width="37" height="37">
<rect x="0.787109" y="0.626831" width="35.5321" height="35.5321" fill="#0070B8"/>
</mask>
<g mask="url(#mask0_75_275)">
<path d="M18.5531 24.3149C20.4038 24.3149 21.9768 23.6672 23.2722 22.3717C24.5677 21.0763 25.2154 19.5032 25.2154 17.6526C25.2154 15.802 24.5677 14.2289 23.2722 12.9335C21.9768 11.6381 20.4038 10.9903 18.5531 10.9903C16.7025 10.9903 15.1295 11.6381 13.834 12.9335C12.5386 14.2289 11.8909 15.802 11.8909 17.6526C11.8909 19.5032 12.5386 21.0763 13.834 22.3717C15.1295 23.6672 16.7025 24.3149 18.5531 24.3149ZM18.5531 21.65C17.4427 21.65 16.4989 21.2613 15.7217 20.4841C14.9444 19.7068 14.5558 18.763 14.5558 17.6526C14.5558 16.5422 14.9444 15.5984 15.7217 14.8211C16.4989 14.0439 17.4427 13.6552 18.5531 13.6552C19.6635 13.6552 20.6073 14.0439 21.3846 14.8211C22.1619 15.5984 22.5505 16.5422 22.5505 17.6526C22.5505 18.763 22.1619 19.7068 21.3846 20.4841C20.6073 21.2613 19.6635 21.65 18.5531 21.65ZM18.5531 28.7564C14.9506 28.7564 11.6688 27.7509 8.70777 25.7399C5.74676 23.7288 3.60003 21.0331 2.26758 17.6526C3.60003 14.2721 5.74676 11.5764 8.70777 9.56536C11.6688 7.55434 14.9506 6.54883 18.5531 6.54883C22.1557 6.54883 25.4375 7.55434 28.3985 9.56536C31.3595 11.5764 33.5062 14.2721 34.8387 17.6526C33.5062 21.0331 31.3595 23.7288 28.3985 25.7399C25.4375 27.7509 22.1557 28.7564 18.5531 28.7564Z" fill="#07ABEA"/>
</g>
</svg>
