<svg width="11" height="7" viewBox="0 0 11 7" fill="none" xmlns="http://www.w3.org/2000/svg">
<path d="M9.9319 1.04163C9.82379 0.640069 9.50717 0.323452 9.10561 0.215339C8.37198 0.0145569 5.43748 0.0145569 5.43748 0.0145569C5.43748 0.0145569 2.50298 0.0145569 1.76935 0.207616C1.37551 0.315729 1.05117 0.640069 0.943059 1.04163C0.75 1.77526 0.75 3.29656 0.75 3.29656C0.75 3.29656 0.75 4.82559 0.943059 5.5515C1.05117 5.95306 1.36779 6.26968 1.76935 6.37779C2.5107 6.57857 5.43748 6.57857 5.43748 6.57857C5.43748 6.57857 8.37198 6.57857 9.10561 6.38551C9.50717 6.2774 9.82379 5.96078 9.9319 5.55922C10.125 4.82559 10.125 3.30429 10.125 3.30429C10.125 3.30429 10.1327 1.77526 9.9319 1.04163Z" fill="#0D358E"/>
<path d="M4.50317 4.70209L6.94344 3.29662L4.50317 1.89114V4.70209Z" fill="white"/>
</svg>
