<svg width="100%" height="" viewBox="0 0 18 18" fill="none" xmlns="http://www.w3.org/2000/svg">
<g clip-path="url(#clip0_158_516)">
<path d="M10.9881 17.0429C9.82692 17.0421 8.67877 16.7977 7.61782 16.3257C6.55686 15.8536 5.60666 15.1644 4.82855 14.3024C4.04456 13.4394 3.45305 12.4196 3.09326 11.3106C2.73348 10.2016 2.61365 9.02873 2.74172 7.86987C2.94819 6.06636 3.73496 4.37874 4.98358 3.06108C6.2322 1.74342 7.87508 0.867044 9.66488 0.563897C10.8219 0.385186 12.0027 0.433299 13.1413 0.705553C13.4395 0.782157 13.7117 0.937041 13.93 1.15418C14.1482 1.37132 14.3044 1.64282 14.3825 1.9406C14.4605 2.23837 14.4576 2.5516 14.374 2.84787C14.2904 3.14414 14.1292 3.41269 13.9069 3.62573C10.756 6.50445 11.0296 10.9808 14.4646 13.5831C14.7075 13.7737 14.8948 14.0259 15.0071 14.3135C15.1195 14.6011 15.1527 14.9136 15.1033 15.2183C15.0539 15.5231 14.9237 15.8091 14.7263 16.0465C14.5289 16.2839 14.2715 16.464 13.9809 16.5682C13.0147 16.8839 12.0046 17.0441 10.9881 17.0429V17.0429ZM11.0407 1.84087C10.6527 1.83994 10.2653 1.86928 9.88185 1.92863C8.39172 2.18065 7.02377 2.90988 5.98391 4.00657C4.94406 5.10325 4.28857 6.50803 4.11612 8.00945C4.00833 8.97689 4.10767 9.95619 4.40755 10.8823C4.70742 11.8083 5.20097 12.66 5.85538 13.3806C6.81334 14.4031 8.04743 15.1256 9.40794 15.4604C10.7684 15.7953 12.1969 15.7281 13.52 15.2671C13.577 15.2457 13.6274 15.2096 13.666 15.1625C13.7046 15.1154 13.7301 15.0589 13.7398 14.9988C13.7496 14.9387 13.7433 14.8771 13.7215 14.8202C13.6998 14.7633 13.6634 14.7132 13.616 14.6749C9.51907 11.5806 9.19361 6.04701 12.961 2.61756C13.0042 2.57742 13.0354 2.52602 13.051 2.46914C13.0666 2.41225 13.0661 2.35214 13.0494 2.29555C13.0351 2.23549 13.0045 2.1805 12.9612 2.13653C12.9178 2.09257 12.8633 2.06129 12.8034 2.0461C12.2263 1.90688 11.6344 1.83797 11.0407 1.84087V1.84087Z" fill="#6A6D7C"/>
</g>
<defs>
<clipPath id="clip0_158_516">
<rect width="16.5841" height="16.5841" fill="white" transform="translate(0.623169 0.458984)"/>
</clipPath>
</defs>
</svg>
