<svg width="100%" viewBox="0 0 18 19" fill="none" xmlns="http://www.w3.org/2000/svg">
<path d="M5 15.3021H6.5V13.3021H8.5V11.8021H6.5V9.80212H5V11.8021H3V13.3021H5V15.3021ZM10 14.5521H15V13.0521H10V14.5521ZM10 12.0521H15V10.5521H10V12.0521ZM11.1 8.25212L12.5 6.85212L13.9 8.25212L14.95 7.20212L13.55 5.75212L14.95 4.35212L13.9 3.30212L12.5 4.70212L11.1 3.30212L10.05 4.35212L11.45 5.75212L10.05 7.20212L11.1 8.25212ZM3.25 6.50212H8.25V5.00212H3.25V6.50212ZM2 18.3021C1.45 18.3021 0.979167 18.1063 0.5875 17.7146C0.195833 17.323 0 16.8521 0 16.3021V2.30212C0 1.75212 0.195833 1.28129 0.5875 0.889624C0.979167 0.497957 1.45 0.302124 2 0.302124H16C16.55 0.302124 17.0208 0.497957 17.4125 0.889624C17.8042 1.28129 18 1.75212 18 2.30212V16.3021C18 16.8521 17.8042 17.323 17.4125 17.7146C17.0208 18.1063 16.55 18.3021 16 18.3021H2ZM2 16.3021H16V2.30212H2V16.3021Z" fill="#006998"/>
</svg>
