<svg width="100%" viewBox="0 0 18 21" fill="none" xmlns="http://www.w3.org/2000/svg">
<path d="M2 20.3455C1.45 20.3455 0.979167 20.1496 0.5875 19.758C0.195833 19.3663 0 18.8955 0 18.3455V4.34546C0 3.79546 0.195833 3.32463 0.5875 2.93296C0.979167 2.54129 1.45 2.34546 2 2.34546H6.2C6.41667 1.74546 6.77917 1.26213 7.2875 0.895459C7.79583 0.528792 8.36667 0.345459 9 0.345459C9.63333 0.345459 10.2042 0.528792 10.7125 0.895459C11.2208 1.26213 11.5833 1.74546 11.8 2.34546H16C16.55 2.34546 17.0208 2.54129 17.4125 2.93296C17.8042 3.32463 18 3.79546 18 4.34546V18.3455C18 18.8955 17.8042 19.3663 17.4125 19.758C17.0208 20.1496 16.55 20.3455 16 20.3455H2ZM2 18.3455H16V4.34546H2V18.3455ZM4 16.3455H11V14.3455H4V16.3455ZM4 12.3455H14V10.3455H4V12.3455ZM4 8.34546H14V6.34546H4V8.34546ZM9 3.59546C9.21667 3.59546 9.39583 3.52463 9.5375 3.38296C9.67917 3.24129 9.75 3.06213 9.75 2.84546C9.75 2.62879 9.67917 2.44963 9.5375 2.30796C9.39583 2.16629 9.21667 2.09546 9 2.09546C8.78333 2.09546 8.60417 2.16629 8.4625 2.30796C8.32083 2.44963 8.25 2.62879 8.25 2.84546C8.25 3.06213 8.32083 3.24129 8.4625 3.38296C8.60417 3.52463 8.78333 3.59546 9 3.59546Z" fill="#006998"/>
</svg>
