<svg width="61" height="29" viewBox="0 0 61 29" fill="none" xmlns="http://www.w3.org/2000/svg">
<rect y="0.585449" width="60.1173" height="28.3311" rx="14.1656" fill="#6A6D7C"/>
<circle cx="45.6062" cy="14.751" r="11.056" fill="#ECEDEF"/>
<g clip-path="url(#clip0_158_513)">
<path d="M46.9881 23.0429C45.8269 23.0421 44.6788 22.7977 43.6178 22.3257C42.5569 21.8536 41.6067 21.1644 40.8285 20.3024C40.0446 19.4394 39.453 18.4196 39.0933 17.3106C38.7335 16.2016 38.6136 15.0287 38.7417 13.8699C38.9482 12.0664 39.735 10.3787 40.9836 9.06108C42.2322 7.74342 43.8751 6.86704 45.6649 6.5639C46.8219 6.38519 48.0027 6.4333 49.1413 6.70555C49.4395 6.78216 49.7117 6.93704 49.93 7.15418C50.1482 7.37132 50.3044 7.64282 50.3825 7.9406C50.4605 8.23837 50.4576 8.5516 50.374 8.84787C50.2904 9.14414 50.1292 9.41269 49.9069 9.62573C46.756 12.5044 47.0296 16.9808 50.4646 19.5831C50.7075 19.7737 50.8948 20.0259 51.0071 20.3135C51.1195 20.6011 51.1527 20.9136 51.1033 21.2183C51.0539 21.5231 50.9237 21.8091 50.7263 22.0465C50.5289 22.2839 50.2715 22.464 49.9809 22.5682C49.0147 22.8839 48.0046 23.0441 46.9881 23.0429V23.0429ZM47.0407 7.84087C46.6527 7.83994 46.2653 7.86928 45.8819 7.92863C44.3917 8.18065 43.0238 8.90988 41.9839 10.0066C40.9441 11.1032 40.2886 12.508 40.1161 14.0095C40.0083 14.9769 40.1077 15.9562 40.4075 16.8823C40.7074 17.8083 41.201 18.66 41.8554 19.3806C42.8133 20.4031 44.0474 21.1256 45.4079 21.4604C46.7684 21.7953 48.1969 21.7281 49.52 21.2671C49.577 21.2457 49.6274 21.2096 49.666 21.1625C49.7046 21.1154 49.7301 21.0589 49.7398 20.9988C49.7496 20.9387 49.7433 20.8771 49.7215 20.8202C49.6998 20.7633 49.6634 20.7132 49.616 20.6749C45.5191 17.5806 45.1936 12.047 48.961 8.61756C49.0042 8.57742 49.0354 8.52602 49.051 8.46914C49.0666 8.41225 49.0661 8.35214 49.0494 8.29555C49.0351 8.23549 49.0045 8.1805 48.9612 8.13653C48.9178 8.09257 48.8633 8.06129 48.8034 8.0461C48.2263 7.90688 47.6344 7.83797 47.0407 7.84087V7.84087Z" fill="#6A6D7C"/>
</g>
<defs>
<clipPath id="clip0_158_513">
<rect width="16.5841" height="16.5841" fill="white" transform="translate(36.6232 6.45898)"/>
</clipPath>
</defs>
</svg>
