<svg width="100%"  viewBox="0 0 22 23" fill="none" xmlns="http://www.w3.org/2000/svg">
<path d="M11 0.215576C8.29171 0.217507 5.67979 1.22081 3.66667 3.03249V1.13224C3.66667 0.889128 3.57009 0.65597 3.39818 0.484062C3.22627 0.312153 2.99312 0.215576 2.75 0.215576C2.50689 0.215576 2.27373 0.312153 2.10182 0.484062C1.92991 0.65597 1.83333 0.889128 1.83333 1.13224V3.88224C1.83333 4.61159 2.12306 5.31106 2.63879 5.82679C3.15452 6.34251 3.85399 6.63224 4.58333 6.63224H7.33333C7.57645 6.63224 7.80961 6.53567 7.98151 6.36376C8.15342 6.19185 8.25 5.95869 8.25 5.71558C8.25 5.47246 8.15342 5.2393 7.98151 5.0674C7.80961 4.89549 7.57645 4.79891 7.33333 4.79891H4.58333C4.55242 4.79433 4.52181 4.7879 4.49167 4.77966C5.9854 3.27525 7.95495 2.3359 10.0641 2.12194C12.1733 1.90798 14.2914 2.43268 16.0568 3.60647C17.8222 4.78027 19.1255 6.5304 19.7443 8.55812C20.363 10.5858 20.2588 12.7654 19.4494 14.7249C18.6401 16.6843 17.1758 18.3021 15.3065 19.3022C13.4371 20.3022 11.2787 20.6225 9.1995 20.2083C7.12034 19.7941 5.24937 18.6711 3.90597 17.0311C2.56257 15.391 1.83001 13.3356 1.83333 11.2156C1.83333 10.9725 1.73676 10.7393 1.56485 10.5674C1.39294 10.3955 1.15978 10.2989 0.916667 10.2989C0.673552 10.2989 0.440394 10.3955 0.268485 10.5674C0.0965771 10.7393 0 10.9725 0 11.2156C0 13.3912 0.645139 15.5179 1.85383 17.3269C3.06253 19.1358 4.7805 20.5457 6.79048 21.3783C8.80047 22.2108 11.0122 22.4287 13.146 22.0042C15.2798 21.5798 17.2398 20.5321 18.7782 18.9938C20.3166 17.4554 21.3642 15.4954 21.7886 13.3616C22.2131 11.2278 21.9952 9.01605 21.1627 7.00606C20.3301 4.99607 18.9202 3.27811 17.1113 2.06941C15.3023 0.860715 13.1756 0.215576 11 0.215576V0.215576Z" fill="#006998"/>
</svg>
