<svg width="100%" viewBox="0 0 16 21" fill="none" xmlns="http://www.w3.org/2000/svg">
<path d="M8 12.2588C8.55 12.2588 9.02083 12.063 9.4125 11.6713C9.80417 11.2796 10 10.8088 10 10.2588C10 9.70879 9.80417 9.23796 9.4125 8.84629C9.02083 8.45462 8.55 8.25879 8 8.25879C7.45 8.25879 6.97917 8.45462 6.5875 8.84629C6.19583 9.23796 6 9.70879 6 10.2588C6 10.8088 6.19583 11.2796 6.5875 11.6713C6.97917 12.063 7.45 12.2588 8 12.2588ZM4 16.2588H12V15.6838C12 15.2838 11.8917 14.9171 11.675 14.5838C11.4583 14.2505 11.1583 14.0005 10.775 13.8338C10.3417 13.6505 9.89583 13.5088 9.4375 13.4088C8.97917 13.3088 8.5 13.2588 8 13.2588C7.5 13.2588 7.02083 13.3088 6.5625 13.4088C6.10417 13.5088 5.65833 13.6505 5.225 13.8338C4.84167 14.0005 4.54167 14.2505 4.325 14.5838C4.10833 14.9171 4 15.2838 4 15.6838V16.2588ZM14 20.2588H2C1.45 20.2588 0.979167 20.063 0.5875 19.6713C0.195833 19.2796 0 18.8088 0 18.2588V2.25879C0 1.70879 0.195833 1.23796 0.5875 0.846289C0.979167 0.454622 1.45 0.258789 2 0.258789H10L16 6.25879V18.2588C16 18.8088 15.8042 19.2796 15.4125 19.6713C15.0208 20.063 14.55 20.2588 14 20.2588ZM14 18.2588V7.10879L9.15 2.25879H2V18.2588H14Z" fill="#006998"/>
</svg>
