<svg width="100%" viewBox="0 0 27 20" fill="none" xmlns="http://www.w3.org/2000/svg">
<path d="M21.4839 12.5592V3.01076C21.4839 1.69785 20.4097 0.623657 19.0968 0.623657H2.3871C1.0742 0.623657 0 1.69785 0 3.01076V12.5592C0 13.8721 1.0742 14.9463 2.3871 14.9463H19.0968C20.4097 14.9463 21.4839 13.8721 21.4839 12.5592ZM19.0968 12.5592H2.3871V3.01076H19.0968V12.5592ZM10.742 4.20431C8.76066 4.20431 7.1613 5.80367 7.1613 7.78496C7.1613 9.76625 8.76066 11.3656 10.742 11.3656C12.7232 11.3656 14.3226 9.76625 14.3226 7.78496C14.3226 5.80367 12.7232 4.20431 10.742 4.20431ZM26.2581 4.20431V17.3334C26.2581 18.6463 25.1839 19.7205 23.871 19.7205H3.58065C3.58065 18.5269 3.58065 18.6463 3.58065 17.3334H23.871V4.20431C25.1839 4.20431 25.0646 4.20431 26.2581 4.20431Z" fill="#006998"/>
</svg>
