<svg width="100%" viewBox="0 0 20 21" fill="none" xmlns="http://www.w3.org/2000/svg">
<path d="M7.4 17.6789C7.1 17.1289 6.8375 16.5581 6.6125 15.9664C6.3875 15.3747 6.2 14.7622 6.05 14.1289H3.1C3.58333 14.9622 4.1875 15.6872 4.9125 16.3039C5.6375 16.9206 6.46667 17.3789 7.4 17.6789ZM2.25 12.1289H5.65C5.6 11.7956 5.5625 11.4664 5.5375 11.1414C5.5125 10.8164 5.5 10.4789 5.5 10.1289C5.5 9.77891 5.5125 9.44141 5.5375 9.11641C5.5625 8.79141 5.6 8.46224 5.65 8.12891H2.25C2.16667 8.46224 2.10417 8.79141 2.0625 9.11641C2.02083 9.44141 2 9.77891 2 10.1289C2 10.4789 2.02083 10.8164 2.0625 11.1414C2.10417 11.4664 2.16667 11.7956 2.25 12.1289ZM3.1 6.12891H6.05C6.2 5.49557 6.3875 4.88307 6.6125 4.29141C6.8375 3.69974 7.1 3.12891 7.4 2.57891C6.46667 2.87891 5.6375 3.33724 4.9125 3.95391C4.1875 4.57057 3.58333 5.29557 3.1 6.12891ZM8.1 6.12891H11.9C11.7 5.39557 11.4417 4.70391 11.125 4.05391C10.8083 3.40391 10.4333 2.77891 10 2.17891C9.56667 2.77891 9.19167 3.40391 8.875 4.05391C8.55833 4.70391 8.3 5.39557 8.1 6.12891ZM13.95 6.12891H16.9C16.4167 5.29557 15.8125 4.57057 15.0875 3.95391C14.3625 3.33724 13.5333 2.87891 12.6 2.57891C12.9 3.12891 13.1625 3.69974 13.3875 4.29141C13.6125 4.88307 13.8 5.49557 13.95 6.12891ZM10 20.1289C8.63333 20.1289 7.34167 19.8664 6.125 19.3414C4.90833 18.8164 3.84583 18.0997 2.9375 17.1914C2.02917 16.2831 1.3125 15.2206 0.7875 14.0039C0.2625 12.7872 0 11.4956 0 10.1289C0 8.74557 0.2625 7.44974 0.7875 6.24141C1.3125 5.03307 2.02917 3.97474 2.9375 3.06641C3.84583 2.15807 4.90833 1.44141 6.125 0.916406C7.34167 0.391406 8.63333 0.128906 10 0.128906C11.3833 0.128906 12.6792 0.391406 13.8875 0.916406C15.0958 1.44141 16.1542 2.15807 17.0625 3.06641C17.9708 3.97474 18.6875 5.03307 19.2125 6.24141C19.7375 7.44974 20 8.74557 20 10.1289C20 10.2956 19.9958 10.4622 19.9875 10.6289C19.9792 10.7956 19.9667 10.9622 19.95 11.1289H17.925C17.9583 10.9622 17.9792 10.7997 17.9875 10.6414C17.9958 10.4831 18 10.3122 18 10.1289C18 9.77891 17.9792 9.44141 17.9375 9.11641C17.8958 8.79141 17.8333 8.46224 17.75 8.12891H14.35C14.4 8.46224 14.4375 8.79141 14.4625 9.11641C14.4875 9.44141 14.5 9.77891 14.5 10.1289V10.6414C14.5 10.7997 14.4917 10.9622 14.475 11.1289H12.475C12.4917 10.9622 12.5 10.7997 12.5 10.6414V10.1289C12.5 9.77891 12.4875 9.44141 12.4625 9.11641C12.4375 8.79141 12.4 8.46224 12.35 8.12891H7.65C7.6 8.46224 7.5625 8.79141 7.5375 9.11641C7.5125 9.44141 7.5 9.77891 7.5 10.1289C7.5 10.4789 7.5125 10.8164 7.5375 11.1414C7.5625 11.4664 7.6 11.7956 7.65 12.1289H11V14.1289H8.1C8.3 14.8622 8.55833 15.5539 8.875 16.2039C9.19167 16.8539 9.56667 17.4789 10 18.0789C10.1833 17.8122 10.3583 17.5414 10.525 17.2664C10.6917 16.9914 10.85 16.7122 11 16.4289V20.0789C10.8333 20.0956 10.6708 20.1081 10.5125 20.1164C10.3542 20.1247 10.1833 20.1289 10 20.1289ZM17.95 19.5039L15 16.5539V18.7789H13V13.1289H18.65V15.1289H16.4L19.35 18.0789L17.95 19.5039Z" fill="#006998"/>
</svg>
