<svg width="100%" viewBox="0 0 22 17" fill="none" xmlns="http://www.w3.org/2000/svg">
<path d="M0 16.8888V12.8888C0 12.3221 0.195833 11.8471 0.5875 11.4638C0.979167 11.0805 1.45 10.8888 2 10.8888H5.275C5.60833 10.8888 5.925 10.9721 6.225 11.1388C6.525 11.3055 6.76667 11.5305 6.95 11.8138C7.43333 12.4638 8.02917 12.9721 8.7375 13.3388C9.44583 13.7055 10.2 13.8888 11 13.8888C11.8167 13.8888 12.5792 13.7055 13.2875 13.3388C13.9958 12.9721 14.5833 12.4638 15.05 11.8138C15.2667 11.5305 15.5208 11.3055 15.8125 11.1388C16.1042 10.9721 16.4083 10.8888 16.725 10.8888H20C20.5667 10.8888 21.0417 11.0805 21.425 11.4638C21.8083 11.8471 22 12.3221 22 12.8888V16.8888H15V14.6138C14.4167 15.0305 13.7875 15.3471 13.1125 15.5638C12.4375 15.7805 11.7333 15.8888 11 15.8888C10.2833 15.8888 9.58333 15.7763 8.9 15.5513C8.21667 15.3263 7.58333 15.0055 7 14.5888V16.8888H0ZM11 12.8888C10.3667 12.8888 9.76667 12.743 9.2 12.4513C8.63333 12.1596 8.15833 11.7555 7.775 11.2388C7.49167 10.8221 7.1375 10.493 6.7125 10.2513C6.2875 10.0096 5.825 9.88879 5.325 9.88879C5.69167 9.27213 6.46667 8.78463 7.65 8.42629C8.83333 8.06796 9.95 7.88879 11 7.88879C12.05 7.88879 13.1667 8.06796 14.35 8.42629C15.5333 8.78463 16.3083 9.27213 16.675 9.88879C16.1917 9.88879 15.7333 10.0096 15.3 10.2513C14.8667 10.493 14.5083 10.8221 14.225 11.2388C13.8583 11.7721 13.3917 12.1805 12.825 12.4638C12.2583 12.7471 11.65 12.8888 11 12.8888ZM3 9.88879C2.16667 9.88879 1.45833 9.59713 0.875 9.01379C0.291667 8.43046 0 7.72213 0 6.88879C0 6.03879 0.291667 5.32629 0.875 4.75129C1.45833 4.17629 2.16667 3.88879 3 3.88879C3.85 3.88879 4.5625 4.17629 5.1375 4.75129C5.7125 5.32629 6 6.03879 6 6.88879C6 7.72213 5.7125 8.43046 5.1375 9.01379C4.5625 9.59713 3.85 9.88879 3 9.88879ZM19 9.88879C18.1667 9.88879 17.4583 9.59713 16.875 9.01379C16.2917 8.43046 16 7.72213 16 6.88879C16 6.03879 16.2917 5.32629 16.875 4.75129C17.4583 4.17629 18.1667 3.88879 19 3.88879C19.85 3.88879 20.5625 4.17629 21.1375 4.75129C21.7125 5.32629 22 6.03879 22 6.88879C22 7.72213 21.7125 8.43046 21.1375 9.01379C20.5625 9.59713 19.85 9.88879 19 9.88879ZM11 6.88879C10.1667 6.88879 9.45833 6.59713 8.875 6.01379C8.29167 5.43046 8 4.72213 8 3.88879C8 3.03879 8.29167 2.32629 8.875 1.75129C9.45833 1.17629 10.1667 0.888794 11 0.888794C11.85 0.888794 12.5625 1.17629 13.1375 1.75129C13.7125 2.32629 14 3.03879 14 3.88879C14 4.72213 13.7125 5.43046 13.1375 6.01379C12.5625 6.59713 11.85 6.88879 11 6.88879Z" fill="#006998"/>
</svg>
