<svg width="100%" viewBox="0 0 22 23" fill="none" xmlns="http://www.w3.org/2000/svg">
<!-- <mask id="mask0_392_984" style="mask-type:alpha" maskUnits="userSpaceOnUse" x="0" y="0">
<rect y="0.128906" width="24" height="24" fill="#D9D9D9"/>
</mask>
<g mask="url(#mask0_392_984)"> -->
<path d="M14.5 23.1289C14.0833 23.1289 13.7291 22.9831 13.4375 22.6914C13.1458 22.3997 13 22.0456 13 21.6289V14.6289C13 14.2122 13.1458 13.8581 13.4375 13.5664C13.7291 13.2747 14.0833 13.1289 14.5 13.1289H21.5C21.9166 13.1289 22.2708 13.2747 22.5625 13.5664C22.8541 13.8581 23 14.2122 23 14.6289V21.6289C23 22.0456 22.8541 22.3997 22.5625 22.6914C22.2708 22.9831 21.9166 23.1289 21.5 23.1289H14.5ZM14.5 21.6289H21.5V20.8289C21.0833 20.3122 20.575 19.8997 19.975 19.5914C19.375 19.2831 18.7166 19.1289 18 19.1289C17.2833 19.1289 16.625 19.2831 16.025 19.5914C15.425 19.8997 14.9166 20.3122 14.5 20.8289V21.6289ZM18 18.1289C18.4166 18.1289 18.7708 17.9831 19.0625 17.6914C19.3541 17.3997 19.5 17.0456 19.5 16.6289C19.5 16.2122 19.3541 15.8581 19.0625 15.5664C18.7708 15.2747 18.4166 15.1289 18 15.1289C17.5833 15.1289 17.2291 15.2747 16.9375 15.5664C16.6458 15.8581 16.5 16.2122 16.5 16.6289C16.5 17.0456 16.6458 17.3997 16.9375 17.6914C17.2291 17.9831 17.5833 18.1289 18 18.1289ZM12.05 8.62891C11.0833 8.62891 10.2583 8.97057 9.57495 9.65391C8.89162 10.3372 8.54995 11.1622 8.54995 12.1289C8.54995 12.9289 8.77495 13.6289 9.22495 14.2289C9.67495 14.8289 10.2666 15.2456 11 15.4789V13.2289C10.8666 13.0956 10.7583 12.9247 10.675 12.7164C10.5916 12.5081 10.55 12.3122 10.55 12.1289C10.55 11.7122 10.6958 11.3581 10.9875 11.0664C11.2791 10.7747 11.6333 10.6289 12.05 10.6289C12.2833 10.6289 12.4916 10.6747 12.675 10.7664C12.8583 10.8581 13.0166 10.9789 13.15 11.1289H15.4C15.1833 10.3956 14.7708 9.79557 14.1625 9.32891C13.5541 8.86224 12.85 8.62891 12.05 8.62891ZM9.24995 22.1289L8.84995 18.9289C8.63329 18.8456 8.42912 18.7456 8.23745 18.6289C8.04578 18.5122 7.85828 18.3872 7.67495 18.2539L4.69995 19.5039L1.94995 14.7539L4.52495 12.8039C4.50828 12.6872 4.49995 12.5747 4.49995 12.4664V11.7914C4.49995 11.6831 4.50828 11.5706 4.52495 11.4539L1.94995 9.50391L4.69995 4.75391L7.67495 6.00391C7.85828 5.87057 8.04995 5.74557 8.24995 5.62891C8.44995 5.51224 8.64995 5.41224 8.84995 5.32891L9.24995 2.12891H14.75L15.15 5.32891C15.3666 5.41224 15.5708 5.51224 15.7625 5.62891C15.9541 5.74557 16.1416 5.87057 16.325 6.00391L19.3 4.75391L22.05 9.50391L19.925 11.1289H17.4C17.3833 11.0456 17.3666 10.9581 17.35 10.8664C17.3333 10.7747 17.3083 10.6872 17.275 10.6039L19.425 8.97891L18.45 7.27891L15.975 8.32891C15.6083 7.94557 15.2041 7.62474 14.7625 7.36641C14.3208 7.10807 13.8416 6.91224 13.325 6.77891L13 4.12891H11.025L10.675 6.77891C10.1583 6.91224 9.67912 7.10807 9.23745 7.36641C8.79579 7.62474 8.39162 7.93724 8.02495 8.30391L5.54995 7.27891L4.57495 8.97891L6.72495 10.5789C6.64162 10.8289 6.58328 11.0789 6.54995 11.3289C6.51662 11.5789 6.49995 11.8456 6.49995 12.1289C6.49995 12.3956 6.51662 12.6539 6.54995 12.9039C6.58328 13.1539 6.64162 13.4039 6.72495 13.6539L4.57495 15.2789L5.54995 16.9789L8.02495 15.9289C8.42495 16.3456 8.87495 16.6956 9.37495 16.9789C9.87495 17.2622 10.4166 17.4456 11 17.5289V22.1289H9.24995Z" fill="#006998"/>
<!-- </g> -->
</svg>
