<svg width="15" height="17" viewBox="0 0 15 17" fill="none" xmlns="http://www.w3.org/2000/svg">
<path d="M1.66667 16.8334C1.20833 16.8334 0.815972 16.6702 0.489583 16.3438C0.163194 16.0174 0 15.6251 0 15.1667V3.50008H1.66667V15.1667H10.8333V16.8334H1.66667ZM5 13.5001C4.54167 13.5001 4.14931 13.3369 3.82292 13.0105C3.49653 12.6841 3.33333 12.2917 3.33333 11.8334V1.83341C3.33333 1.37508 3.49653 0.98272 3.82292 0.656331C4.14931 0.329942 4.54167 0.166748 5 0.166748H12.5C12.9583 0.166748 13.3507 0.329942 13.6771 0.656331C14.0035 0.98272 14.1667 1.37508 14.1667 1.83341V11.8334C14.1667 12.2917 14.0035 12.6841 13.6771 13.0105C13.3507 13.3369 12.9583 13.5001 12.5 13.5001H5ZM5 11.8334H12.5V1.83341H5V11.8334Z" fill="#ffffff"/>
</svg>
