<svg width="17" height="17" viewBox="0 0 17 17" fill="none" xmlns="http://www.w3.org/2000/svg">
<path d="M3.49999 10.1666H10.1667V8.49996H3.49999V10.1666ZM3.49999 7.66663H13.5V5.99996H3.49999V7.66663ZM3.49999 5.16663H13.5V3.49996H3.49999V5.16663ZM0.166656 16.8333V1.83329C0.166656 1.37496 0.329851 0.982598 0.65624 0.656209C0.982629 0.32982 1.37499 0.166626 1.83332 0.166626H15.1667C15.625 0.166626 16.0174 0.32982 16.3437 0.656209C16.6701 0.982598 16.8333 1.37496 16.8333 1.83329V11.8333C16.8333 12.2916 16.6701 12.684 16.3437 13.0104C16.0174 13.3368 15.625 13.5 15.1667 13.5H3.49999L0.166656 16.8333ZM2.79166 11.8333H15.1667V1.83329H1.83332V12.7708L2.79166 11.8333Z" fill="#001848"/>
</svg>
