<svg width="34" height="33" viewBox="0 0 34 33" fill="none" xmlns="http://www.w3.org/2000/svg">
<mask id="mask0_342_2097" style="mask-type:alpha" maskUnits="userSpaceOnUse" x="0" y="0" width="34" height="33">
<rect x="0.581543" width="33" height="33" fill="#D9D9D9"/>
</mask>
<g mask="url(#mask0_342_2097)">
<path d="M15.7408 28.875V25.9188C14.5262 25.6438 13.4778 25.1167 12.5955 24.3375C11.7132 23.5583 11.0658 22.4583 10.6533 21.0375L13.1971 20.0063C13.5408 21.1063 14.0507 21.9427 14.7268 22.5156C15.4028 23.0885 16.2908 23.375 17.3908 23.375C18.3304 23.375 19.1268 23.163 19.7799 22.7391C20.433 22.3151 20.7596 21.6562 20.7596 20.7625C20.7596 19.9604 20.5075 19.3245 20.0033 18.8547C19.4992 18.3849 18.3304 17.8521 16.4971 17.2563C14.5262 16.6375 13.1742 15.8984 12.4408 15.0391C11.7075 14.1797 11.3408 13.1313 11.3408 11.8938C11.3408 10.4042 11.8221 9.24687 12.7846 8.42188C13.7471 7.59687 14.7325 7.12708 15.7408 7.0125V4.125H18.4908V7.0125C19.6367 7.19583 20.582 7.61406 21.3268 8.26719C22.0716 8.92031 22.6158 9.71667 22.9596 10.6562L20.4158 11.7563C20.1408 11.0229 19.7512 10.4729 19.2471 10.1062C18.7429 9.73958 18.0554 9.55625 17.1846 9.55625C16.1762 9.55625 15.4085 9.77969 14.8814 10.2266C14.3544 10.6734 14.0908 11.2292 14.0908 11.8938C14.0908 12.65 14.4346 13.2458 15.1221 13.6813C15.8096 14.1167 17.0012 14.575 18.6971 15.0563C20.2783 15.5146 21.4757 16.2422 22.2893 17.2391C23.1028 18.2359 23.5096 19.3875 23.5096 20.6938C23.5096 22.3208 23.0283 23.5583 22.0658 24.4062C21.1033 25.2542 19.9117 25.7812 18.4908 25.9875V28.875H15.7408Z" fill="white"/>
</g>
</svg>
