<svg width="33" height="33" viewBox="0 0 33 33" fill="none" xmlns="http://www.w3.org/2000/svg">
<mask id="mask0_340_1798" style="mask-type:alpha" maskUnits="userSpaceOnUse" x="0" y="0" width="33" height="33">
<rect width="33" height="33" fill="#D9D9D9"/>
</mask>
<g mask="url(#mask0_340_1798)">
<path d="M4.125 27.5C3.36875 27.5 2.72135 27.2307 2.18281 26.6922C1.64427 26.1536 1.375 25.5063 1.375 24.75V9.625H4.125V24.75H27.5V27.5H4.125ZM9.625 22C8.86875 22 8.22135 21.7307 7.68281 21.1922C7.14427 20.6536 6.875 20.0063 6.875 19.25V8.25C6.875 7.49375 7.14427 6.84635 7.68281 6.30781C8.22135 5.76927 8.86875 5.5 9.625 5.5H28.875C29.6312 5.5 30.2786 5.76927 30.8172 6.30781C31.3557 6.84635 31.625 7.49375 31.625 8.25V19.25C31.625 20.0063 31.3557 20.6536 30.8172 21.1922C30.2786 21.7307 29.6312 22 28.875 22H9.625ZM12.375 19.25C12.375 18.4937 12.1057 17.8464 11.5672 17.3078C11.0286 16.7693 10.3812 16.5 9.625 16.5V19.25H12.375ZM26.125 19.25H28.875V16.5C28.1187 16.5 27.4713 16.7693 26.9328 17.3078C26.3943 17.8464 26.125 18.4937 26.125 19.25ZM19.25 17.875C20.3958 17.875 21.3698 17.474 22.1719 16.6719C22.974 15.8698 23.375 14.8958 23.375 13.75C23.375 12.6042 22.974 11.6302 22.1719 10.8281C21.3698 10.026 20.3958 9.625 19.25 9.625C18.1042 9.625 17.1302 10.026 16.3281 10.8281C15.526 11.6302 15.125 12.6042 15.125 13.75C15.125 14.8958 15.526 15.8698 16.3281 16.6719C17.1302 17.474 18.1042 17.875 19.25 17.875ZM9.625 11C10.3812 11 11.0286 10.7307 11.5672 10.1922C12.1057 9.65365 12.375 9.00625 12.375 8.25H9.625V11ZM28.875 11V8.25H26.125C26.125 9.00625 26.3943 9.65365 26.9328 10.1922C27.4713 10.7307 28.1187 11 28.875 11Z" fill="white"/>
</g>
</svg>
