<svg width="34" height="33" viewBox="0 0 34 33" fill="none" xmlns="http://www.w3.org/2000/svg">
<mask id="mask0_342_2243" style="mask-type:alpha" maskUnits="userSpaceOnUse" x="0" y="0" width="34" height="33">
<rect x="0.290527" width="33" height="33" fill="#D9D9D9"/>
</mask>
<g mask="url(#mask0_342_2243)">
<path d="M16.7895 31.6255C14.2229 31.6255 11.8625 31.0411 9.7083 29.8724C7.55413 28.7036 5.78955 27.1453 4.41455 25.1974V28.8755H1.66455V20.6255H9.91455V23.3755H6.51143C7.61143 25.0255 9.0609 26.3547 10.8599 27.363C12.6588 28.3713 14.6354 28.8755 16.7895 28.8755C18.5083 28.8755 20.1182 28.5489 21.6192 27.8958C23.1203 27.2427 24.4265 26.3604 25.538 25.2489C26.6494 24.1375 27.5317 22.8312 28.1849 21.3302C28.838 19.8291 29.1645 18.2192 29.1645 16.5005H31.9145C31.9145 18.5859 31.5192 20.5453 30.7286 22.3786C29.938 24.2119 28.8552 25.8161 27.4802 27.1911C26.1052 28.5661 24.501 29.6489 22.6677 30.4395C20.8343 31.2302 18.875 31.6255 16.7895 31.6255ZM15.552 26.1255V24.338C14.475 24.0859 13.5984 23.6218 12.9224 22.9458C12.2463 22.2698 11.7479 21.3817 11.427 20.2817L13.6958 19.388C13.9708 20.3276 14.4005 21.0323 14.9849 21.502C15.5692 21.9718 16.2396 22.2067 16.9958 22.2067C17.7521 22.2067 18.3994 22.0291 18.938 21.6739C19.4765 21.3187 19.7458 20.763 19.7458 20.0067C19.7458 19.3422 19.4651 18.8036 18.9036 18.3911C18.3422 17.9786 17.3396 17.5088 15.8958 16.9817C14.5437 16.5005 13.5526 15.9276 12.9224 15.263C12.2922 14.5984 11.977 13.7276 11.977 12.6505C11.977 11.7109 12.3036 10.8573 12.9567 10.0896C13.6099 9.32184 14.4979 8.8234 15.6208 8.59424V6.87549H18.0271V8.59424C18.8521 8.66299 19.6026 8.99528 20.2786 9.59111C20.9547 10.1869 21.4187 10.8859 21.6708 11.688L19.4708 12.5817C19.2875 12.0547 18.9895 11.6135 18.577 11.2583C18.1645 10.9031 17.5916 10.7255 16.8583 10.7255C16.0562 10.7255 15.4432 10.8974 15.0192 11.2411C14.5953 11.5849 14.3833 12.0547 14.3833 12.6505C14.3833 13.2463 14.6468 13.7161 15.1739 14.0599C15.701 14.4036 16.6521 14.8047 18.0271 15.263C19.677 15.8588 20.7771 16.5578 21.327 17.3599C21.877 18.1619 22.1521 19.0442 22.1521 20.0067C22.1521 20.6713 22.0375 21.2557 21.8083 21.7599C21.5791 22.264 21.2755 22.6937 20.8974 23.0489C20.5192 23.4041 20.0781 23.6906 19.5739 23.9083C19.0698 24.126 18.5312 24.2922 17.9583 24.4067V26.1255H15.552ZM1.66455 16.5005C1.66455 14.4151 2.05986 12.4557 2.85049 10.6224C3.64111 8.78903 4.72393 7.18486 6.09893 5.80986C7.47393 4.43486 9.07809 3.35205 10.9114 2.56143C12.7448 1.7708 14.7041 1.37549 16.7895 1.37549C19.3562 1.37549 21.7166 1.95986 23.8708 3.12861C26.025 4.29736 27.7895 5.8557 29.1645 7.80361V4.12549H31.9145V12.3755H23.6645V9.62549H27.0677C25.9677 7.97549 24.5182 6.64632 22.7192 5.63799C20.9203 4.62965 18.9437 4.12549 16.7895 4.12549C15.0708 4.12549 13.4609 4.45205 11.9599 5.10518C10.4588 5.7583 9.15257 6.64059 8.04111 7.75205C6.92966 8.86351 6.04736 10.1698 5.39424 11.6708C4.74111 13.1718 4.41455 14.7817 4.41455 16.5005H1.66455Z" fill="white"/>
</g>
</svg>
