<svg width="34" height="33" viewBox="0 0 34 33" fill="none" xmlns="http://www.w3.org/2000/svg">
<mask id="mask0_342_2143" style="mask-type:alpha" maskUnits="userSpaceOnUse" x="0" y="0" width="34" height="33">
<rect x="0.163086" width="33" height="33" fill="#D9D9D9"/>
</mask>
<g mask="url(#mask0_342_2143)">
<path d="M19.7568 29.425C19.2298 29.9521 18.5766 30.2156 17.7975 30.2156C17.0183 30.2156 16.3652 29.9521 15.8381 29.425L3.73809 17.325C3.486 17.0729 3.28548 16.775 3.13652 16.4312C2.98757 16.0875 2.91309 15.7208 2.91309 15.3313V5.5C2.91309 4.74375 3.18236 4.09635 3.7209 3.55781C4.25944 3.01927 4.90684 2.75 5.66309 2.75H15.4943C15.8839 2.75 16.2506 2.82448 16.5943 2.97344C16.9381 3.1224 17.236 3.32292 17.4881 3.575L29.5881 15.7094C30.1152 16.2365 30.3787 16.8839 30.3787 17.6516C30.3787 18.4193 30.1152 19.0667 29.5881 19.5938L19.7568 29.425ZM9.10059 11C9.6735 11 10.1605 10.7995 10.5615 10.3984C10.9626 9.9974 11.1631 9.51042 11.1631 8.9375C11.1631 8.36458 10.9626 7.8776 10.5615 7.47656C10.1605 7.07552 9.6735 6.875 9.10059 6.875C8.52767 6.875 8.04069 7.07552 7.63965 7.47656C7.23861 7.8776 7.03809 8.36458 7.03809 8.9375C7.03809 9.51042 7.23861 9.9974 7.63965 10.3984C8.04069 10.7995 8.52767 11 9.10059 11Z" fill="white"/>
</g>
</svg>
