<svg width="19" height="18" viewBox="0 0 19 18" fill="none" xmlns="http://www.w3.org/2000/svg">
<path d="M2.5 18C1.95 18 1.47917 17.8042 1.0875 17.4125C0.695833 17.0208 0.5 16.55 0.5 16V2C0.5 1.45 0.695833 0.979167 1.0875 0.5875C1.47917 0.195833 1.95 0 2.5 0H16.5C17.05 0 17.5208 0.195833 17.9125 0.5875C18.3042 0.979167 18.5 1.45 18.5 2V16C18.5 16.55 18.3042 17.0208 17.9125 17.4125C17.5208 17.8042 17.05 18 16.5 18H2.5ZM2.5 16H16.5V4H2.5V16ZM4.5 9V7H14.5V9H4.5ZM4.5 13V11H10.5V13H4.5Z" fill="#0070B8"/>
</svg>
