<svg width="16" height="17" viewBox="0 0 16 17" fill="none" xmlns="http://www.w3.org/2000/svg">
<path d="M8 10.1666C7.76389 10.1666 7.56597 10.0868 7.40625 9.92704C7.24653 9.76732 7.16667 9.5694 7.16667 9.33329C7.16667 9.09718 7.24653 8.89927 7.40625 8.73954C7.56597 8.57982 7.76389 8.49996 8 8.49996C8.23611 8.49996 8.43403 8.57982 8.59375 8.73954C8.75347 8.89927 8.83333 9.09718 8.83333 9.33329C8.83333 9.5694 8.75347 9.76732 8.59375 9.92704C8.43403 10.0868 8.23611 10.1666 8 10.1666ZM4.66667 10.1666C4.43056 10.1666 4.23264 10.0868 4.07292 9.92704C3.91319 9.76732 3.83333 9.5694 3.83333 9.33329C3.83333 9.09718 3.91319 8.89927 4.07292 8.73954C4.23264 8.57982 4.43056 8.49996 4.66667 8.49996C4.90278 8.49996 5.10069 8.57982 5.26042 8.73954C5.42014 8.89927 5.5 9.09718 5.5 9.33329C5.5 9.5694 5.42014 9.76732 5.26042 9.92704C5.10069 10.0868 4.90278 10.1666 4.66667 10.1666ZM11.3333 10.1666C11.0972 10.1666 10.8993 10.0868 10.7396 9.92704C10.5799 9.76732 10.5 9.5694 10.5 9.33329C10.5 9.09718 10.5799 8.89927 10.7396 8.73954C10.8993 8.57982 11.0972 8.49996 11.3333 8.49996C11.5694 8.49996 11.7674 8.57982 11.9271 8.73954C12.0868 8.89927 12.1667 9.09718 12.1667 9.33329C12.1667 9.5694 12.0868 9.76732 11.9271 9.92704C11.7674 10.0868 11.5694 10.1666 11.3333 10.1666ZM8 13.5C7.76389 13.5 7.56597 13.4201 7.40625 13.2604C7.24653 13.1007 7.16667 12.9027 7.16667 12.6666C7.16667 12.4305 7.24653 12.2326 7.40625 12.0729C7.56597 11.9132 7.76389 11.8333 8 11.8333C8.23611 11.8333 8.43403 11.9132 8.59375 12.0729C8.75347 12.2326 8.83333 12.4305 8.83333 12.6666C8.83333 12.9027 8.75347 13.1007 8.59375 13.2604C8.43403 13.4201 8.23611 13.5 8 13.5ZM4.66667 13.5C4.43056 13.5 4.23264 13.4201 4.07292 13.2604C3.91319 13.1007 3.83333 12.9027 3.83333 12.6666C3.83333 12.4305 3.91319 12.2326 4.07292 12.0729C4.23264 11.9132 4.43056 11.8333 4.66667 11.8333C4.90278 11.8333 5.10069 11.9132 5.26042 12.0729C5.42014 12.2326 5.5 12.4305 5.5 12.6666C5.5 12.9027 5.42014 13.1007 5.26042 13.2604C5.10069 13.4201 4.90278 13.5 4.66667 13.5ZM11.3333 13.5C11.0972 13.5 10.8993 13.4201 10.7396 13.2604C10.5799 13.1007 10.5 12.9027 10.5 12.6666C10.5 12.4305 10.5799 12.2326 10.7396 12.0729C10.8993 11.9132 11.0972 11.8333 11.3333 11.8333C11.5694 11.8333 11.7674 11.9132 11.9271 12.0729C12.0868 12.2326 12.1667 12.4305 12.1667 12.6666C12.1667 12.9027 12.0868 13.1007 11.9271 13.2604C11.7674 13.4201 11.5694 13.5 11.3333 13.5ZM2.16667 16.8333C1.70833 16.8333 1.31597 16.6701 0.989583 16.3437C0.663194 16.0173 0.5 15.625 0.5 15.1666V3.49996C0.5 3.04163 0.663194 2.64927 0.989583 2.32288C1.31597 1.99649 1.70833 1.83329 2.16667 1.83329H3V0.166626H4.66667V1.83329H11.3333V0.166626H13V1.83329H13.8333C14.2917 1.83329 14.684 1.99649 15.0104 2.32288C15.3368 2.64927 15.5 3.04163 15.5 3.49996V15.1666C15.5 15.625 15.3368 16.0173 15.0104 16.3437C14.684 16.6701 14.2917 16.8333 13.8333 16.8333H2.16667ZM2.16667 15.1666H13.8333V6.83329H2.16667V15.1666Z" fill="#006998"/>
</svg>
