<svg width="21" height="19" viewBox="0 0 21 19" fill="none" xmlns="http://www.w3.org/2000/svg">
<path d="M5.5 4V2C5.5 1.45 5.69583 0.979167 6.0875 0.5875C6.47917 0.195833 6.95 0 7.5 0H13.5C14.05 0 14.5208 0.195833 14.9125 0.5875C15.3042 0.979167 15.5 1.45 15.5 2V4H18.5C19.05 4 19.5208 4.19583 19.9125 4.5875C20.3042 4.97917 20.5 5.45 20.5 6V17C20.5 17.55 20.3042 18.0208 19.9125 18.4125C19.5208 18.8042 19.05 19 18.5 19H2.5C1.95 19 1.47917 18.8042 1.0875 18.4125C0.695833 18.0208 0.5 17.55 0.5 17V6C0.5 5.45 0.695833 4.97917 1.0875 4.5875C1.47917 4.19583 1.95 4 2.5 4H5.5ZM7.5 4H13.5V2H7.5V4ZM2.5 15H18.5V12H2.5V15Z" fill="#001848"/>
</svg>
