<svg width="16" height="15" viewBox="0 0 16 15" fill="none" xmlns="http://www.w3.org/2000/svg">
<path d="M2 15C1.5875 15 1.23438 14.8531 0.940625 14.5594C0.646875 14.2656 0.5 13.9125 0.5 13.5V5.25C0.5 4.8375 0.646875 4.48438 0.940625 4.19063C1.23438 3.89688 1.5875 3.75 2 3.75H5.75V1.5C5.75 1.0875 5.89687 0.734375 6.19063 0.440625C6.48438 0.146875 6.8375 0 7.25 0H8.75C9.1625 0 9.51562 0.146875 9.80938 0.440625C10.1031 0.734375 10.25 1.0875 10.25 1.5V3.75H14C14.4125 3.75 14.7656 3.89688 15.0594 4.19063C15.3531 4.48438 15.5 4.8375 15.5 5.25V13.5C15.5 13.9125 15.3531 14.2656 15.0594 14.5594C14.7656 14.8531 14.4125 15 14 15H2ZM3.5 12H8V11.6625C8 11.45 7.94062 11.2531 7.82187 11.0719C7.70312 10.8906 7.5375 10.75 7.325 10.65C7.075 10.5375 6.82188 10.4531 6.56563 10.3969C6.30938 10.3406 6.0375 10.3125 5.75 10.3125C5.4625 10.3125 5.19062 10.3406 4.93437 10.3969C4.67812 10.4531 4.425 10.5375 4.175 10.65C3.9625 10.75 3.79688 10.8906 3.67813 11.0719C3.55938 11.2531 3.5 11.45 3.5 11.6625V12ZM9.5 10.875H12.5V9.75H9.5V10.875ZM5.75 9.75C6.0625 9.75 6.32812 9.64062 6.54688 9.42188C6.76562 9.20312 6.875 8.9375 6.875 8.625C6.875 8.3125 6.76562 8.04688 6.54688 7.82812C6.32812 7.60938 6.0625 7.5 5.75 7.5C5.4375 7.5 5.17188 7.60938 4.95312 7.82812C4.73438 8.04688 4.625 8.3125 4.625 8.625C4.625 8.9375 4.73438 9.20312 4.95312 9.42188C5.17188 9.64062 5.4375 9.75 5.75 9.75ZM9.5 8.625H12.5V7.5H9.5V8.625ZM7.25 5.25H8.75V1.5H7.25V5.25Z" fill="#006998"/>
</svg>
