<svg width="18" height="20" viewBox="0 0 18 20" fill="none" xmlns="http://www.w3.org/2000/svg">
<g id="Frame 279">
<path id="female" d="M2.85556 2.81789L3.77235 4.40581L5.36027 3.48902L6.27706 5.07694L4.68914 5.99373L5.65176 7.66105C6.8041 7.24275 7.94932 7.2476 9.08743 7.6756C10.2255 8.10359 11.104 8.85351 11.7228 9.92536C12.4181 11.1295 12.5815 12.3981 12.2131 13.7312C11.8447 15.0642 11.0585 16.0784 9.85429 16.7736C8.65011 17.4688 7.37871 17.6427 6.04007 17.2952C4.70143 16.9477 3.68449 16.1719 2.98926 14.9677C2.37043 13.8958 2.16022 12.7601 2.35861 11.5605C2.55701 10.3609 3.12542 9.36664 4.06384 8.57783L3.10122 6.91052L1.5133 7.8273L0.59651 6.23938L2.18443 5.3226L1.26764 3.73468L2.85556 2.81789ZM5.72875 9.62796C4.96125 10.0711 4.46285 10.7205 4.23355 11.5763C4.00425 12.4321 4.11115 13.2437 4.55426 14.0112C4.99738 14.7787 5.64682 15.2771 6.5026 15.5064C7.35837 15.7357 8.17001 15.6288 8.9375 15.1857C9.705 14.7426 10.2034 14.0931 10.4327 13.2374C10.662 12.3816 10.5551 11.5699 10.112 10.8024C9.66887 10.035 9.01943 9.53655 8.16365 9.30725C7.30788 9.07795 6.49624 9.18485 5.72875 9.62796Z" fill="#006998"/>
<path id="male" d="M17.2159 2.53772V8.15317H15.344V5.7432L11.6238 9.44004C11.9202 9.8768 12.1464 10.3409 12.3023 10.8322C12.4583 11.3236 12.5363 11.8344 12.5363 12.3648C12.5363 13.7998 12.0372 15.0165 11.0389 16.0148C10.0406 17.0131 8.82389 17.5122 7.38883 17.5122C5.95377 17.5122 4.73709 17.0131 3.73879 16.0148C2.74048 15.0165 2.24133 13.7998 2.24133 12.3648C2.24133 10.9297 2.74048 9.71301 3.73879 8.71471C4.73709 7.71641 5.95377 7.21726 7.38883 7.21726C7.90358 7.21726 8.41053 7.29135 8.90968 7.43954C9.40883 7.58772 9.86898 7.8178 10.2901 8.12977L14.0104 4.40954H11.6004V2.53772H17.2159ZM7.38883 9.08908C6.48412 9.08908 5.71199 9.40884 5.07245 10.0484C4.43292 10.6879 4.11315 11.46 4.11315 12.3648C4.11315 13.2695 4.43292 14.0416 5.07245 14.6811C5.71199 15.3207 6.48412 15.6404 7.38883 15.6404C8.29354 15.6404 9.06566 15.3207 9.7052 14.6811C10.3447 14.0416 10.6645 13.2695 10.6645 12.3648C10.6645 11.46 10.3447 10.6879 9.7052 10.0484C9.06566 9.40884 8.29354 9.08908 7.38883 9.08908Z" fill="#006998"/>
</g>
</svg>
