<svg width="14" height="14" viewBox="0 0 14 14" fill="none" xmlns="http://www.w3.org/2000/svg">
<g id="Group">
<path id="Vector" d="M13.6263 4.37109C13.5953 3.68324 13.4842 3.2126 13.3265 2.80143C13.1611 2.37734 12.9415 2.01531 12.5822 1.65845C12.223 1.3016 11.8638 1.07662 11.44 0.913708C11.029 0.75338 10.5587 0.644771 9.87124 0.61374C9.18121 0.582709 8.96154 0.574951 7.20933 0.574951C5.45454 0.574951 5.23487 0.582709 4.54742 0.61374C3.85998 0.644771 3.38962 0.755966 2.97871 0.913708C2.55229 1.07921 2.19047 1.29901 1.83383 1.65845C1.47719 2.0179 1.25235 2.37734 1.08953 2.80143C0.931883 3.2126 0.820755 3.68324 0.789742 4.37109C0.75873 5.06153 0.750977 5.28134 0.750977 7.0346C0.750977 8.79044 0.75873 9.01025 0.789742 9.6981C0.820755 10.386 0.931883 10.8566 1.08953 11.2678C1.25493 11.6919 1.4746 12.0539 1.83383 12.4107C2.19047 12.7702 2.55229 12.9926 2.97612 13.1555C3.38704 13.3158 3.8574 13.4244 4.54484 13.4555C5.23487 13.4865 5.45454 13.4942 7.20675 13.4942C8.96154 13.4942 9.18121 13.4865 9.86865 13.4555C10.5561 13.4244 11.0265 13.3132 11.4374 13.1555C11.8612 12.99 12.223 12.7702 12.5797 12.4107C12.9363 12.0513 13.1611 11.6919 13.324 11.2678C13.4842 10.8566 13.5927 10.386 13.6237 9.6981C13.6548 9.00766 13.6625 8.78786 13.6625 7.0346C13.6625 5.28134 13.6573 5.05895 13.6263 4.37109ZM12.466 9.64638C12.4375 10.2773 12.3316 10.6213 12.2437 10.8463C12.1274 11.1462 11.9853 11.3634 11.7578 11.591C11.5304 11.8186 11.3159 11.9556 11.0135 12.0772C10.7861 12.1651 10.4424 12.2711 9.81438 12.2995C9.13469 12.3306 8.93052 12.3383 7.20416 12.3383C5.4778 12.3383 5.27363 12.3306 4.59394 12.2995C3.96335 12.2711 3.61963 12.1651 3.39479 12.0772C3.095 11.9608 2.87792 11.8186 2.65049 11.591C2.42307 11.3634 2.2861 11.1488 2.16463 10.8463C2.07676 10.6187 1.9708 10.2748 1.94237 9.64638C1.91136 8.96628 1.90361 8.762 1.90361 7.0346C1.90361 5.3072 1.91136 5.10291 1.94237 4.42281C1.9708 3.79184 2.07676 3.44792 2.16463 3.22294C2.28093 2.92297 2.42307 2.70576 2.65049 2.47819C2.87792 2.25063 3.09242 2.11358 3.39479 1.99204C3.62222 1.90412 3.96594 1.79809 4.59394 1.76965C5.27363 1.73862 5.4778 1.73086 7.20416 1.73086C8.93052 1.73086 9.13469 1.73862 9.81438 1.76965C10.445 1.79809 10.7887 1.90412 11.0135 1.99204C11.3133 2.10841 11.5304 2.25063 11.7578 2.47819C11.9853 2.70576 12.1222 2.92039 12.2437 3.22294C12.3316 3.4505 12.4375 3.79443 12.466 4.42281C12.497 5.10291 12.5047 5.3072 12.5047 7.0346C12.5047 8.762 12.4944 8.96628 12.466 9.64638Z" fill="#006998"/>
<path id="Vector_2" d="M7.20408 3.71423C5.36917 3.71423 3.88574 5.20114 3.88574 7.03456C3.88574 8.87057 5.37176 10.3549 7.20408 10.3549C9.0364 10.3549 10.5224 8.8654 10.5224 7.03456C10.5224 5.19856 9.03899 3.71423 7.20408 3.71423ZM7.20408 9.18864C6.01527 9.18864 5.0513 8.22409 5.0513 7.03456C5.0513 5.84504 6.01527 4.88049 7.20408 4.88049C8.39289 4.88049 9.35686 5.84504 9.35686 7.03456C9.35686 8.22409 8.39289 9.18864 7.20408 9.18864Z" fill="#006998"/>
<path id="Vector_3" d="M10.6518 4.36076C11.08 4.36076 11.4271 4.01343 11.4271 3.58498C11.4271 3.15653 11.08 2.8092 10.6518 2.8092C10.2236 2.8092 9.87646 3.15653 9.87646 3.58498C9.87646 4.01343 10.2236 4.36076 10.6518 4.36076Z" fill="#006998"/>
</g>
</svg>
