<svg width="21" height="17" viewBox="0 0 21 17" fill="none" xmlns="http://www.w3.org/2000/svg">
<path d="M10.5 6.68187L7.31818 3.50006L10.5 0.318237L13.6818 3.50006L10.5 6.68187ZM0.5 16.6819V13.0455C0.5 12.5304 0.67803 12.0985 1.03409 11.7501C1.39015 11.4016 1.81818 11.2273 2.31818 11.2273H5.29545C5.59848 11.2273 5.88636 11.3031 6.15909 11.4546C6.43182 11.6061 6.65152 11.8107 6.81818 12.0682C7.25758 12.6591 7.79924 13.1213 8.44318 13.4546C9.08712 13.7879 9.77273 13.9546 10.5 13.9546C11.2424 13.9546 11.9356 13.7879 12.5795 13.4546C13.2235 13.1213 13.7576 12.6591 14.1818 12.0682C14.3788 11.8107 14.6098 11.6061 14.875 11.4546C15.1402 11.3031 15.4167 11.2273 15.7045 11.2273H18.6818C19.197 11.2273 19.6288 11.4016 19.9773 11.7501C20.3258 12.0985 20.5 12.5304 20.5 13.0455V16.6819H14.1364V14.6137C13.6061 14.9925 13.0341 15.2804 12.4205 15.4773C11.8068 15.6743 11.1667 15.7728 10.5 15.7728C9.84848 15.7728 9.21212 15.6705 8.59091 15.466C7.9697 15.2614 7.39394 14.9698 6.86364 14.591V16.6819H0.5ZM3.22727 10.3182C2.4697 10.3182 1.82576 10.0531 1.29545 9.52278C0.765152 8.99248 0.5 8.34854 0.5 7.59096C0.5 6.81824 0.765152 6.17051 1.29545 5.64778C1.82576 5.12506 2.4697 4.86369 3.22727 4.86369C4 4.86369 4.64773 5.12506 5.17045 5.64778C5.69318 6.17051 5.95455 6.81824 5.95455 7.59096C5.95455 8.34854 5.69318 8.99248 5.17045 9.52278C4.64773 10.0531 4 10.3182 3.22727 10.3182ZM17.7727 10.3182C17.0152 10.3182 16.3712 10.0531 15.8409 9.52278C15.3106 8.99248 15.0455 8.34854 15.0455 7.59096C15.0455 6.81824 15.3106 6.17051 15.8409 5.64778C16.3712 5.12506 17.0152 4.86369 17.7727 4.86369C18.5455 4.86369 19.1932 5.12506 19.7159 5.64778C20.2386 6.17051 20.5 6.81824 20.5 7.59096C20.5 8.34854 20.2386 8.99248 19.7159 9.52278C19.1932 10.0531 18.5455 10.3182 17.7727 10.3182Z" fill="#001848"/>
</svg>
