<svg width="16" height="13" viewBox="0 0 16 13" fill="none" xmlns="http://www.w3.org/2000/svg">
<path d="M13.9586 3.32944C13.9647 3.46838 13.9647 3.60102 13.9647 3.73996C13.9708 7.95261 10.8757 12.8158 5.21568 12.8158C3.5463 12.8158 1.90739 12.3168 0.5 11.3821C0.743704 11.4137 0.987409 11.4263 1.23111 11.4263C2.61413 11.4263 3.9606 10.9463 5.05118 10.0558C3.73517 10.0305 2.57758 9.13998 2.17547 7.83893C2.63851 7.93366 3.11373 7.91472 3.56458 7.78208C2.13282 7.49156 1.10317 6.18418 1.09708 4.66207C1.09708 4.64944 1.09708 4.63681 1.09708 4.62418C1.52356 4.87049 2.00487 5.00944 2.49228 5.02207C1.14582 4.08733 0.725427 2.22417 1.54184 0.765218C3.10764 2.76101 5.41064 3.96733 7.88424 4.09997C7.63444 2.9947 7.97563 1.83259 8.77376 1.04943C10.0106 -0.15689 11.9602 -0.093732 13.13 1.18838C13.8184 1.04943 14.4825 0.784166 15.0857 0.411533C14.8542 1.15048 14.3729 1.77575 13.7331 2.17364C14.3424 2.09785 14.9395 1.92733 15.5 1.67469C15.0857 2.31891 14.5617 2.8747 13.9586 3.32944Z" fill="#006998"/>
</svg>
