<svg width="14" height="10" viewBox="0 0 14 10" fill="none" xmlns="http://www.w3.org/2000/svg">
<g id="Group">
<path id="Vector" d="M13.3966 1.92892C13.2477 1.37588 12.8116 0.939824 12.2586 0.790927C11.2482 0.514404 7.20672 0.514404 7.20672 0.514404C7.20672 0.514404 3.16523 0.514404 2.15486 0.780292C1.61245 0.929188 1.16576 1.37588 1.01686 1.92892C0.750977 2.9393 0.750977 5.03449 0.750977 5.03449C0.750977 5.03449 0.750977 7.14031 1.01686 8.14005C1.16576 8.6931 1.60182 9.12915 2.15486 9.27805C3.17587 9.55457 7.20672 9.55457 7.20672 9.55457C7.20672 9.55457 11.2482 9.55457 12.2586 9.28868C12.8116 9.13979 13.2477 8.70373 13.3966 8.15069C13.6625 7.14031 13.6625 5.04512 13.6625 5.04512C13.6625 5.04512 13.6731 2.9393 13.3966 1.92892Z" fill="#006998"/>
<path id="Vector_2" d="M5.91992 6.9702L9.28074 5.03454L5.91992 3.09888V6.9702Z" fill="white"/>
</g>
</svg>
